<svg viewBox="0 0 31 31" fill="none" xmlns="http://www.w3.org/2000/svg">
    <path
        d="M30.1518 3.89223C30.1503 3.75387 30.1208 3.61716 30.065 3.49002C30.0092 3.36288 29.9281 3.24783 29.8265 3.15152C29.725 3.05522 29.6049 2.97956 29.4732 2.92894C29.3415 2.87832 29.2009 2.85374 29.0594 2.85662L13.5655 2.85661C13.0948 1.2535 11.5809 0.0659172 9.79787 0.0659171C8.01505 0.065917 6.50119 1.25384 6.03028 2.85661L1.23718 2.85661C1.09538 2.85465 0.954599 2.88027 0.823013 2.93198C0.691425 2.9837 0.571663 3.06047 0.47068 3.15784C0.369696 3.25521 0.289507 3.37124 0.234775 3.49919C0.180042 3.62713 0.151857 3.76444 0.151857 3.90313C0.151857 4.04181 0.180042 4.17912 0.234775 4.30706C0.289507 4.43501 0.369695 4.55104 0.47068 4.64841C0.571663 4.74578 0.691425 4.82255 0.823013 4.87427C0.954599 4.92598 1.09538 4.9516 1.23718 4.94964L6.03028 4.94964C6.50119 6.55242 8.01505 7.74034 9.79787 7.74034C11.5809 7.74034 13.0948 6.55275 13.5655 4.94964L29.0594 4.94964C29.2027 4.95255 29.3452 4.92727 29.4784 4.8753C29.6115 4.82333 29.7326 4.74573 29.8345 4.6471C29.9364 4.54848 30.017 4.43083 30.0715 4.30116C30.126 4.17148 30.1533 4.03242 30.1518 3.89223ZM30.1518 15.055C30.1503 14.9167 30.1208 14.78 30.065 14.6528C30.0092 14.5257 29.9281 14.4106 29.8265 14.3143C29.725 14.218 29.6049 14.1424 29.4732 14.0917C29.3415 14.0411 29.2009 14.0165 29.0594 14.0194L24.2663 14.0194C23.7956 12.4163 22.2818 11.2287 20.4987 11.2287C18.7159 11.2287 17.202 12.4166 16.7311 14.0194L1.23718 14.0194C1.09538 14.0174 0.954599 14.0431 0.823013 14.0948C0.691425 14.1465 0.571662 14.2233 0.47068 14.3206C0.369695 14.418 0.289506 14.534 0.234775 14.662C0.180042 14.7899 0.151857 14.9272 0.151857 15.0659C0.151857 15.2046 0.180042 15.3419 0.234775 15.4699C0.289506 15.5978 0.369695 15.7138 0.47068 15.8112C0.571662 15.9086 0.691425 15.9853 0.823013 16.0371C0.954599 16.0888 1.09538 16.1144 1.23718 16.1124L16.7311 16.1124C17.202 17.7152 18.7159 18.9031 20.4987 18.9031C22.2818 18.9031 23.7956 17.7155 24.2663 16.1124L29.0594 16.1124C29.2027 16.1153 29.3452 16.0901 29.4784 16.0381C29.6115 15.9861 29.7326 15.9085 29.8345 15.8099C29.9364 15.7113 30.017 15.5936 30.0715 15.4639C30.126 15.3343 30.1533 15.1952 30.1518 15.055ZM30.1518 26.2178C30.1503 26.0794 30.1208 25.9427 30.065 25.8156C30.0092 25.6885 29.9281 25.5734 29.8265 25.4771C29.725 25.3808 29.6049 25.3051 29.4732 25.2545C29.3415 25.2039 29.2009 25.1793 29.0594 25.1822L13.5655 25.1822C13.0948 23.5791 11.581 22.3915 9.79787 22.3915C8.01505 22.3915 6.50119 23.5794 6.03028 25.1822L1.23718 25.1822C1.09538 25.1802 0.954598 25.2059 0.823012 25.2576C0.691424 25.3093 0.571662 25.386 0.470679 25.4834C0.369695 25.5808 0.289506 25.6968 0.234774 25.8248C0.180041 25.9527 0.151856 26.09 0.151856 26.2287C0.151856 26.3674 0.180041 26.5047 0.234774 26.6326C0.289506 26.7606 0.369694 26.8766 0.470679 26.974C0.571662 27.0714 0.691424 27.1481 0.823012 27.1998C0.954598 27.2516 1.09538 27.2772 1.23718 27.2752L6.03028 27.2752C6.50119 28.878 8.01505 30.0659 9.79787 30.0659C11.581 30.0659 13.0948 28.8783 13.5655 27.2752L29.0594 27.2752C29.2027 27.2781 29.3452 27.2529 29.4784 27.2009C29.6115 27.1489 29.7326 27.0713 29.8345 26.9727C29.9364 26.8741 30.017 26.7564 30.0715 26.6267C30.126 26.4971 30.1533 26.358 30.1518 26.2178ZM22.2822 15.0659C22.2822 16.0416 21.4964 16.8101 20.4987 16.8101C19.5011 16.8101 18.7153 16.0416 18.7153 15.0659C18.7153 14.0902 19.5011 13.3217 20.4987 13.3217C21.4964 13.3217 22.2822 14.0902 22.2822 15.0659ZM11.5813 3.90313C11.5813 4.8788 10.7955 5.64731 9.79787 5.64731C8.80019 5.64731 8.01439 4.8788 8.01439 3.90313C8.01439 2.92745 8.80019 2.15894 9.79787 2.15894C10.7955 2.15894 11.5813 2.92745 11.5813 3.90313ZM11.5813 26.2287C11.5813 27.2044 10.7956 27.9729 9.79787 27.9729C8.80019 27.9729 8.01439 27.2044 8.01439 26.2287C8.01439 25.253 8.80019 24.4845 9.79787 24.4845C10.7956 24.4845 11.5813 25.253 11.5813 26.2287Z"
        fill="currentColor"/>
</svg>
