<svg viewBox="0 0 20 23" fill="none" xmlns="http://www.w3.org/2000/svg">
    <path
        d="M9.91406 12.2344H10.0645C10.7376 12.2201 11.3392 12.0983 11.8691 11.8691C12.4134 11.6257 12.8861 11.2819 13.2871 10.8379C13.7168 10.3509 14.0391 9.79232 14.2539 9.16211C14.4544 8.5319 14.5905 7.9375 14.6621 7.37891C14.7337 6.80599 14.7624 6.31185 14.748 5.89648C14.7337 5.48112 14.7194 5.23047 14.7051 5.14453C14.6478 3.92708 14.3828 3.00326 13.9102 2.37305C13.4375 1.74284 12.9648 1.29167 12.4922 1.01953C12.1484 0.81901 11.7689 0.66862 11.3535 0.568359C10.9382 0.453776 10.5013 0.389323 10.043 0.375H9.97852C9.7207 0.375 9.36263 0.410807 8.9043 0.482422C8.46029 0.554036 8.00195 0.725911 7.5293 0.998047C7.04232 1.27018 6.55534 1.72852 6.06836 2.37305C5.5957 3.00326 5.33073 3.92708 5.27344 5.14453C5.27344 5.23047 5.26628 5.48112 5.25195 5.89648C5.23763 6.31185 5.26628 6.80599 5.33789 7.37891C5.40951 7.9375 5.54557 8.5319 5.74609 9.16211C5.94661 9.79232 6.26888 10.3509 6.71289 10.8379C7.11393 11.2819 7.57943 11.6257 8.10938 11.8691C8.65365 12.0983 9.25521 12.2201 9.91406 12.2344ZM6.49805 5.27344C6.49805 5.25911 6.49805 5.25195 6.49805 5.25195C6.49805 5.23763 6.49805 5.23047 6.49805 5.23047C6.58398 3.59766 7.05664 2.58789 7.91602 2.20117C8.78971 1.80013 9.47005 1.59961 9.95703 1.59961H10.0215C10.6374 1.61393 11.3464 1.83594 12.1484 2.26562C12.9648 2.69531 13.4089 3.68359 13.4805 5.23047C13.4805 5.23047 13.4805 5.23763 13.4805 5.25195C13.4805 5.25195 13.4805 5.25911 13.4805 5.27344C13.4805 5.27344 13.4948 5.44531 13.5234 5.78906C13.5378 6.13281 13.5163 6.55534 13.459 7.05664C13.416 7.54362 13.3158 8.05924 13.1582 8.60352C12.9863 9.14779 12.7214 9.62044 12.3633 10.0215C12.0768 10.3509 11.7402 10.5944 11.3535 10.752C10.9668 10.9095 10.5228 10.9883 10.0215 10.9883H9.97852C9.47721 10.9883 9.02604 10.9095 8.625 10.752C8.23828 10.5944 7.90885 10.3509 7.63672 10.0215C7.26432 9.62044 6.99935 9.14779 6.8418 8.60352C6.68424 8.05924 6.57682 7.54362 6.51953 7.05664C6.46224 6.55534 6.44792 6.13281 6.47656 5.78906C6.49089 5.44531 6.49805 5.27344 6.49805 5.27344ZM19.3457 17.8418C19.3457 17.8275 19.3457 17.8132 19.3457 17.7988C19.3457 17.7702 19.3457 17.7415 19.3457 17.7129C19.3314 17.2689 19.2311 16.6315 19.0449 15.8008C18.8587 14.9557 18.2715 14.3685 17.2832 14.0391L17.2402 14.0176C16.209 13.7598 15.321 13.416 14.5762 12.9863C13.8457 12.5423 13.4733 12.3132 13.459 12.2988C13.416 12.2702 13.3587 12.2487 13.2871 12.2344C13.2298 12.2057 13.1725 12.1914 13.1152 12.1914C12.9434 12.1914 12.793 12.2559 12.6641 12.3848C12.5495 12.4993 12.4922 12.6426 12.4922 12.8145C12.4922 12.9147 12.5137 13.0078 12.5566 13.0938C12.6139 13.1797 12.6784 13.2513 12.75 13.3086C12.793 13.3372 13.2155 13.5879 14.0176 14.0605C14.8197 14.5332 15.7865 14.9128 16.918 15.1992C17.4479 15.3997 17.7773 15.7507 17.9062 16.252C18.0352 16.7389 18.1068 17.2402 18.1211 17.7559C18.1211 17.7845 18.1211 17.806 18.1211 17.8203C18.1211 17.8346 18.1211 17.849 18.1211 17.8633C18.1354 18.0781 18.1283 18.3216 18.0996 18.5938C18.0853 18.8659 18.0638 19.0951 18.0352 19.2812C17.849 19.3815 17.5339 19.5391 17.0898 19.7539C16.6458 19.9544 16.0801 20.1621 15.3926 20.377C14.7051 20.5775 13.9102 20.7565 13.0078 20.9141C12.1055 21.0716 11.1029 21.1504 10 21.1504C8.91146 21.1504 7.90885 21.0716 6.99219 20.9141C6.08984 20.7565 5.29492 20.5775 4.60742 20.377C3.93424 20.1621 3.36849 19.9544 2.91016 19.7539C2.46615 19.5391 2.15104 19.3815 1.96484 19.2812C1.9362 19.0951 1.90755 18.8659 1.87891 18.5938C1.86458 18.3216 1.86458 18.0781 1.87891 17.8633C1.87891 17.849 1.87891 17.8346 1.87891 17.8203C1.87891 17.7917 1.87891 17.7702 1.87891 17.7559C1.89323 17.2402 1.96484 16.7318 2.09375 16.2305C2.22266 15.7292 2.55208 15.3854 3.08203 15.1992C4.21354 14.9128 5.18034 14.5332 5.98242 14.0605C6.78451 13.5879 7.20703 13.3372 7.25 13.3086C7.32161 13.2513 7.37891 13.1797 7.42188 13.0938C7.47917 13.0078 7.50781 12.9076 7.50781 12.793C7.50781 12.6211 7.44336 12.4779 7.31445 12.3633C7.19987 12.2487 7.05664 12.1914 6.88477 12.1914C6.82747 12.1914 6.76302 12.1986 6.69141 12.2129C6.63411 12.2272 6.58398 12.2559 6.54102 12.2988C6.52669 12.2988 6.14714 12.5208 5.40234 12.9648C4.67188 13.4089 3.79102 13.7598 2.75977 14.0176C2.74544 14.0176 2.73112 14.0247 2.7168 14.0391C1.72852 14.3685 1.14128 14.9557 0.955078 15.8008C0.76888 16.6315 0.66862 17.2689 0.654297 17.7129C0.654297 17.7415 0.654297 17.763 0.654297 17.7773C0.654297 17.7917 0.654297 17.8132 0.654297 17.8418C0.639974 17.9564 0.639974 18.2572 0.654297 18.7441C0.682943 19.2168 0.754557 19.6035 0.869141 19.9043C0.897786 19.9616 0.933594 20.0189 0.976562 20.0762C1.01953 20.1191 1.0625 20.1621 1.10547 20.2051C1.14844 20.2194 1.3776 20.3411 1.79297 20.5703C2.20833 20.7995 2.79557 21.0501 3.55469 21.3223C4.3138 21.5944 5.23763 21.8379 6.32617 22.0527C7.41471 22.2676 8.63932 22.375 10 22.375C11.375 22.375 12.6068 22.2676 13.6953 22.0527C14.7695 21.8236 15.6862 21.5729 16.4453 21.3008C17.2188 21.043 17.8132 20.7995 18.2285 20.5703C18.6439 20.3411 18.8659 20.2194 18.8945 20.2051C18.9518 20.1621 19.002 20.1191 19.0449 20.0762C19.0879 20.0332 19.1165 19.9759 19.1309 19.9043C19.2454 19.6035 19.3099 19.2168 19.3242 18.7441C19.3529 18.2715 19.36 17.9707 19.3457 17.8418Z"
        fill="currentColor"/>
</svg>
