<svg width="13" height="16" viewBox="0 0 13 16" fill="none" xmlns="http://www.w3.org/2000/svg">
    <path
        d="M12.8264 4.01071L8.85256 0.167857C8.74176 0.0607143 8.59219 0 8.43523 0H0.590909C0.264062 0 0 0.255357 0 0.571429V15.4286C0 15.7446 0.264062 16 0.590909 16H12.4091C12.7359 16 13 15.7446 13 15.4286V4.41607C13 4.26429 12.9372 4.11786 12.8264 4.01071ZM11.6372 4.67857H8.16193V1.31786L11.6372 4.67857ZM11.6705 14.7143H1.32955V1.28571H6.90625V5.14286C6.90625 5.34177 6.98796 5.53254 7.13341 5.67319C7.27886 5.81384 7.47613 5.89286 7.68182 5.89286H11.6705V14.7143Z"
        fill="currentColor"/>
    <path
        d="M4.98233 10.2244C4.81001 10.0413 4.51917 10.041 4.34645 10.2237C4.18712 10.3922 4.18712 10.6558 4.34645 10.8243L5.33487 11.8697C5.41434 11.9532 5.52183 12.0001 5.63388 12.0001C5.74593 12.0001 5.85342 11.9532 5.93289 11.8697L9.46773 8.13115C9.62612 7.96363 9.62611 7.70159 9.46773 7.53407C9.29628 7.35275 9.00769 7.35275 8.83624 7.53407L5.636 10.9187L4.98233 10.2244Z"
        fill="currentColor" stroke="currentColor" stroke-width="0.5"/>
</svg>
