<svg width="16" height="16" viewBox="0 0 16 16" fill="none" xmlns="http://www.w3.org/2000/svg">
    <path
        d="M15.7188 8.65476L12.625 12.7092C12.4375 12.886 12.2109 12.9743 11.9453 12.9743C11.6797 12.9743 11.4531 12.8834 11.2656 12.7014C11.0781 12.5195 10.9844 12.296 10.9844 12.0309C10.9844 11.7658 11.0781 11.5397 11.2656 11.3525L13.8438 7.98421L11.2656 4.61587C11.0781 4.42874 10.9844 4.20522 10.9844 3.94532C10.9844 3.68542 11.0781 3.4619 11.2656 3.27477C11.4531 3.08764 11.6797 2.99408 11.9453 2.99408C12.2109 2.99408 12.4375 3.08764 12.625 3.27477L15.7188 7.31366C15.9062 7.50079 16 7.7243 16 7.98421C16 8.24411 15.9062 8.46763 15.7188 8.65476ZM8 14.986C7.98958 15.0172 7.97396 15.0769 7.95312 15.1653C7.93229 15.2537 7.91667 15.3135 7.90625 15.3446L7.85156 15.5084L7.77344 15.6721L7.65625 15.7969L7.49219 15.906L7.28125 15.9606L7 15.984C6.75 15.984 6.51042 15.8541 6.28125 15.5942C6.05208 15.3343 5.96875 15.0847 6.03125 14.8456L8 0.998026C8.17708 0.332675 8.67708 0 9.5 0C9.72917 0 9.88281 0.122154 9.96094 0.366463C10.0391 0.610771 10.0417 0.868075 9.96875 1.13837L8 14.986ZM4.73438 12.7014C4.54688 12.8834 4.32031 12.9743 4.05469 12.9743C3.78906 12.9743 3.5625 12.886 3.375 12.7092L0.28125 8.65476C0.09375 8.46763 0 8.24411 0 7.98421C0 7.7243 0.09375 7.50079 0.28125 7.31366L3.375 3.27477C3.5625 3.08764 3.78906 2.99408 4.05469 2.99408C4.32031 2.99408 4.54688 3.08764 4.73438 3.27477C4.92188 3.4619 5.01562 3.68542 5.01562 3.94532C5.01562 4.20522 4.92188 4.42874 4.73438 4.61587L2.15625 7.98421L4.73438 11.3525C4.92188 11.5397 5.01562 11.7658 5.01562 12.0309C5.01562 12.296 4.92188 12.5195 4.73438 12.7014Z"
        fill="currentColor"/>
</svg>
