<svg viewBox="0 0 30 30" fill="none" xmlns="http://www.w3.org/2000/svg">
    <path
        d="M27.8649 12.7573C27.7743 12.6386 27.656 12.568 27.5095 12.5456L24.4117 12.0717C24.2425 11.53 24.0111 10.9772 23.7178 10.4128C23.9207 10.1307 24.2252 9.73302 24.6314 9.2194C25.0376 8.7059 25.3253 8.33083 25.4947 8.09374C25.585 7.96958 25.6299 7.83992 25.6299 7.70438C25.6299 7.5465 25.5907 7.42246 25.5114 7.33205C25.1054 6.75647 24.1743 5.79735 22.7185 4.45439C22.5836 4.34156 22.4422 4.28518 22.2957 4.28518C22.1263 4.28518 21.9909 4.33587 21.8893 4.43738L19.4858 6.2486C19.023 6.0115 18.5151 5.80275 17.9624 5.62221L17.4885 2.50781C17.4772 2.36113 17.4122 2.23977 17.2937 2.14384C17.1751 2.04779 17.0371 2 16.8789 2H13.1211C12.7938 2 12.5907 2.15789 12.5117 2.4739C12.365 3.03792 12.2013 4.08739 12.0208 5.62215C11.4904 5.79172 10.9769 6.00611 10.4804 6.26562L8.1445 4.45439C7.99782 4.34156 7.85114 4.28518 7.70446 4.28518C7.45621 4.28518 6.92308 4.68858 6.10489 5.49545C5.2867 6.30249 4.73122 6.90896 4.43756 7.31503C4.33594 7.46171 4.2853 7.59156 4.2853 7.70438C4.2853 7.83992 4.34163 7.97534 4.45446 8.11057C5.21045 9.02481 5.81431 9.80322 6.26574 10.4467C5.98359 10.9658 5.76356 11.485 5.60574 12.004L2.45718 12.4778C2.33309 12.5005 2.22595 12.5739 2.13559 12.6981C2.04506 12.8221 2 12.952 2 13.0872V16.8451C2 16.992 2.04506 17.1243 2.13542 17.2428C2.22577 17.3613 2.34417 17.4322 2.49092 17.4546L5.58878 17.9117C5.74667 18.4646 5.97795 19.023 6.2827 19.5871C6.07969 19.8693 5.77501 20.267 5.36876 20.7805C4.96257 21.2942 4.67454 21.6692 4.50545 21.9061C4.41503 22.0308 4.36997 22.1602 4.36997 22.2957C4.36997 22.4422 4.40946 22.5718 4.48837 22.6847C4.92847 23.2944 5.85943 24.2423 7.28143 25.5287C7.40564 25.6529 7.54675 25.7148 7.70458 25.7148C7.87396 25.7148 8.01501 25.6642 8.12778 25.5628L10.5147 23.7513C10.9776 23.9883 11.4853 24.1971 12.0383 24.3779L12.5122 27.4923C12.5236 27.6388 12.5885 27.7602 12.7068 27.8563C12.8252 27.9525 12.9636 28 13.1215 28H16.8793C17.2072 28 17.41 27.8422 17.4892 27.526C17.6357 26.962 17.7992 25.9126 17.9798 24.3779C18.5102 24.2085 19.0237 23.994 19.5202 23.7343L21.8563 25.5628C22.0142 25.6643 22.1611 25.7148 22.2962 25.7148C22.5444 25.7148 23.0747 25.3144 23.8871 24.513C24.6999 23.7119 25.2585 23.1025 25.5629 22.6847C25.6643 22.5719 25.7152 22.4422 25.7152 22.2957C25.7152 22.1488 25.659 22.0074 25.5458 21.8724C24.7336 20.8791 24.1298 20.1007 23.7347 19.5363C23.9604 19.1187 24.1805 18.6054 24.395 17.996L27.5265 17.5224C27.6616 17.4997 27.7748 17.4262 27.8649 17.302C27.9552 17.1777 28 17.0478 28 16.9125V13.155C28.0003 13.0083 27.9555 12.8759 27.8649 12.7573ZM18.0642 18.0637C17.2181 18.9102 16.1968 19.3335 15.0004 19.3335C13.8041 19.3335 12.7829 18.9102 11.9364 18.0637C11.0902 17.2176 10.667 16.1962 10.667 15.0001C10.667 13.8038 11.09 12.7826 11.9364 11.9361C12.7829 11.09 13.8043 10.6667 15.0004 10.6667C16.1968 10.6667 17.2181 11.09 18.0642 11.9361C18.9105 12.7826 19.3337 13.8038 19.3337 15.0001C19.3337 16.1962 18.9105 17.2177 18.0642 18.0637Z"
        stroke="currentColor" stroke-width="1.5"/>
</svg>
