<svg viewBox="0 0 16 20" fill="none" xmlns="http://www.w3.org/2000/svg">
    <path
        d="M8.43864 11.3815L8.44545 11.3503C8.57727 10.8173 8.74318 10.1528 8.61364 9.55071C8.52727 9.07574 8.17045 8.89066 7.86591 8.87728C7.50682 8.86167 7.18636 9.06236 7.10682 9.35448C6.95682 9.88966 7.09091 10.6211 7.33636 11.5532C7.02727 12.2757 6.53409 13.326 6.17273 13.9503C5.5 14.2915 4.59773 14.8178 4.46364 15.4823C4.43636 15.6049 4.46818 15.761 4.54318 15.9015C4.62727 16.0576 4.76136 16.178 4.91818 16.236C4.98636 16.2605 5.06818 16.2806 5.16364 16.2806C5.56364 16.2806 6.21136 15.9639 7.075 14.51C7.20682 14.4677 7.34318 14.4231 7.475 14.3785C8.09318 14.1733 8.73409 13.9592 9.31364 13.8634C9.95455 14.2001 10.6841 14.4164 11.1795 14.4164C11.6705 14.4164 11.8636 14.131 11.9364 13.9592C12.0636 13.6582 12.0023 13.2791 11.7955 13.0762C11.4955 12.7863 10.7659 12.7105 9.62955 12.8488C9.07046 12.5143 8.70455 12.0594 8.43864 11.3815ZM5.94546 14.7687C5.62955 15.2191 5.39091 15.4444 5.26136 15.5425C5.41364 15.2682 5.71136 14.9783 5.94546 14.7687ZM7.93636 9.51726C8.05455 9.71573 8.03864 10.3156 7.94773 10.6188C7.83636 10.1751 7.82045 9.54625 7.88636 9.47267C7.90455 9.4749 7.92045 9.48828 7.93636 9.51726ZM7.9 12.2043C8.14318 12.6168 8.45 12.9714 8.78864 13.2345C8.29773 13.3438 7.85 13.5244 7.45 13.685C7.35455 13.7229 7.26136 13.7608 7.17045 13.7965C7.47273 13.2591 7.725 12.6503 7.9 12.2043ZM11.4364 13.6649C11.4386 13.6694 11.4409 13.6761 11.4273 13.685H11.4227L11.4182 13.6917C11.4 13.7028 11.2136 13.8098 10.4114 13.4999C11.3341 13.4575 11.4341 13.6627 11.4364 13.6649ZM15.7864 5.00838L10.8955 0.209612C10.7591 0.075817 10.575 0 10.3818 0H0.727273C0.325 0 0 0.318877 0 0.713572V19.2664C0 19.6611 0.325 19.98 0.727273 19.98H15.2727C15.675 19.98 16 19.6611 16 19.2664V5.51457C16 5.32503 15.9227 5.14218 15.7864 5.00838ZM14.3227 5.84237H10.0455V1.64568L14.3227 5.84237ZM14.3636 18.3745H1.63636V1.60554H8.5V6.42215C8.5 6.67054 8.60057 6.90876 8.77958 7.0844C8.95859 7.26004 9.20138 7.35871 9.45455 7.35871H14.3636V18.3745Z"
        fill="currentColor"/>
</svg>
