<svg width="16" height="16" viewBox="0 0 16 16" fill="none" xmlns="http://www.w3.org/2000/svg">
    <g clip-path="url(#clip0)">
        <path
            d="M14.8479 6.43196L13.8719 6.15996L13.4559 5.13596L13.9519 4.25596C14.1759 3.85596 14.1119 3.35996 13.7919 3.03996L12.9599 2.20796C12.6399 1.88796 12.1279 1.82396 11.7439 2.04796L10.8639 2.54396L9.8399 2.12796L9.5679 1.15196C9.4399 0.719963 9.0399 0.399963 8.5919 0.399963H7.4239C6.9759 0.399963 6.5599 0.703963 6.4479 1.15196L6.1759 2.12796L5.1519 2.54396L4.2719 2.04796C3.8719 1.82396 3.3759 1.88796 3.0559 2.20796L2.2079 3.03996C1.8879 3.35996 1.8239 3.87196 2.0479 4.25596L2.5439 5.13596L2.1279 6.15996L1.1519 6.43196C0.719902 6.55996 0.399902 6.95996 0.399902 7.40796V8.57596C0.399902 9.03996 0.703902 9.43996 1.1519 9.55196L2.1279 9.82396L2.5439 10.848L2.0479 11.728C1.8239 12.128 1.8879 12.624 2.2079 12.944L3.0399 13.776C3.3599 14.096 3.8719 14.16 4.2559 13.936L5.1359 13.44L6.1599 13.856L6.4319 14.832C6.5599 15.264 6.9599 15.584 7.4079 15.584H8.5759C9.0239 15.584 9.4399 15.28 9.5519 14.832L9.8239 13.856L10.8479 13.44L11.7279 13.936C12.1279 14.16 12.6239 14.096 12.9439 13.776L13.7759 12.944C14.0959 12.624 14.1599 12.128 13.9359 11.728L13.4399 10.848L13.8559 9.82396L14.8319 9.55196C15.2639 9.42396 15.5839 9.02396 15.5839 8.57596V7.40796C15.5999 6.95996 15.2959 6.55996 14.8479 6.43196ZM14.7359 8.59196C14.7359 8.65596 14.6879 8.73596 14.6239 8.75196L13.2479 9.11996L12.5119 10.912L13.2159 12.16C13.2479 12.224 13.2479 12.304 13.1839 12.352L12.3519 13.184C12.3039 13.232 12.2239 13.248 12.1599 13.216L10.9119 12.512L9.1199 13.248L8.7359 14.624C8.7199 14.688 8.6559 14.736 8.5759 14.736H7.4079C7.3439 14.736 7.2799 14.688 7.2479 14.624L6.8799 13.248L5.0879 12.512L3.8399 13.216C3.7759 13.248 3.6959 13.248 3.6479 13.184L2.8159 12.352C2.7679 12.304 2.7519 12.224 2.7839 12.16L3.4879 10.912L2.7519 9.11996L1.3759 8.73596C1.3119 8.71996 1.2639 8.65596 1.2639 8.57596V7.40796C1.2639 7.32796 1.3119 7.27996 1.3759 7.24796L2.7519 6.86396L3.4879 5.07196L2.7839 3.83996C2.7519 3.77596 2.7519 3.69596 2.8159 3.64796L3.6479 2.81596C3.6959 2.76796 3.7759 2.75196 3.8399 2.78396L5.0879 3.48796L6.8799 2.75196L7.2639 1.37596C7.2799 1.31196 7.3439 1.26396 7.4239 1.26396H8.5919C8.6559 1.26396 8.7199 1.31196 8.7519 1.37596L9.1359 2.75196L10.9279 3.50396L12.1759 2.79996C12.2399 2.76796 12.3199 2.76796 12.3679 2.83196L13.1999 3.66396C13.2479 3.71196 13.2639 3.79196 13.2319 3.85596L12.5279 5.10396L13.2479 6.87996L14.6239 7.26396C14.6879 7.27996 14.7359 7.34396 14.7359 7.42396V8.59196Z"
            fill="currentColor"/>
        <path
            d="M7.99987 5.11993C6.41587 5.11993 5.11987 6.41593 5.11987 7.99993C5.11987 9.58393 6.41587 10.8799 7.99987 10.8799C9.58387 10.8799 10.8799 9.58393 10.8799 7.99993C10.8799 6.41593 9.58387 5.11993 7.99987 5.11993ZM7.99987 10.0159C6.87987 10.0159 5.98387 9.10393 5.98387 7.99993C5.98387 6.87993 6.89587 5.98393 7.99987 5.98393C9.10387 5.98393 10.0159 6.87993 10.0159 7.99993C10.0159 9.11993 9.11987 10.0159 7.99987 10.0159Z"
            fill="currentColor"/>
    </g>
    <defs>
        <clipPath id="clip0">
            <rect width="16" height="16" fill="white"/>
        </clipPath>
    </defs>
</svg>
