<svg viewBox="0 0 30 24" fill="none" xmlns="http://www.w3.org/2000/svg">
    <path
        d="M27.3633 0H2.63672C1.18283 0 0 1.24228 0 2.76923V21.2308C0 22.7577 1.18283 24 2.63672 24H27.3633C28.8172 24 30 22.7577 30 21.2308V2.76923C30 1.24228 28.8172 0 27.3633 0ZM28.2422 21.2308C28.2422 21.7398 27.8479 22.1538 27.3633 22.1538H2.63672C2.15209 22.1538 1.75781 21.7398 1.75781 21.2308V2.76923C1.75781 2.26025 2.15209 1.84615 2.63672 1.84615H27.3633C27.8479 1.84615 28.2422 2.26025 28.2422 2.76923V21.2308Z"
        fill="currentColor"/>
    <path
        d="M13.2855 6.74902H4.71404C4.31957 6.74902 3.99976 7.08491 3.99976 7.49921V16.5014C3.99976 16.9157 4.31957 17.2516 4.71404 17.2516H13.2855C13.6799 17.2516 13.9998 16.9157 13.9998 16.5014V7.49921C13.9998 7.08491 13.6799 6.74902 13.2855 6.74902ZM12.5712 8.2494V15.3329C10.5692 15.3329 7.90252 15.333 5.42828 15.333V8.2494H12.5712Z"
        fill="currentColor"/>
    <path
        d="M25.6079 7.32324H18.4595C17.9741 7.32324 17.5806 7.73654 17.5806 8.24634C17.5806 8.75613 17.9741 9.16943 18.4595 9.16943H25.6079C26.0933 9.16943 26.4868 8.75613 26.4868 8.24634C26.4868 7.73654 26.0933 7.32324 25.6079 7.32324Z"
        fill="currentColor"/>
    <path
        d="M25.6079 11.0156H18.4595C17.9741 11.0156 17.5806 11.4289 17.5806 11.9387C17.5806 12.4485 17.9741 12.8618 18.4595 12.8618H25.6079C26.0933 12.8618 26.4868 12.4485 26.4868 11.9387C26.4868 11.4289 26.0933 11.0156 25.6079 11.0156V11.0156Z"
        fill="currentColor"/>
    <path
        d="M25.6079 14.708H18.4595C17.9741 14.708 17.5806 15.1213 17.5806 15.6311C17.5806 16.1409 17.9741 16.5541 18.4595 16.5541H25.6079C26.0933 16.5541 26.4868 16.1409 26.4868 15.6311C26.4868 15.1213 26.0933 14.708 25.6079 14.708V14.708Z"
        fill="currentColor"/>
</svg>
