<svg width="18" height="18" viewBox="0 0 18 18" fill="none" xmlns="http://www.w3.org/2000/svg">
    <path
        d="M16.704 7.23595L15.606 6.92995L15.1379 5.77795L15.6959 4.78795C15.948 4.33795 15.8759 3.77995 15.516 3.41995L14.58 2.48395C14.22 2.12395 13.644 2.05195 13.212 2.30395L12.222 2.86195L11.07 2.39395L10.764 1.29595C10.62 0.809951 10.17 0.449951 9.66595 0.449951H8.35195C7.84795 0.449951 7.37995 0.791951 7.25395 1.29595L6.94795 2.39395L5.79595 2.86195L4.80595 2.30395C4.35595 2.05195 3.79795 2.12395 3.43795 2.48395L2.48395 3.41995C2.12395 3.77995 2.05195 4.35595 2.30395 4.78795L2.86195 5.77795L2.39395 6.92995L1.29595 7.23595C0.809951 7.37995 0.449951 7.82995 0.449951 8.33395V9.64795C0.449951 10.17 0.791951 10.62 1.29595 10.746L2.39395 11.052L2.86195 12.204L2.30395 13.194C2.05195 13.644 2.12395 14.202 2.48395 14.562L3.41995 15.498C3.77995 15.858 4.35595 15.93 4.78795 15.678L5.77795 15.12L6.92995 15.588L7.23595 16.686C7.37995 17.172 7.82995 17.532 8.33395 17.532H9.64795C10.152 17.532 10.62 17.19 10.746 16.686L11.052 15.588L12.204 15.12L13.194 15.678C13.644 15.93 14.202 15.858 14.562 15.498L15.498 14.562C15.858 14.202 15.9299 13.644 15.6779 13.194L15.12 12.204L15.588 11.052L16.6859 10.746C17.1719 10.602 17.5319 10.152 17.5319 9.64795V8.33395C17.55 7.82995 17.208 7.37995 16.704 7.23595ZM16.5779 9.66595C16.5779 9.73795 16.524 9.82795 16.452 9.84595L14.904 10.26L14.0759 12.276L14.868 13.68C14.904 13.752 14.904 13.842 14.832 13.896L13.896 14.832C13.842 14.886 13.752 14.904 13.68 14.868L12.276 14.076L10.26 14.904L9.82795 16.452C9.80995 16.524 9.73795 16.578 9.64795 16.578H8.33395C8.26195 16.578 8.18995 16.524 8.15395 16.452L7.73995 14.904L5.72395 14.076L4.31995 14.868C4.24795 14.904 4.15795 14.904 4.10395 14.832L3.16795 13.896C3.11395 13.842 3.09595 13.752 3.13195 13.68L3.92395 12.276L3.09595 10.26L1.54795 9.82795C1.47595 9.80995 1.42195 9.73795 1.42195 9.64795V8.33395C1.42195 8.24395 1.47595 8.18995 1.54795 8.15395L3.09595 7.72195L3.92395 5.70595L3.13195 4.31995C3.09595 4.24795 3.09595 4.15795 3.16795 4.10395L4.10395 3.16795C4.15795 3.11395 4.24795 3.09595 4.31995 3.13195L5.72395 3.92395L7.73995 3.09595L8.17195 1.54795C8.18995 1.47595 8.26195 1.42195 8.35195 1.42195H9.66595C9.73795 1.42195 9.80995 1.47595 9.84595 1.54795L10.278 3.09595L12.294 3.94195L13.698 3.14995C13.7699 3.11395 13.86 3.11395 13.914 3.18595L14.85 4.12195C14.904 4.17595 14.922 4.26595 14.886 4.33795L14.094 5.74195L14.904 7.73995L16.452 8.17195C16.524 8.18995 16.5779 8.26195 16.5779 8.35195V9.66595Z"
        fill="currentColor"/>
    <path
        d="M9.00001 5.76001C7.21801 5.76001 5.76001 7.21801 5.76001 9.00001C5.76001 10.782 7.21801 12.24 9.00001 12.24C10.782 12.24 12.24 10.782 12.24 9.00001C12.24 7.21801 10.782 5.76001 9.00001 5.76001ZM9.00001 11.268C7.74001 11.268 6.73201 10.242 6.73201 9.00001C6.73201 7.74001 7.75801 6.73201 9.00001 6.73201C10.242 6.73201 11.268 7.74001 11.268 9.00001C11.268 10.26 10.26 11.268 9.00001 11.268Z"
        fill="currentColor"/>
</svg>
