<svg width="16" height="16" viewBox="0 0 16 16" fill="none" xmlns="http://www.w3.org/2000/svg">
    <g clip-path="url(#clip0)">
        <path fill-rule="evenodd" clip-rule="evenodd"
              d="M13.3816 15.0223H5.1216V7.77911V4.35156H9.95763V7.77911H13.3816V15.0223ZM11.0302 4.5722L13.1582 6.69573H11.0302V4.5722ZM14.3668 6.38414C14.4244 6.44807 14.4622 6.53183 14.4622 6.62549V15.089C14.4622 15.6491 14.0084 16.103 13.4482 16.103H5.05856C4.49841 16.103 4.04453 15.6491 4.04453 15.089V4.28853C4.04453 3.72838 4.49841 3.27449 5.05856 3.27449H11.1112C11.2139 3.27449 11.3058 3.31682 11.3733 3.38526L11.3742 3.38616L14.3524 6.36432C14.3542 6.36612 14.3551 6.36702 14.3569 6.36883L14.3632 6.37603L14.3668 6.38414ZM2.41253 12.1381C2.71062 12.1381 2.95287 12.3804 2.95287 12.6784C2.95287 12.6793 2.95197 12.6802 2.95197 12.682H2.95287L2.95197 12.6829C2.94927 12.9792 2.70972 13.2188 2.41253 13.2188H2.18469C1.62454 13.2188 1.17065 12.7649 1.17065 12.2047V1.40429C1.17065 0.844143 1.62454 0.390259 2.18469 0.390259H8.23737C8.34004 0.390259 8.43279 0.432585 8.49853 0.501028L8.50034 0.501929C8.7606 0.763092 9.02176 1.02335 9.28292 1.28452C9.28112 1.28632 9.28022 1.28722 9.27932 1.28902C9.47655 1.50245 9.46934 1.83566 9.27122 2.03649C9.06499 2.24632 8.71467 2.24722 8.50124 2.03108C8.31302 1.84287 8.1248 1.65465 7.93658 1.46643C6.04 1.46643 4.14341 1.46733 2.24773 1.46733V4.89487V12.1381H2.41163H2.41253Z"
              fill="currentColor"/>
    </g>
    <defs>
        <clipPath id="clip0">
            <rect width="16" height="16" fill="white"/>
        </clipPath>
    </defs>
</svg>
