<svg viewBox="0 0 16 16" fill="none" xmlns="http://www.w3.org/2000/svg">
    <path
        d="M14.125 1.25H13.375V0H12.125V1.25H3.875V0H2.625V1.25H1.875C0.841125 1.25 0 2.09113 0 3.125V14.125C0 15.1589 0.841125 16 1.875 16H14.125C15.1589 16 16 15.1589 16 14.125V3.125C16 2.09113 15.1589 1.25 14.125 1.25ZM14.75 14.125C14.75 14.4696 14.4696 14.75 14.125 14.75H1.875C1.53038 14.75 1.25 14.4696 1.25 14.125V5.875H14.75V14.125ZM14.75 4.625H1.25V3.125C1.25 2.78038 1.53038 2.5 1.875 2.5H2.625V3.75H3.875V2.5H12.125V3.75H13.375V2.5H14.125C14.4696 2.5 14.75 2.78038 14.75 3.125V4.625Z"
        fill="currentColor"/>
    <path fill-rule="evenodd" clip-rule="evenodd"
          d="M2.37204 10.2946C2.20932 10.1319 2.20932 9.86805 2.37204 9.70533L5.02369 7.05368C5.18641 6.89096 5.45023 6.89096 5.61295 7.05368C5.77566 7.2164 5.77566 7.48022 5.61295 7.64293L3.67259 9.58329H12.3274L10.3871 7.64293C10.2243 7.48022 10.2243 7.2164 10.3871 7.05368C10.5498 6.89096 10.8136 6.89096 10.9763 7.05368L13.628 9.70533C13.7907 9.86805 13.7907 10.1319 13.628 10.2946L10.9763 12.9462C10.8136 13.109 10.5498 13.109 10.3871 12.9462C10.2243 12.7835 10.2243 12.5197 10.3871 12.357L12.3274 10.4166H3.67259L5.61295 12.357C5.77566 12.5197 5.77566 12.7835 5.61295 12.9462C5.45023 13.109 5.18641 13.109 5.02369 12.9462L2.37204 10.2946Z"
          fill="currentColor"/>
</svg>
