<svg width="93" height="18" viewBox="0 0 93 18" fill="none" xmlns="http://www.w3.org/2000/svg">
    <path
        d="M13.8959 12.1817V12.2518C13.9102 12.3919 13.9816 12.5041 14.0959 12.5882L14.61 12.9666C14.8385 13.1348 15.167 13.0927 15.3384 12.8685C16.1953 11.7332 16.6523 10.4016 16.6523 9.01402C16.6523 7.62641 16.2096 6.26684 15.3527 5.14554C15.1813 4.92128 14.8528 4.87924 14.6243 5.04741L14.1101 5.42586C13.9959 5.50997 13.9245 5.62209 13.9102 5.76226V5.83234C13.9102 5.94445 13.953 6.04258 14.0102 6.14068C14.6529 6.98166 14.9956 7.97681 14.9956 9.01402C14.9956 10.0512 14.6529 11.0464 14.0102 11.8873C13.9387 11.9574 13.8959 12.0696 13.8959 12.1817Z"
        fill="white"/>
    <path
        d="M11.7536 10.6539V10.724C11.7678 10.8502 11.8535 10.9763 11.9535 11.0604L12.3677 11.3547C12.5962 11.5229 12.9247 11.4809 13.0961 11.2566C14.0673 9.98116 14.0673 8.01888 13.0961 6.74342C12.9247 6.51916 12.5962 6.47709 12.3677 6.6453L11.9535 6.93963C11.8393 7.02374 11.7678 7.13586 11.7536 7.27603V7.3461C11.7536 7.45825 11.7964 7.57036 11.8535 7.65448C12.4391 8.41134 12.4391 9.5887 11.8535 10.3596C11.7964 10.4437 11.7536 10.5418 11.7536 10.6539Z"
        fill="white"/>
    <path
        d="M16.2953 14.1019C16.0811 13.8917 15.724 13.8917 15.5098 14.1019C14.1244 15.4615 12.282 16.2043 10.3396 16.2043C6.29775 16.1903 3.01285 12.9666 3.01285 9C3.01285 5.0334 6.29775 1.80967 10.3396 1.80967C12.282 1.80967 14.1244 2.55253 15.5098 3.9121C15.724 4.12234 16.0811 4.12234 16.2953 3.9121L16.7809 3.43555C16.9951 3.22531 16.9951 2.86087 16.7809 2.66467C15.0527 0.968693 12.7676 0.0436249 10.3396 0.0436249C5.29799 0.0436249 1.21329 4.05227 1.21329 9C1.21329 13.9477 5.31227 17.9564 10.3396 17.9564C12.7676 17.9564 15.0527 17.0313 16.7809 15.3493C16.9951 15.1391 16.9951 14.7747 16.7809 14.5785L16.2953 14.1019Z"
        fill="white"/>
    <path
        d="M10.2825 9.84072C10.7558 9.84072 11.1394 9.46425 11.1394 8.99985C11.1394 8.53545 10.7558 8.159 10.2825 8.159C9.80923 8.159 9.42557 8.53545 9.42557 8.99985C9.42557 9.46425 9.80923 9.84072 10.2825 9.84072Z"
        fill="white"/>
    <path
        d="M25.2882 4.92993H26.4307C26.6028 4.92993 26.7593 5.04121 26.8063 5.20019L28.8095 10.669L30.8128 5.20019C30.8754 5.04121 31.0319 4.92993 31.1884 4.92993H32.2839C32.5343 4.92993 32.7065 5.18429 32.6126 5.42276L29.6703 12.8787C29.6077 13.0377 29.4512 13.1331 29.2947 13.1331H28.2931C28.1209 13.1331 27.9801 13.0377 27.9175 12.8787L24.9752 5.42276C24.8656 5.18429 25.0378 4.92993 25.2882 4.92993Z"
        fill="white"/>
    <path
        d="M32.8943 9.01589V9C32.8943 6.67895 34.6941 4.78713 37.1669 4.78713C39.6396 4.78713 41.4238 6.66305 41.4238 8.9682V8.9841C41.4238 11.3051 39.624 13.197 37.1512 13.197C34.6628 13.2129 32.8943 11.3369 32.8943 9.01589ZM39.577 9.01589V9C39.577 7.60101 38.5754 6.44048 37.1512 6.44048C35.727 6.44048 34.7411 7.58511 34.7411 8.9841V9C34.7411 10.399 35.7427 11.5595 37.1669 11.5595C38.5911 11.5595 39.577 10.4149 39.577 9.01589Z"
        fill="white"/>
    <path
        d="M43.1922 4.93017H44.1468C44.3659 4.93017 44.5537 5.12094 44.5537 5.34351V12.6723C44.5537 12.8949 44.3659 13.0856 44.1468 13.0856H43.1922C42.9731 13.0856 42.7852 12.8949 42.7852 12.6723V5.32761C42.7852 5.10504 42.9574 4.93017 43.1922 4.93017Z"
        fill="white"/>
    <path
        d="M45.8996 9.01589V9C45.8996 6.67895 47.6211 4.78713 50.0782 4.78713C51.4085 4.78713 52.2537 5.18457 52.9579 5.77278C53.1144 5.91586 53.1457 6.15433 53.0049 6.3292L52.3632 7.07639C52.238 7.23536 52.0032 7.25126 51.8467 7.12408C51.3146 6.69484 50.7512 6.44048 50.0626 6.44048C48.7167 6.44048 47.7307 7.58511 47.7307 8.9841V9.11128C47.7307 10.4467 48.7793 11.5754 50.0939 11.5595C50.8608 11.5436 51.3772 11.2734 51.9093 10.8282C52.0658 10.701 52.285 10.7169 52.4102 10.86L53.0205 11.48C53.177 11.639 53.1614 11.8934 53.0049 12.0364C52.2537 12.7677 51.3772 13.2129 50 13.2129C47.6524 13.2129 45.8996 11.3528 45.8996 9.01589Z"
        fill="white"/>
    <path
        d="M54.8204 4.93017H60.0945C60.3136 4.93017 60.4858 5.10504 60.4858 5.32761V6.13839C60.4858 6.36095 60.3136 6.53583 60.0945 6.53583H56.1819V8.17328H59.5781C59.7972 8.17328 59.9693 8.34815 59.9693 8.57072V9.3815C59.9693 9.60406 59.7972 9.77894 59.5781 9.77894H56.1819V11.4959H60.1415C60.3606 11.4959 60.5327 11.6708 60.5327 11.8933V12.7041C60.5327 12.9267 60.3606 13.1015 60.1415 13.1015H54.8047C54.5856 13.1015 54.4135 12.9267 54.4135 12.7041V5.31171C54.4291 5.10504 54.6013 4.93017 54.8204 4.93017Z"
        fill="white"/>
    <path
        d="M62.2074 4.93017H63.2559C63.3811 4.93017 63.4907 4.99376 63.5533 5.08914L67.1998 9.95381V5.31171C67.1998 5.08914 67.372 4.93017 67.5755 4.93017H68.5458C68.7649 4.93017 68.9214 5.10504 68.9214 5.31171V12.6723C68.9214 12.8949 68.7492 13.0538 68.5458 13.0538H67.6381C67.5129 13.0538 67.4033 12.9903 67.3407 12.8949L63.569 7.87122V12.6564C63.569 12.879 63.3968 13.0379 63.1933 13.0379H62.223C62.0039 13.0379 61.8474 12.8631 61.8474 12.6564V5.31171C61.8161 5.10504 61.9883 4.93017 62.2074 4.93017Z"
        fill="white"/>
    <path
        d="M72.4428 6.56762H70.33C70.1422 6.56762 70.0013 6.40864 70.0013 6.23377V5.26402C70.0013 5.07325 70.1578 4.93017 70.33 4.93017H76.3084C76.4962 4.93017 76.6371 5.08914 76.6371 5.26402V6.23377C76.6371 6.42454 76.4806 6.56762 76.3084 6.56762H74.2113V12.72C74.2113 12.9108 74.0548 13.0538 73.8826 13.0538H72.7871C72.5993 13.0538 72.4584 12.8949 72.4584 12.72V6.56762H72.4428Z"
        fill="white"/>
    <path
        d="M78.0769 4.93017H83.4137C83.6171 4.93017 83.7736 5.08914 83.7736 5.29581V6.17018C83.7736 6.37685 83.6171 6.53583 83.4137 6.53583H79.4698V8.17328H82.8972C83.1007 8.17328 83.2572 8.33226 83.2572 8.53893V9.41329C83.2572 9.61996 83.1007 9.77894 82.8972 9.77894H79.4698V11.4959H83.4606C83.6641 11.4959 83.8206 11.6549 83.8206 11.8615V12.7359C83.8206 12.9426 83.6641 13.1015 83.4606 13.1015H78.0769C77.8735 13.1015 77.7169 12.9426 77.7169 12.7359V5.27992C77.7169 5.08914 77.8735 4.93017 78.0769 4.93017Z"
        fill="white"/>
    <path
        d="M85.104 5.26402C85.104 5.07325 85.2449 4.93017 85.4327 4.93017H88.7662C89.7835 4.93017 90.5816 5.21633 91.0981 5.75684C91.552 6.21787 91.7867 6.85378 91.7867 7.61686V7.63276C91.7867 8.95226 91.0824 9.77894 90.0652 10.1605L91.6772 12.5451C91.8337 12.7677 91.6772 13.0697 91.4111 13.0697H90.1591C90.0495 13.0697 89.94 13.0062 89.8774 12.9267L88.2497 10.4625H86.8568V12.7359C86.8568 12.9267 86.716 13.0697 86.5282 13.0697H85.417C85.2292 13.0697 85.0883 12.9267 85.0883 12.7359V5.26402H85.104ZM88.6566 8.87277C89.5174 8.87277 90.0026 8.41174 90.0026 7.72815V7.69635C90.0026 6.93327 89.4705 6.53583 88.6097 6.53583H86.8568V8.87277H88.6566Z"
        fill="white"/>
</svg>
