<svg width="40" height="40" viewBox="0 0 40 40" fill="none" xmlns="http://www.w3.org/2000/svg">
    <path
        d="M17.0625 12.5312C16.9062 12.5312 16.7708 12.5885 16.6562 12.7031C16.5417 12.8177 16.4844 12.9531 16.4844 13.1094V15.6875H13.1094C13.1094 15.6875 13.1042 15.6875 13.0938 15.6875C12.9375 15.6875 12.8021 15.7448 12.6875 15.8594C12.5729 15.9635 12.5156 16.099 12.5156 16.2656C12.5156 16.4219 12.5729 16.5573 12.6875 16.6719C12.8021 16.7865 12.9375 16.8438 13.0938 16.8438C13.1042 16.8438 13.1094 16.8438 13.1094 16.8438H14.3125V26.8906C14.3125 27.0469 14.3698 27.1823 14.4844 27.2969C14.599 27.4115 14.7396 27.4688 14.9062 27.4688H25.2344C25.3906 27.4688 25.526 27.4115 25.6406 27.2969C25.7552 27.1823 25.8125 27.0469 25.8125 26.8906V16.8438H26.8906C26.901 16.8438 26.9115 16.8438 26.9219 16.8438C27.0781 16.8438 27.2135 16.7865 27.3281 16.6719C27.4427 16.5573 27.5 16.4219 27.5 16.2656C27.5 16.099 27.4427 15.9635 27.3281 15.8594C27.2135 15.7448 27.0781 15.6875 26.9219 15.6875C26.9115 15.6875 26.901 15.6875 26.8906 15.6875H23.5156V13.1094C23.5156 12.9531 23.4583 12.8177 23.3438 12.7031C23.2292 12.5885 23.0938 12.5312 22.9375 12.5312H17.0625ZM17.6406 15.6875V13.6875H22.3594V15.6875H17.6406ZM15.4844 26.3125V16.8438H24.6562V26.3125H15.4844ZM18.625 19.2656C18.5729 19.2135 18.5104 19.1771 18.4375 19.1562C18.375 19.125 18.3073 19.1094 18.2344 19.1094C18.0781 19.1094 17.9427 19.1667 17.8281 19.2812C17.7135 19.3958 17.6562 19.5312 17.6562 19.6875C17.6562 19.7604 17.6667 19.8333 17.6875 19.9062C17.7188 19.9688 17.7604 20.026 17.8125 20.0781L19.1719 21.4375L17.8125 22.7969C17.75 22.849 17.6979 22.9167 17.6562 23C17.625 23.0729 17.6094 23.151 17.6094 23.2344C17.6094 23.3906 17.6667 23.526 17.7812 23.6406C17.8958 23.7552 18.0365 23.8125 18.2031 23.8125C18.2865 23.8125 18.3646 23.7969 18.4375 23.7656C18.5104 23.7344 18.5729 23.6875 18.625 23.625L20 22.2656L21.375 23.625C21.4271 23.6875 21.4896 23.7344 21.5625 23.7656C21.6354 23.7969 21.7135 23.8125 21.7969 23.8125C21.9635 23.8125 22.1042 23.7552 22.2188 23.6406C22.3333 23.526 22.3906 23.3906 22.3906 23.2344C22.3906 23.151 22.3698 23.0729 22.3281 23C22.2969 22.9167 22.25 22.849 22.1875 22.7969L20.8281 21.4375L22.1875 20.0781C22.2396 20.026 22.276 19.9688 22.2969 19.9062C22.3281 19.8438 22.3438 19.7708 22.3438 19.6875C22.3438 19.5312 22.2865 19.3958 22.1719 19.2812C22.0573 19.1667 21.9219 19.1094 21.7656 19.1094C21.6927 19.1094 21.6198 19.125 21.5469 19.1562C21.4844 19.1771 21.4271 19.2135 21.375 19.2656L20 20.625L18.625 19.2656Z"
        fill="currentColor"/>
    <rect x="1" y="1" width="38" height="38" rx="3" stroke="currentColor" stroke-width="2"/>
</svg>
