<svg width="14" height="14" viewBox="0 0 14 14" fill="none" xmlns="http://www.w3.org/2000/svg">
    <path
        d="M1.79998 0.0666504C0.844348 0.0666504 0.0666504 0.844348 0.0666504 1.79998C0.0666504 2.75562 0.844348 3.53332 1.79998 3.53332C2.75562 3.53332 3.53332 2.75562 3.53332 1.79998C3.53332 0.844348 2.75562 0.0666504 1.79998 0.0666504Z"
        fill="currentColor"/>
    <path
        d="M1.79998 5.2666C0.844348 5.2666 0.0666504 6.0443 0.0666504 6.99993C0.0666504 7.95557 0.844348 8.73327 1.79998 8.73327C2.75562 8.73327 3.53332 7.95557 3.53332 6.99993C3.53332 6.0443 2.75562 5.2666 1.79998 5.2666Z"
        fill="currentColor"/>
    <path
        d="M1.79998 10.4666C0.844348 10.4666 0.0666504 11.2443 0.0666504 12.1999C0.0666504 13.1555 0.844348 13.9332 1.79998 13.9332C2.75562 13.9332 3.53332 13.1555 3.53332 12.1999C3.53332 11.2443 2.75562 10.4666 1.79998 10.4666Z"
        fill="currentColor"/>
    <path
        d="M6.99993 0.0666504C6.0443 0.0666504 5.2666 0.844348 5.2666 1.79998C5.2666 2.75562 6.0443 3.53332 6.99993 3.53332C7.95557 3.53332 8.73327 2.75562 8.73327 1.79998C8.73327 0.844348 7.95557 0.0666504 6.99993 0.0666504Z"
        fill="currentColor"/>
    <path
        d="M6.99993 5.2666C6.0443 5.2666 5.2666 6.0443 5.2666 6.99993C5.2666 7.95557 6.0443 8.73327 6.99993 8.73327C7.95557 8.73327 8.73327 7.95557 8.73327 6.99993C8.73327 6.0443 7.95557 5.2666 6.99993 5.2666Z"
        fill="currentColor"/>
    <path
        d="M6.99993 10.4666C6.0443 10.4666 5.2666 11.2443 5.2666 12.1999C5.2666 13.1555 6.0443 13.9332 6.99993 13.9332C7.95557 13.9332 8.73327 13.1555 8.73327 12.1999C8.73327 11.2443 7.95557 10.4666 6.99993 10.4666Z"
        fill="currentColor"/>
    <path
        d="M12.2 3.53332C13.1556 3.53332 13.9333 2.75562 13.9333 1.79998C13.9333 0.844348 13.1556 0.0666504 12.2 0.0666504C11.2444 0.0666504 10.4667 0.844348 10.4667 1.79998C10.4667 2.75562 11.2444 3.53332 12.2 3.53332Z"
        fill="currentColor"/>
    <path
        d="M12.2 5.2666C11.2444 5.2666 10.4667 6.0443 10.4667 6.99993C10.4667 7.95557 11.2444 8.73327 12.2 8.73327C13.1556 8.73327 13.9333 7.95557 13.9333 6.99993C13.9333 6.0443 13.1556 5.2666 12.2 5.2666Z"
        fill="currentColor"/>
    <path
        d="M12.2 10.4666C11.2444 10.4666 10.4667 11.2443 10.4667 12.1999C10.4667 13.1555 11.2444 13.9332 12.2 13.9332C13.1556 13.9332 13.9333 13.1555 13.9333 12.1999C13.9333 11.2443 13.1556 10.4666 12.2 10.4666Z"
        fill="currentColor"/>
</svg>
