<svg viewBox="0 0 30 24" fill="none" xmlns="http://www.w3.org/2000/svg">
    <path
        d="M21.9482 5.37305H3.05733C1.37102 5.37305 0.000244141 6.71514 0.000244141 8.36617V21.0072C0.000244141 22.6582 1.37102 24.0003 3.05733 24.0003H21.943C23.6293 24.0003 25.0001 22.6582 25.0001 21.0072V8.37123C25.0053 6.72021 23.6345 5.37305 21.9482 5.37305ZM23.6086 21.0072C23.6086 21.9036 22.8638 22.6329 21.9482 22.6329H3.05733C2.14176 22.6329 1.39688 21.9036 1.39688 21.0072V8.37123C1.39688 7.47482 2.14176 6.74553 3.05733 6.74553H21.943C22.8586 6.74553 23.6035 7.47482 23.6035 8.37123V21.0072H23.6086Z"
        fill="currentColor"/>
    <path
        d="M15.7686 14.5304L21.8828 9.16199C22.1673 8.90877 22.1931 8.47828 21.9345 8.19467C21.6758 7.91612 21.2362 7.8908 20.9465 8.14402L12.5149 15.5534L10.87 14.1151C10.8648 14.11 10.8596 14.1049 10.8596 14.0999C10.8234 14.0644 10.7872 14.034 10.7458 14.0037L4.05232 8.13896C3.76264 7.88574 3.32296 7.91106 3.06432 8.19467C2.80569 8.47828 2.83155 8.90877 3.12122 9.16199L9.30782 14.5759L3.14709 20.2229C2.86776 20.4812 2.85224 20.9116 3.11605 21.1902C3.25571 21.332 3.44193 21.408 3.62815 21.408C3.79885 21.408 3.96955 21.3472 4.10404 21.2256L10.3579 15.4977L12.0545 16.9816C12.189 17.0981 12.3546 17.1538 12.5201 17.1538C12.6856 17.1538 12.8563 17.093 12.9856 16.9765L14.7289 15.447L20.9465 21.2307C21.081 21.3573 21.2568 21.4181 21.4275 21.4181C21.6138 21.4181 21.7948 21.3472 21.9345 21.2054C22.1983 20.9319 22.1879 20.4964 21.9086 20.2381L15.7686 14.5304Z"
        fill="currentColor"/>
    <path fill-rule="evenodd" clip-rule="evenodd"
          d="M26.9484 0H8.05758C6.37126 0 5.00049 1.34209 5.00049 2.99312V3.67171H6.39713V2.99819C6.39713 2.10177 7.142 1.37248 8.05758 1.37248H26.9433C27.8588 1.37248 28.6037 2.10177 28.6037 2.99819V15.6341H28.6089C28.6089 16.5305 27.864 17.2598 26.9484 17.2598H26.25V18.6272H26.9433C28.6296 18.6272 30.0003 17.2852 30.0003 15.6341V2.99819C30.0055 1.34716 28.6347 0 26.9484 0Z"
          fill="currentColor"/>
</svg>
