<svg viewBox="0 0 17 16" fill="none" xmlns="http://www.w3.org/2000/svg">
    <path fill-rule="evenodd" clip-rule="evenodd"
          d="M4.41354 0.486692C4.41354 0.217899 4.63144 0 4.90023 0H11.3005C11.5692 0 11.7871 0.217899 11.7871 0.486692V3.43465H15.6136C15.8824 3.43465 16.1003 3.65255 16.1003 3.92135C16.1003 4.19014 15.8824 4.40804 15.6136 4.40804H14.2916V15.5133C14.2916 15.7821 14.0737 16 13.8049 16H2.53493C2.26614 16 2.04824 15.7821 2.04824 15.5133V4.40804H0.587034C0.318241 4.40804 0.100342 4.19014 0.100342 3.92135C0.100342 3.65255 0.318241 3.43465 0.587034 3.43465H4.41354V0.486692ZM5.38692 3.43465H10.8138V0.973384H5.38692V3.43465ZM3.02162 4.40804V15.0266H13.3182V4.40804H3.02162ZM5.8069 7.29949C5.99618 7.10865 6.30433 7.10739 6.49518 7.29667L8.10034 8.88873L9.70551 7.29667C9.89635 7.10739 10.2045 7.10865 10.3938 7.29949C10.5831 7.49033 10.5818 7.79849 10.391 7.98777L8.79147 9.57422L10.391 11.1607C10.5818 11.3499 10.5831 11.6581 10.3938 11.8489C10.2045 12.0398 9.89635 12.041 9.70551 11.8518L8.10034 10.2597L6.49518 11.8518C6.30433 12.041 5.99618 12.0398 5.8069 11.8489C5.61761 11.6581 5.61887 11.3499 5.80972 11.1607L7.40922 9.57422L5.80972 7.98777C5.61887 7.79849 5.61761 7.49033 5.8069 7.29949Z"
          fill="currentColor"/>
</svg>
