<svg viewBox="0 0 24 16" fill="none" xmlns="http://www.w3.org/2000/svg">
    <path fill-rule="evenodd" clip-rule="evenodd"
          d="M3.86926 5.64243C3.45178 5.22496 3.45178 4.54809 3.86926 4.13062L6.67683 1.32304C7.09431 0.905568 7.77117 0.905568 8.18864 1.32304L10.9962 4.13062C11.4137 4.54809 11.4137 5.22495 10.9962 5.64243C10.5787 6.0599 9.90189 6.0599 9.48441 5.64243L8.50175 4.65977L8.50175 13.9208C8.50175 14.5112 8.02314 14.9898 7.43274 14.9898C6.84234 14.9898 6.36373 14.5112 6.36373 13.9208L6.36373 4.65977L5.38107 5.64243C4.96359 6.0599 4.28673 6.0599 3.86926 5.64243Z"
          fill="currentColor"/>
    <path fill-rule="evenodd" clip-rule="evenodd"
          d="M12.8693 10.3573C12.4518 10.7748 12.4518 11.4517 12.8693 11.8691L15.6768 14.6767C16.0943 15.0942 16.7712 15.0942 17.1886 14.6767L19.9962 11.8691C20.4137 11.4517 20.4137 10.7748 19.9962 10.3573C19.5787 9.93985 18.9019 9.93985 18.4844 10.3573L17.5018 11.34L17.5018 2.07895C17.5018 1.48855 17.0231 1.00994 16.4327 1.00994C15.8423 1.00994 15.3637 1.48855 15.3637 2.07895L15.3637 11.34L14.3811 10.3573C13.9636 9.93985 13.2867 9.93985 12.8693 10.3573Z"
          fill="currentColor"/>
</svg>
