<svg width="16" height="16" viewBox="0 0 16 16" fill="none" xmlns="http://www.w3.org/2000/svg">
    <path
        d="M2.80023 1.06665C1.84459 1.06665 1.06689 1.84435 1.06689 2.79998C1.06689 3.75562 1.84459 4.53332 2.80023 4.53332C3.75586 4.53332 4.53356 3.75562 4.53356 2.79998C4.53356 1.84435 3.75586 1.06665 2.80023 1.06665Z"
        fill="currentColor"/>
    <path
        d="M2.80023 6.26666C1.84459 6.26666 1.06689 7.04436 1.06689 8C1.06689 8.95563 1.84459 9.73333 2.80023 9.73333C3.75586 9.73333 4.53356 8.95563 4.53356 8C4.53356 7.04436 3.75586 6.26666 2.80023 6.26666Z"
        fill="currentColor"/>
    <path
        d="M2.80023 11.4666C1.84459 11.4666 1.06689 12.2443 1.06689 13.1999C1.06689 14.1556 1.84459 14.9333 2.80023 14.9333C3.75586 14.9333 4.53356 14.1556 4.53356 13.1999C4.53356 12.2443 3.75586 11.4666 2.80023 11.4666Z"
        fill="currentColor"/>
    <path
        d="M8.00042 1.06665C7.04479 1.06665 6.26709 1.84435 6.26709 2.79998C6.26709 3.75562 7.04479 4.53332 8.00042 4.53332C8.95606 4.53332 9.73376 3.75562 9.73376 2.79998C9.73376 1.84435 8.95606 1.06665 8.00042 1.06665Z"
        fill="currentColor"/>
    <path
        d="M8.00042 6.26666C7.04479 6.26666 6.26709 7.04436 6.26709 8C6.26709 8.95563 7.04479 9.73333 8.00042 9.73333C8.95606 9.73333 9.73376 8.95563 9.73376 8C9.73376 7.04436 8.95606 6.26666 8.00042 6.26666Z"
        fill="currentColor"/>
    <path
        d="M8.00042 11.4666C7.04479 11.4666 6.26709 12.2443 6.26709 13.1999C6.26709 14.1556 7.04479 14.9333 8.00042 14.9333C8.95606 14.9333 9.73376 14.1556 9.73376 13.1999C9.73376 12.2443 8.95606 11.4666 8.00042 11.4666Z"
        fill="currentColor"/>
    <path
        d="M13.2001 4.53332C14.1558 4.53332 14.9335 3.75562 14.9335 2.79998C14.9335 1.84435 14.1558 1.06665 13.2001 1.06665C12.2445 1.06665 11.4668 1.84435 11.4668 2.79998C11.4668 3.75562 12.2445 4.53332 13.2001 4.53332Z"
        fill="currentColor"/>
    <path
        d="M13.2001 6.26666C12.2445 6.26666 11.4668 7.04436 11.4668 8C11.4668 8.95563 12.2445 9.73333 13.2001 9.73333C14.1558 9.73333 14.9335 8.95563 14.9335 8C14.9335 7.04436 14.1558 6.26666 13.2001 6.26666Z"
        fill="currentColor"/>
    <path
        d="M13.2001 11.4666C12.2445 11.4666 11.4668 12.2443 11.4668 13.1999C11.4668 14.1556 12.2445 14.9333 13.2001 14.9333C14.1558 14.9333 14.9335 14.1556 14.9335 13.1999C14.9335 12.2443 14.1558 11.4666 13.2001 11.4666Z"
        fill="currentColor"/>
</svg>
