<svg width="22" height="18" viewBox="0 0 22 18" fill="none" xmlns="http://www.w3.org/2000/svg">
    <path
        d="M20.0664 0.996094H1.93359C1.40365 0.996094 0.945312 1.18945 0.558594 1.57617C0.186198 1.94857 0 2.39974 0 2.92969V15.8203C0 16.3503 0.186198 16.8086 0.558594 17.1953C0.945312 17.5677 1.40365 17.7539 1.93359 17.7539H20.0664C20.5964 17.7539 21.0475 17.5677 21.4199 17.1953C21.8066 16.8086 22 16.3503 22 15.8203V2.92969C22 2.39974 21.8066 1.94857 21.4199 1.57617C21.0475 1.18945 20.5964 0.996094 20.0664 0.996094ZM20.7109 15.8203C20.7109 15.9922 20.6465 16.1426 20.5176 16.2715C20.3887 16.4004 20.2383 16.4648 20.0664 16.4648H1.93359C1.76172 16.4648 1.61133 16.4004 1.48242 16.2715C1.35352 16.1426 1.28906 15.9922 1.28906 15.8203V2.92969C1.28906 2.75781 1.35352 2.60742 1.48242 2.47852C1.61133 2.34961 1.76172 2.28516 1.93359 2.28516H20.0664C20.2383 2.28516 20.3887 2.34961 20.5176 2.47852C20.6465 2.60742 20.7109 2.75781 20.7109 2.92969V15.8203ZM9.51758 5.63672H3.11523C2.97201 5.63672 2.8431 5.69401 2.72852 5.80859C2.62826 5.90885 2.57812 6.0306 2.57812 6.17383V12.5762C2.57812 12.7194 2.62826 12.8483 2.72852 12.9629C2.8431 13.0632 2.97201 13.1133 3.11523 13.1133H9.51758C9.67513 13.1133 9.80404 13.0632 9.9043 12.9629C10.0046 12.8483 10.0547 12.7194 10.0547 12.5762V6.17383C10.0547 6.0306 10.0046 5.90885 9.9043 5.80859C9.80404 5.69401 9.67513 5.63672 9.51758 5.63672ZM8.98047 6.71094V11.7383H3.65234V6.71094H8.98047ZM18.7773 6.10938H13.5352C13.3633 6.10938 13.2129 6.17383 13.084 6.30273C12.9551 6.43164 12.8906 6.58203 12.8906 6.75391C12.8906 6.92578 12.9551 7.07617 13.084 7.20508C13.2129 7.33398 13.3633 7.39844 13.5352 7.39844H18.7773C18.9635 7.39844 19.1139 7.33398 19.2285 7.20508C19.3574 7.07617 19.4219 6.92578 19.4219 6.75391C19.4219 6.58203 19.3574 6.43164 19.2285 6.30273C19.1139 6.17383 18.9635 6.10938 18.7773 6.10938ZM18.7773 8.6875H13.5352C13.5352 8.6875 13.528 8.6875 13.5137 8.6875C13.3275 8.6875 13.1699 8.75195 13.041 8.88086C12.9264 9.00977 12.8691 9.16016 12.8691 9.33203C12.8691 9.50391 12.9264 9.6543 13.041 9.7832C13.1699 9.91211 13.3275 9.97656 13.5137 9.97656C13.528 9.97656 13.5352 9.97656 13.5352 9.97656H18.7773C18.9635 9.97656 19.1139 9.91211 19.2285 9.7832C19.3574 9.6543 19.4219 9.50391 19.4219 9.33203C19.4219 9.16016 19.3574 9.00977 19.2285 8.88086C19.1139 8.75195 18.9635 8.6875 18.7773 8.6875ZM18.7773 11.2656H13.5352C13.3633 11.2656 13.2129 11.3301 13.084 11.459C12.9551 11.5879 12.8906 11.7383 12.8906 11.9102C12.8906 12.082 12.9551 12.2324 13.084 12.3613C13.2129 12.4902 13.3633 12.5547 13.5352 12.5547H18.7773C18.9635 12.5547 19.1139 12.4902 19.2285 12.3613C19.3574 12.2324 19.4219 12.082 19.4219 11.9102C19.4219 11.7383 19.3574 11.5879 19.2285 11.459C19.1139 11.3301 18.9635 11.2656 18.7773 11.2656Z"
        fill="currentColor"/>
</svg>
