<svg width="14" height="16" viewBox="0 0 14 16" fill="none" xmlns="http://www.w3.org/2000/svg">
    <path d="M3.18164 9.14276H8.27255V10.2856H3.18164V9.14276Z" fill="currentColor"/>
    <path d="M3.18164 6.28558H10.818V7.42844H3.18164V6.28558Z" fill="currentColor"/>
    <path d="M3.18164 11.9999H6.36346V13.1428H3.18164V11.9999Z" fill="currentColor"/>
    <path
        d="M12.7273 1.71422H10.8182V1.1428C10.8182 0.839692 10.6841 0.549001 10.4454 0.334674C10.2067 0.120347 9.883 -6.10352e-05 9.54545 -6.10352e-05H4.45455C4.117 -6.10352e-05 3.79327 0.120347 3.55459 0.334674C3.31591 0.549001 3.18182 0.839692 3.18182 1.1428V1.71422H1.27273C0.935179 1.71422 0.611456 1.83463 0.372773 2.04896C0.13409 2.26329 0 2.55398 0 2.85708V14.8571C0 15.1602 0.13409 15.4509 0.372773 15.6652C0.611456 15.8795 0.935179 15.9999 1.27273 15.9999H12.7273C13.0648 15.9999 13.3885 15.8795 13.6272 15.6652C13.8659 15.4509 14 15.1602 14 14.8571V2.85708C14 2.55398 13.8659 2.26329 13.6272 2.04896C13.3885 1.83463 13.0648 1.71422 12.7273 1.71422ZM4.45455 1.1428H9.54545V3.42851H4.45455V1.1428ZM12.7273 14.8571H1.27273V2.85708H3.18182V4.57137H10.8182V2.85708H12.7273V14.8571Z"
        fill="currentColor"/>
</svg>
