<svg viewBox="0 0 16 20" fill="none" xmlns="http://www.w3.org/2000/svg">
    <path
        d="M15.7864 5.00838L10.8955 0.209612C10.7591 0.075817 10.575 0 10.3818 0H0.727273C0.325 0 0 0.318877 0 0.713572V19.2664C0 19.6611 0.325 19.98 0.727273 19.98H15.2727C15.675 19.98 16 19.6611 16 19.2664V5.51457C16 5.32503 15.9227 5.14218 15.7864 5.00838ZM14.3227 5.84237H10.0455V1.64568L14.3227 5.84237ZM14.3636 18.3745H1.63636V1.60554H8.5V6.42215C8.5 6.67054 8.60057 6.90876 8.77958 7.0844C8.95859 7.26004 9.20138 7.35871 9.45455 7.35871H14.3636V18.3745ZM8.04773 11.5086L6.64318 9.22515C6.59318 9.14487 6.50455 9.09581 6.40909 9.09581H5.53636C5.48409 9.09581 5.43409 9.10919 5.39091 9.13818C5.26364 9.21623 5.225 9.38124 5.30682 9.50834L7.17727 12.4162L5.28182 15.3775C5.25606 15.4181 5.24184 15.4647 5.24061 15.5125C5.23938 15.5604 5.2512 15.6076 5.27484 15.6495C5.29847 15.6913 5.33307 15.7262 5.37506 15.7505C5.41704 15.7748 5.46488 15.7877 5.51364 15.7878H6.29773C6.39318 15.7878 6.47955 15.7387 6.52955 15.6607L7.95455 13.3973L9.37045 15.6584C9.42045 15.7387 9.50909 15.7855 9.60227 15.7855H10.4545C10.5068 15.7855 10.5568 15.7699 10.6023 15.7432C10.7295 15.6629 10.7659 15.4979 10.6841 15.373L8.775 12.4652L10.7136 9.51057C10.7399 9.47008 10.7546 9.42342 10.7562 9.37546C10.7578 9.3275 10.7463 9.27999 10.7229 9.23787C10.6995 9.19575 10.6649 9.16056 10.6229 9.13597C10.5809 9.11138 10.533 9.09828 10.4841 9.09804H9.67273C9.57727 9.09804 9.48864 9.1471 9.43864 9.22738L8.04773 11.5086Z"
        fill="currentColor"/>
</svg>
