<svg viewBox="0 0 16 16" fill="none" xmlns="http://www.w3.org/2000/svg">
    <g clip-path="url(#clip0)">
        <path
            d="M15.8285 3.87875L12.1212 0.171438C12.1212 0.171406 12.1211 0.171344 12.1211 0.171312C12.0146 0.064875 11.8655 0 11.7073 0C11.238 0 1.03231 0 0.585375 0C0.262094 0 0 0.262094 0 0.585375V15.4147C0 15.7379 0.262094 16 0.585375 16C1.29047 16 14.7214 16 15.4147 16C15.7379 16 16 15.7379 16 15.4146V4.29269C16 4.13744 15.9383 3.98856 15.8285 3.87875ZM4.87806 1.17072H11.122V4.63394H4.87806V1.17072ZM12.5141 14.8293H3.48594V9.90422H12.5141V14.8293ZM14.8293 14.8293H13.6848V9.31888C13.6848 8.99559 13.4227 8.7335 13.0994 8.7335H2.90056C2.57728 8.7335 2.31519 8.99559 2.31519 9.31888V14.8293H1.17072V1.17072H3.70731V5.21931C3.70731 5.54259 3.96941 5.80469 4.29269 5.80469H11.7073C12.0306 5.80469 12.2927 5.54259 12.2927 5.21931V1.99856L14.8293 4.53516V14.8293Z"
            fill="currentColor"/>
        <path
            d="M9.67217 1.71875C9.34889 1.71875 9.08679 1.98084 9.08679 2.30413V3.49963C9.08679 3.82294 9.34885 4.085 9.67217 4.085C9.99545 4.085 10.2575 3.82291 10.2575 3.49963V2.30413C10.2575 1.98084 9.99545 1.71875 9.67217 1.71875Z"
            fill="currentColor"/>
    </g>
    <defs>
        <clipPath id="clip0">
            <rect width="16" height="16" fill="currentColor"/>
        </clipPath>
    </defs>
</svg>
