<svg viewBox="0 0 16 16" fill="none" xmlns="http://www.w3.org/2000/svg">
    <path
        d="M13.3083 2.15023H12.6583V1.06689H11.575V2.15023H4.42498V1.06689H3.34165V2.15023H2.69165C1.79563 2.15023 1.06665 2.8792 1.06665 3.77523V13.3086C1.06665 14.2046 1.79563 14.9336 2.69165 14.9336H13.3083C14.2043 14.9336 14.9333 14.2046 14.9333 13.3086V3.77523C14.9333 2.8792 14.2043 2.15023 13.3083 2.15023ZM13.85 13.3086C13.85 13.6072 13.607 13.8502 13.3083 13.8502H2.69165C2.39298 13.8502 2.14998 13.6072 2.14998 13.3086V6.15856H13.85V13.3086ZM13.85 5.07523H2.14998V3.77523C2.14998 3.47655 2.39298 3.23356 2.69165 3.23356H3.34165V4.31689H4.42498V3.23356H11.575V4.31689H12.6583V3.23356H13.3083C13.607 3.23356 13.85 3.47655 13.85 3.77523V5.07523Z"
        fill="currentColor"/>
    <path d="M5.33334 7.4668H3.73334V9.0668H5.33334V7.4668Z" fill="currentColor"/>
    <path d="M5.33334 10.667H3.73334V12.267H5.33334V10.667Z" fill="currentColor"/>
    <path d="M8.79995 7.4668H7.19995V9.0668H8.79995V7.4668Z" fill="currentColor"/>
    <path d="M8.79995 10.667H7.19995V12.267H8.79995V10.667Z" fill="currentColor"/>
    <path d="M12.2666 7.4668H10.6666V9.0668H12.2666V7.4668Z" fill="currentColor"/>
    <path d="M12.2666 10.667H10.6666V12.267H12.2666V10.667Z" fill="currentColor"/>
</svg>
