<svg viewBox="0 0 24 24" fill="none" xmlns="http://www.w3.org/2000/svg">
    <path
        d="M21.1875 18.375C20.6667 18.375 20.1788 18.5178 19.76 18.7656L16.6088 15.6143C17.3919 14.618 17.8594 13.3627 17.8594 12C17.8594 10.6426 17.3954 9.39166 16.6177 8.39722L19.773 5.24194C20.1888 5.48492 20.6721 5.625 21.1875 5.625C22.7384 5.625 24 4.3634 24 2.8125C24 1.2616 22.7384 0 21.1875 0C19.6366 0 18.375 1.2616 18.375 2.8125C18.375 3.33874 18.5206 3.83148 18.7731 4.25317L15.6259 7.40039C14.6277 6.61194 13.3678 6.14062 12 6.14062C10.6373 6.14062 9.38196 6.60809 8.38568 7.39124L5.23444 4.23999C5.48218 3.82123 5.625 3.33325 5.625 2.8125C5.625 1.2616 4.3634 0 2.8125 0C1.2616 0 0 1.2616 0 2.8125C0 4.3634 1.2616 5.625 2.8125 5.625C3.33325 5.625 3.82123 5.48218 4.23999 5.23444L7.39124 8.38568C6.60809 9.38196 6.14062 10.6373 6.14062 12C6.14062 13.3627 6.60809 14.618 7.39124 15.6143L4.23999 18.7656C3.82123 18.5178 3.33325 18.375 2.8125 18.375C1.2616 18.375 0 19.6366 0 21.1875C0 22.7384 1.2616 24 2.8125 24C4.3634 24 5.625 22.7384 5.625 21.1875C5.625 20.6667 5.48218 20.1788 5.23444 19.76L8.38568 16.6088C9.38196 17.3919 10.6373 17.8594 12 17.8594C13.3627 17.8594 14.618 17.3919 15.6143 16.6088L18.7656 19.76C18.5178 20.1788 18.375 20.6667 18.375 21.1875C18.375 22.7384 19.6366 24 21.1875 24C22.7384 24 24 22.7384 24 21.1875C24 19.6366 22.7384 18.375 21.1875 18.375ZM21.1875 1.40625C21.963 1.40625 22.5937 2.03705 22.5937 2.8125C22.5937 3.58795 21.963 4.21875 21.1875 4.21875C20.412 4.21875 19.7812 3.58795 19.7812 2.8125C19.7812 2.03705 20.412 1.40625 21.1875 1.40625ZM2.8125 4.21875C2.03705 4.21875 1.40625 3.58795 1.40625 2.8125C1.40625 2.03705 2.03705 1.40625 2.8125 1.40625C3.58795 1.40625 4.21875 2.03705 4.21875 2.8125C4.21875 3.58795 3.58795 4.21875 2.8125 4.21875ZM2.8125 22.5937C2.03705 22.5937 1.40625 21.963 1.40625 21.1875C1.40625 20.412 2.03705 19.7812 2.8125 19.7812C3.58795 19.7812 4.21875 20.412 4.21875 21.1875C4.21875 21.963 3.58795 22.5937 2.8125 22.5937ZM13.6406 16.1398C13.1327 16.342 12.5792 16.4531 12 16.4531C11.4208 16.4531 10.8673 16.342 10.3594 16.1398V15.75C10.3594 15.1038 10.8851 14.5781 11.5312 14.5781H12.4687C13.1149 14.5781 13.6406 15.1038 13.6406 15.75V16.1398ZM10.8281 12C10.8281 11.3538 11.3538 10.8281 12 10.8281C12.6462 10.8281 13.1719 11.3538 13.1719 12C13.1719 12.6462 12.6462 13.1719 12 13.1719C11.3538 13.1719 10.8281 12.6462 10.8281 12ZM15.004 15.2844C14.8817 14.6175 14.5023 14.0398 13.9724 13.6577C14.35 13.2092 14.5781 12.6308 14.5781 12C14.5781 10.5784 13.4216 9.42187 12 9.42187C10.5784 9.42187 9.42187 10.5784 9.42187 12C9.42187 12.6308 9.65002 13.2092 10.0276 13.6577C9.49768 14.0396 9.11829 14.6175 8.99597 15.2844C8.10608 14.4695 7.54687 13.2989 7.54687 12C7.54687 9.54456 9.54456 7.54687 12 7.54687C14.4554 7.54687 16.4531 9.54456 16.4531 12C16.4531 13.2989 15.8939 14.4695 15.004 15.2844ZM21.1875 22.5937C20.412 22.5937 19.7812 21.963 19.7812 21.1875C19.7812 20.412 20.412 19.7812 21.1875 19.7812C21.963 19.7812 22.5937 20.412 22.5937 21.1875C22.5937 21.963 21.963 22.5937 21.1875 22.5937Z"
        fill="currentColor"/>
</svg>
