<svg viewBox="0 0 24 24" fill="none" xmlns="http://www.w3.org/2000/svg">
    <g clip-path="url(#clip0)">
        <path fill-rule="evenodd" clip-rule="evenodd"
              d="M4.48821 5.54668C2.71604 6.12249 1.74621 8.0259 2.32202 9.79806L5.3534 19.1277C5.92921 20.8998 7.83261 21.8697 9.60477 21.2939L18.9344 18.2625C20.7066 17.6867 21.6764 15.7833 21.1006 14.0111L18.0692 4.68149C17.4934 2.90933 15.59 1.93949 13.8178 2.5153L4.48821 5.54668ZM0.800329 10.2925C-0.0485454 7.67992 1.38121 4.87386 3.99378 4.02499L13.3234 0.993613C15.936 0.144738 18.742 1.57449 19.5909 4.18706L22.6223 13.5167C23.4711 16.1292 22.0414 18.9353 19.4288 19.7842L10.0992 22.8155C7.48663 23.6644 4.68058 22.2347 3.83171 19.6221L0.800329 10.2925Z"
              fill="currentColor"/>
        <path
            d="M17.2654 11.8835L16.0948 12.3329C16.0837 12.3373 16.0718 12.3394 16.0599 12.3391C16.0479 12.3389 16.0362 12.3363 16.0252 12.3315C16.0143 12.3267 16.0044 12.3198 15.9961 12.3112C15.9879 12.3025 15.9814 12.2923 15.9771 12.2812L14.7248 9.01803C14.7167 8.99572 14.7176 8.97111 14.7274 8.94947C14.7372 8.92783 14.755 8.91089 14.7772 8.90228L15.9474 8.45182C16.0732 8.40379 16.1877 8.33044 16.284 8.23632C16.3802 8.1422 16.4561 8.02931 16.5069 7.90466C16.5563 7.7838 16.5798 7.65399 16.5762 7.52351C16.5725 7.39303 16.5417 7.26475 16.4856 7.14685C16.3824 6.92905 16.2008 6.75814 15.9772 6.66815C15.7536 6.57815 15.5043 6.57566 15.2789 6.66119L14.0918 7.11713C14.0696 7.12555 14.0449 7.12493 14.0232 7.11539C14.0014 7.10584 13.9842 7.08814 13.9754 7.06608L13.5259 5.89551C13.4779 5.76965 13.4044 5.65505 13.3101 5.55884C13.2158 5.46263 13.1026 5.38688 12.9778 5.33631C12.8571 5.28697 12.7275 5.26335 12.5971 5.26697C12.4668 5.27058 12.3387 5.30134 12.221 5.3573C12.0032 5.46058 11.8322 5.6421 11.7423 5.86572C11.6523 6.08933 11.6498 6.33864 11.7353 6.564L12.1909 7.75013C12.1994 7.77252 12.1987 7.79735 12.1889 7.81921C12.1792 7.84108 12.1612 7.85821 12.1389 7.86688L8.87702 9.11982C8.85463 9.1283 8.8298 9.12758 8.80793 9.11784C8.78607 9.10809 8.76894 9.0901 8.76027 9.06779L8.3108 7.89722C8.26263 7.77142 8.18911 7.65687 8.09482 7.56068C8.00052 7.46448 7.88746 7.38869 7.76265 7.33802C7.64181 7.28865 7.51199 7.26504 7.3815 7.26871C7.25101 7.27238 7.12272 7.30324 7.00484 7.35932C6.7873 7.46278 6.61667 7.64432 6.52686 7.86784C6.43706 8.09137 6.43467 8.3405 6.52017 8.5657L6.97611 9.75283C6.98426 9.77513 6.98335 9.79975 6.97356 9.82139C6.96377 9.84303 6.94589 9.85997 6.92376 9.86858L5.75318 10.318C5.6276 10.3663 5.51326 10.4398 5.41725 10.5341C5.32123 10.6283 5.24558 10.7412 5.19498 10.8659C5.14567 10.9867 5.1221 11.1165 5.12576 11.247C5.12943 11.3775 5.16026 11.5058 5.21628 11.6237C5.32 11.8412 5.50174 12.0118 5.72542 12.1015C5.9491 12.1913 6.19835 12.1936 6.42366 12.108L7.60879 11.6527C7.6311 11.6446 7.65572 11.6455 7.67736 11.6553C7.699 11.6651 7.71594 11.683 7.72455 11.7051L8.97782 14.9679C8.98597 14.9903 8.98505 15.0149 8.97526 15.0365C8.96547 15.0581 8.9476 15.0751 8.92546 15.0837L7.7562 15.5338C7.63044 15.5819 7.51589 15.6552 7.41964 15.7493C7.32339 15.8435 7.24751 15.9563 7.19668 16.081C7.14751 16.2019 7.1241 16.3317 7.12794 16.4621C7.13178 16.5925 7.16278 16.7207 7.21898 16.8385C7.43104 17.2885 7.96104 17.5015 8.42568 17.3241L9.61082 16.8689C9.63313 16.8607 9.65774 16.8616 9.67938 16.8714C9.70102 16.8812 9.71797 16.8991 9.72658 16.9212L10.177 18.0915C10.2251 18.217 10.2985 18.3313 10.3925 18.4274C10.4866 18.5235 10.5994 18.5992 10.7239 18.65C10.8447 18.6993 10.9745 18.7229 11.105 18.7192C11.2355 18.7155 11.3638 18.6847 11.4817 18.6287C11.6993 18.5252 11.8701 18.3437 11.96 18.1201C12.05 17.8966 12.0526 17.6474 11.9673 17.422L11.5117 16.2359C11.5033 16.2135 11.504 16.1886 11.5137 16.1668C11.5235 16.1449 11.5414 16.1278 11.5638 16.1191L14.8256 14.8662C14.848 14.8577 14.8728 14.8584 14.8947 14.8681C14.9166 14.8779 14.9337 14.8959 14.9424 14.9182L15.3918 16.0888C15.44 16.2146 15.5135 16.3291 15.6078 16.4253C15.7021 16.5215 15.8152 16.5973 15.94 16.648C16.0608 16.6973 16.1907 16.7208 16.3211 16.7172C16.4516 16.7135 16.5799 16.6827 16.6978 16.6267C16.9153 16.5229 17.0859 16.3412 17.1757 16.1175C17.2654 15.8938 17.2677 15.6446 17.1821 15.4193L16.7268 14.2341C16.7184 14.2118 16.7191 14.1869 16.7288 14.1651C16.7386 14.1432 16.7566 14.1261 16.7789 14.1174L17.966 13.6615C18.1906 13.5742 18.3741 13.4057 18.4801 13.1893C18.586 12.9729 18.6066 12.7246 18.5378 12.4937C18.5006 12.3688 18.4378 12.253 18.3534 12.1536C18.269 12.0543 18.1648 11.9737 18.0476 11.9168C17.9264 11.8579 17.7945 11.8246 17.6599 11.8189C17.5254 11.8132 17.3911 11.8351 17.2654 11.8835ZM14.1939 12.9659C14.2021 12.9884 14.2011 13.0132 14.1911 13.0349C14.1811 13.0567 14.163 13.0736 14.1406 13.082L10.8787 14.3349C10.8563 14.3434 10.8315 14.3427 10.8096 14.333C10.7878 14.3232 10.7706 14.3052 10.762 14.2829L9.50871 11.0201C9.50056 10.9978 9.50147 10.9731 9.51126 10.9515C9.52105 10.9299 9.53893 10.9129 9.56106 10.9043L12.8239 9.65104C12.8463 9.64256 12.8711 9.64328 12.893 9.65302C12.9149 9.66277 12.932 9.68076 12.9407 9.70307L14.1929 12.9662L14.1939 12.9659Z"
            fill="currentColor"/>
    </g>
    <defs>
        <clipPath id="clip0">
            <rect width="24" height="24" fill="white"/>
        </clipPath>
    </defs>
</svg>
