<svg viewBox="0 0 24 24" fill="none" xmlns="http://www.w3.org/2000/svg">
    <path
        d="M22.9368 15.2034C22.9368 15.8139 22.4613 16.3089 21.874 16.3089C21.2875 16.3089 20.812 15.8139 20.812 15.2034V12.6527L3.44201 12.6527V15.2026C3.44201 15.8139 2.96651 16.3089 2.37926 16.3089C1.79276 16.3089 1.31651 15.8139 1.31651 15.2034V12.6527C1.31651 11.4317 2.26826 10.4417 3.44201 10.4417L20.812 10.4417C21.9858 10.4417 22.9368 11.4317 22.9368 12.6527V15.2026V15.2034Z"
        fill="currentColor"/>
    <path
        d="M19.749 20.3897C19.749 21.6104 20.7006 22.5999 21.8745 22.5999C23.0484 22.5999 24 21.6104 24 20.3897C24 19.169 23.0484 18.1794 21.8745 18.1794C20.7006 18.1794 19.749 19.169 19.749 20.3897Z"
        fill="currentColor"/>
    <path
        d="M10.1865 20.3897C10.1865 21.6104 11.1381 22.5999 12.312 22.5999C13.4859 22.5999 14.4375 21.6104 14.4375 20.3897C14.4375 19.169 13.4859 18.1794 12.312 18.1794C11.1381 18.1794 10.1865 19.169 10.1865 20.3897Z"
        fill="currentColor"/>
    <path
        d="M10.1865 3.8101C10.1865 5.03079 11.1381 6.02035 12.312 6.02035C13.4859 6.02035 14.4375 5.03079 14.4375 3.8101C14.4375 2.58942 13.4859 1.59985 12.312 1.59985C11.1381 1.59985 10.1865 2.58942 10.1865 3.8101Z"
        fill="currentColor"/>
    <path
        d="M0.622961 20.3897C0.622961 21.6104 1.57458 22.5999 2.74846 22.5999C3.92234 22.5999 4.87396 21.6104 4.87396 20.3897C4.87396 19.169 3.92234 18.1794 2.74846 18.1794C1.57458 18.1794 0.622961 19.169 0.622961 20.3897Z"
        fill="currentColor"/>
    <path
        d="M13.3743 15.7449C13.3743 16.3562 12.8988 16.8512 12.3123 16.8512C11.725 16.8512 11.2495 16.3562 11.2495 15.7457V9.33695C11.2495 8.72645 11.725 8.23145 12.3123 8.23145C12.8988 8.23145 13.3743 8.72645 13.3743 9.33695V15.7457V15.7449Z"
        fill="currentColor"/>
</svg>
