<svg viewBox="0 0 24 24" fill="none" xmlns="http://www.w3.org/2000/svg">
    <path
        d="M19.1435 15.6122C19.0139 14.5374 18.2796 13.6523 17.3077 13.2729C17.8476 12.7671 18.1716 12.0717 18.1716 11.313C18.1716 9.79557 16.9189 8.57324 15.3639 8.57324C14.9536 8.57324 14.5648 8.65753 14.2193 8.80506C13.8089 7.77239 12.7722 7.05585 11.5844 7.05585C11.174 7.05585 10.7853 7.14015 10.4397 7.30875C10.0294 6.27608 9.01431 5.53846 7.80486 5.53846C7.39451 5.53846 7.00576 5.62276 6.6602 5.79136C6.27145 4.73762 5.25637 4 4.04692 4C2.49191 4 1.23926 5.22234 1.23926 6.73973C1.23926 7.51949 1.56322 8.21496 2.10316 8.69968C1.13128 9.07903 0.396967 9.96417 0.245786 11.039L0.00821516 12.9989C-0.0565769 13.5047 0.267383 13.9684 0.78572 14.0738C1.02329 14.1159 1.28246 14.1581 1.52003 14.2002L1.7576 18.3519C1.8008 18.9631 2.31913 19.4478 2.96705 19.4478H5.08359C5.23477 19.4478 5.38596 19.4057 5.51554 19.3635L5.53714 19.8693C5.58033 20.4805 6.09867 20.9652 6.72499 20.9652H8.84153C8.99271 20.9652 9.1223 20.9231 9.25188 20.8809L9.27348 21.3867C9.31667 21.9979 9.83501 22.4826 10.4613 22.4826H12.5779C12.7291 22.4826 12.8586 22.4405 12.9882 22.3983L13.0098 22.9041C13.053 23.5153 13.5714 24 14.1977 24H16.3142C16.9405 24 17.4805 23.5153 17.5021 22.9041L17.7396 18.7524C17.9988 18.7102 18.2364 18.6681 18.4739 18.6259C18.9707 18.5205 19.3162 18.0569 19.2515 17.5511L19.1435 15.6122ZM17.1565 11.313C17.1565 12.2824 16.3358 13.0832 15.3423 13.0832C14.3489 13.0832 13.5282 12.2824 13.5282 11.313C13.5282 10.3435 14.3489 9.54268 15.3423 9.54268C16.3574 9.54268 17.1565 10.3435 17.1565 11.313ZM13.3554 9.39515C12.8586 9.87987 12.5563 10.5332 12.5563 11.2708C12.2755 11.4394 11.9516 11.5448 11.606 11.5448H11.5844C10.5909 11.5448 9.79181 10.7439 9.79181 9.7745C9.79181 8.80506 10.6125 8.00422 11.606 8.00422C12.4483 8.02529 13.161 8.61538 13.3554 9.39515ZM9.57584 7.87777C9.0791 8.36249 8.77674 9.03688 8.77674 9.75343C8.49597 9.92202 8.17201 10.0274 7.80486 10.0274C6.81138 10.0274 5.99068 9.22655 5.99068 8.25711C5.99068 7.28767 6.81138 6.48683 7.80486 6.48683C8.69035 6.48683 9.40306 7.07692 9.57584 7.87777ZM4.04692 4.96944C4.91081 4.96944 5.62353 5.55954 5.79631 6.3393C5.29957 6.82403 4.9972 7.47734 4.9972 8.21496C4.71644 8.38356 4.39248 8.48894 4.02532 8.48894C3.03184 8.48894 2.21114 7.70917 2.21114 6.71865C2.21114 5.72813 3.05344 4.96944 4.04692 4.96944ZM5.32116 18.2887C5.32116 18.3941 5.23477 18.4784 5.12679 18.4784H3.01025C2.90226 18.4784 2.81587 18.3941 2.81587 18.2887L2.5567 13.7366C2.5351 13.5047 2.36233 13.3151 2.12476 13.2729C1.7576 13.2308 1.39045 13.1675 1.04489 13.0832L1.28246 11.1444C1.39045 10.196 2.23274 9.45838 3.20462 9.45838H4.91081C5.062 9.45838 5.21318 9.47945 5.34276 9.5216C5.49394 9.7745 5.66672 10.0274 5.88269 10.2171C4.91081 10.5964 4.1765 11.4605 4.04692 12.5564L3.80935 14.5163C3.74456 15.0221 4.09011 15.4858 4.58685 15.5911C4.82442 15.6544 5.08359 15.6965 5.32116 15.7387L5.38596 16.9189L5.32116 18.2887ZM9.0791 19.8272C9.0791 19.9326 8.99271 19.9958 8.88473 19.9958H6.76819C6.6602 19.9958 6.57381 19.9115 6.57381 19.8272L6.29304 15.275C6.27145 15.0432 6.09867 14.8535 5.8611 14.8114C5.49394 14.7692 5.12679 14.706 4.78123 14.6217L5.0188 12.6617C5.12679 11.7134 5.96908 10.9968 6.94096 10.9968H8.64715C8.79834 10.9968 8.94952 11.0179 9.1007 11.0601C9.25188 11.313 9.40306 11.5448 9.61904 11.7555C8.64715 12.1349 7.91285 13.02 7.78326 14.0948L7.54569 16.0548C7.4809 16.5606 7.82646 17.0242 8.32319 17.1296C8.56077 17.1718 8.81993 17.2139 9.0575 17.2561L9.1223 18.4784L9.0791 19.8272ZM12.837 21.3446C12.837 21.4499 12.7507 21.5342 12.6427 21.5342H10.5261C10.4181 21.5342 10.3317 21.4499 10.3317 21.3446L10.051 16.7924C10.051 16.5606 9.85661 16.3709 9.61904 16.3288C9.25188 16.2866 8.88473 16.2234 8.53917 16.1391L8.77674 14.2002C8.88473 13.2518 9.72702 12.5142 10.7205 12.5142H12.4267C12.5779 12.5142 12.7291 12.5353 12.8586 12.5775C13.0098 12.8303 13.1826 13.0832 13.3986 13.2729C12.4267 13.6523 11.6924 14.5374 11.5628 15.6122L11.3252 17.5511C11.2604 18.0569 11.606 18.5205 12.1027 18.6259C12.3403 18.6681 12.5995 18.7102 12.837 18.7524L12.9018 19.9536L12.837 21.3446ZM17.3077 17.8672C17.0701 17.8883 16.8973 18.0991 16.8757 18.3309L16.6166 22.862C16.6166 22.9673 16.5302 23.0516 16.4222 23.0516H14.3057C14.1977 23.0516 14.1113 22.9673 14.1113 22.862L13.8521 18.3098C13.8305 18.078 13.6577 17.8883 13.4202 17.8462C13.053 17.804 12.6859 17.7408 12.3403 17.6565L12.5779 15.7176C12.7075 14.7692 13.5282 14.0316 14.5216 14.0316H16.2278C17.2213 14.0316 18.042 14.7482 18.1716 15.7176L18.4092 17.6776C18.042 17.7619 17.6748 17.804 17.3077 17.8672Z"
        fill="currentColor"/>
    <path fill-rule="evenodd" clip-rule="evenodd"
          d="M19.6 0.895808C17.6498 0.895808 16.0819 2.472 16.0819 4.4C16.0819 6.328 17.6498 7.90419 19.6 7.90419C21.5503 7.90419 23.1181 6.328 23.1181 4.4C23.1181 2.472 21.5503 0.895808 19.6 0.895808ZM15.2 4.4C15.2 1.96264 17.1772 0 19.6 0C22.0228 0 24 1.96264 24 4.4C24 6.83736 22.0228 8.8 19.6 8.8C17.1772 8.8 15.2 6.83736 15.2 4.4Z"
          fill="currentColor"/>
    <path fill-rule="evenodd" clip-rule="evenodd"
          d="M19.6002 2.37915C19.8432 2.37915 20.0402 2.57615 20.0402 2.81915V4.29248L21.338 4.77833C21.5656 4.86353 21.681 5.11708 21.5958 5.34466C21.5107 5.57225 21.2571 5.68767 21.0295 5.60248L19.4459 5.00967C19.274 4.94533 19.1602 4.7811 19.1602 4.59759V2.81915C19.1602 2.57615 19.3572 2.37915 19.6002 2.37915Z"
          fill="currentColor"/>
</svg>
