<svg viewBox="0 0 24 24" fill="none" xmlns="http://www.w3.org/2000/svg">
    <path
        d="M11.913 12.9319C11.9379 12.9319 11.9627 12.9319 11.9926 12.9319C12.0025 12.9319 12.0124 12.9319 12.0224 12.9319C12.0373 12.9319 12.0572 12.9319 12.0721 12.9319C13.5283 12.907 14.7062 12.3951 15.5759 11.416C17.4893 9.25906 17.1713 5.5614 17.1365 5.20853C17.0122 2.55954 15.7598 1.29219 14.726 0.700766C13.9557 0.258439 13.0561 0.0198799 12.0522 0H12.0174C12.0124 0 12.0025 0 11.9975 0H11.9677C11.416 0 10.3326 0.0894595 9.29386 0.680886C8.25016 1.27231 6.97785 2.53966 6.8536 5.20853C6.81881 5.5614 6.50073 9.25906 8.41417 11.416C9.27895 12.3951 10.4568 12.907 11.913 12.9319ZM8.18058 5.33278C8.18058 5.31787 8.18555 5.30296 8.18555 5.29302C8.34956 1.72955 10.8793 1.34686 11.9627 1.34686H11.9826C11.9926 1.34686 12.0075 1.34686 12.0224 1.34686C13.3643 1.37668 15.6455 1.92338 15.7996 5.29302C15.7996 5.30793 15.7996 5.32284 15.8045 5.33278C15.8095 5.36757 16.1574 8.74715 14.5769 10.5264C13.9507 11.2321 13.1158 11.58 12.0174 11.59C12.0075 11.59 12.0025 11.59 11.9926 11.59C11.9826 11.59 11.9776 11.59 11.9677 11.59C10.8743 11.58 10.0344 11.2321 9.41314 10.5264C7.83766 8.75709 8.17561 5.3626 8.18058 5.33278Z"
        fill="currentColor"/>
    <path
        d="M22.2058 19.0647C22.2058 19.0598 22.2058 19.0548 22.2058 19.0498C22.2058 19.0101 22.2009 18.9703 22.2009 18.9256C22.171 17.9415 22.1064 15.6404 19.9495 14.9049C19.9345 14.8999 19.9147 14.8949 19.8998 14.89C17.6583 14.3184 15.7946 13.0262 15.7747 13.0113C15.4715 12.7976 15.054 12.8721 14.8403 13.1753C14.6266 13.4785 14.7012 13.896 15.0043 14.1097C15.0888 14.1693 17.0669 15.546 19.5419 16.1821C20.6999 16.5947 20.8291 17.8322 20.8639 18.9653C20.8639 19.0101 20.8639 19.0498 20.8689 19.0896C20.8739 19.5369 20.844 20.2277 20.7645 20.6253C19.9594 21.0825 16.8035 22.663 12.0025 22.663C7.22135 22.663 4.04554 21.0776 3.23543 20.6203C3.15591 20.2227 3.12112 19.5319 3.13106 19.0846C3.13106 19.0448 3.13603 19.0051 3.13603 18.9604C3.17082 17.8272 3.30004 16.5897 4.45804 16.1772C6.93309 15.541 8.91114 14.1594 8.99563 14.1047C9.2988 13.891 9.37335 13.4735 9.15964 13.1703C8.94593 12.8672 8.52845 12.7926 8.22528 13.0063C8.2054 13.0212 6.3516 14.3134 4.10021 14.885C4.08033 14.89 4.06542 14.8949 4.05051 14.8999C1.89354 15.6404 1.82893 17.9415 1.79911 18.9206C1.79911 18.9653 1.79911 19.0051 1.79414 19.0448C1.79414 19.0498 1.79414 19.0548 1.79414 19.0598C1.78917 19.3182 1.7842 20.6452 2.04761 21.3112C2.09731 21.4404 2.18677 21.5497 2.30605 21.6243C2.45515 21.7237 6.02856 23.9999 12.0074 23.9999C17.9863 23.9999 21.5597 21.7187 21.7088 21.6243C21.8231 21.5497 21.9176 21.4404 21.9673 21.3112C22.2158 20.6501 22.2108 19.3232 22.2058 19.0647Z"
        fill="currentColor"/>
</svg>
