<svg viewBox="0 0 24 24" fill="none" xmlns="http://www.w3.org/2000/svg">
    <path
        d="M22.2 0H1.8C0.807609 0 0 0.807609 0 1.8V22.2C0 23.1924 0.807609 24 1.8 24H22.2C23.1924 24 24 23.1924 24 22.2V1.8C24 0.807609 23.1924 0 22.2 0ZM23.2 22.2C23.2 22.7512 22.7516 23.2 22.2 23.2H1.8C1.2488 23.2 0.800016 22.7512 0.800016 22.2V1.8C0.800016 1.2488 1.2488 0.800016 1.8 0.800016H22.2C22.7512 0.800016 23.2 1.2488 23.2 1.8V22.2Z"
        fill="currentColor"/>
    <path
        d="M3.60012 1.59985H2.00014C1.77936 1.59985 1.60016 1.77906 1.60016 1.99984V3.59987C1.60016 3.82066 1.77936 3.99986 2.00014 3.99986H3.60012C3.8209 3.99986 4.00011 3.82066 4.00011 3.59987V1.99989C4.00011 1.77906 3.8209 1.59985 3.60012 1.59985ZM3.20014 3.19989H2.40013V2.39987H3.20014V3.19989Z"
        fill="currentColor"/>
    <path d="M24 4.80005H0V5.60006H24V4.80005Z" fill="currentColor"/>
    <path
        d="M11.1996 6.69775H2.39962C2.17884 6.69775 1.99963 6.87696 1.99963 7.09774V13.4977C1.99963 13.7185 2.17884 13.8977 2.39962 13.8977H11.1996C11.4204 13.8977 11.5996 13.7185 11.5996 13.4977V7.09774C11.5996 6.87696 11.4204 6.69775 11.1996 6.69775ZM10.7996 13.0977H2.7996V7.49772H10.7996V13.0977Z"
        fill="currentColor"/>
    <path fill-rule="evenodd" clip-rule="evenodd"
          d="M17.5307 20.8795C18.7777 20.8795 19.7886 19.8686 19.7886 18.6215C19.7886 17.3745 18.7777 16.3636 17.5307 16.3636C16.2836 16.3636 15.2727 17.3745 15.2727 18.6215C15.2727 19.8686 16.2836 20.8795 17.5307 20.8795ZM17.5307 21.9704C19.3802 21.9704 20.8795 20.4711 20.8795 18.6215C20.8795 16.772 19.3802 15.2727 17.5307 15.2727C15.6811 15.2727 14.1818 16.772 14.1818 18.6215C14.1818 20.4711 15.6811 21.9704 17.5307 21.9704Z"
          fill="currentColor"/>
    <rect width="8.93023" height="0.558138" rx="0.279069" transform="matrix(-1 0 0 1 11.7209 16.186)" fill="currentColor"/>
    <rect width="6.13953" height="0.55814" rx="0.27907" transform="matrix(-1 0 0 1 11.7209 17.8604)" fill="currentColor"/>
    <rect width="7.25581" height="0.558142" rx="0.279071" transform="matrix(-1 0 0 1 11.7209 19.5349)" fill="currentColor"/>
    <rect width="4.46512" height="0.558142" rx="0.279071" transform="matrix(-1 0 0 1 11.7209 21.2092)" fill="currentColor"/>
    <rect x="12.8373" y="7.25586" width="8.93023" height="0.55814" rx="0.27907" fill="currentColor"/>
    <rect x="12.8373" y="8.93018" width="6.13953" height="0.558141" rx="0.27907" fill="currentColor"/>
    <rect x="12.8373" y="10.6047" width="7.25582" height="0.55814" rx="0.27907" fill="currentColor"/>
    <rect x="12.8373" y="12.2791" width="4.46511" height="0.55814" rx="0.27907" fill="currentColor"/>
    <path
        d="M8.13869 2L7.48409 3.9707H6.98056L6.57438 2.74725L6.15477 3.9707H5.65124L5 2H5.49346L5.91979 3.33333L6.36289 2H6.806L7.23568 3.33333L7.67544 2H8.13869Z"
        fill="currentColor"/>
    <path
        d="M11.2399 2L10.5853 3.9707H10.0817L9.67556 2.74725L9.25595 3.9707H8.75242L8.10118 2H8.59465L9.02097 3.33333L9.46408 2H9.90719L10.3369 3.33333L10.7766 2H11.2399Z"
        fill="currentColor"/>
    <path
        d="M14.3411 2L13.6865 3.9707H13.1829L12.7767 2.74725L12.3571 3.9707H11.8536L11.2024 2H11.6958L12.1222 3.33333L12.5653 2H13.0084L13.4381 3.33333L13.8778 2H14.3411Z"
        fill="currentColor"/>
    <path
        d="M14.6744 4C14.5826 4 14.5054 3.96581 14.4428 3.89744C14.3801 3.82906 14.3488 3.74359 14.3488 3.64103C14.3488 3.53602 14.3801 3.45177 14.4428 3.38828C14.5054 3.32234 14.5826 3.28938 14.6744 3.28938C14.7661 3.28938 14.8433 3.32234 14.906 3.38828C14.9687 3.45177 15 3.53602 15 3.64103C15 3.74359 14.9687 3.82906 14.906 3.89744C14.8433 3.96581 14.7661 4 14.6744 4Z"
        fill="currentColor"/>
</svg>
