<svg width="18" height="18" viewBox="0 0 18 18" fill="none" xmlns="http://www.w3.org/2000/svg">
    <g clip-path="url(#clip0)">
        <path
            d="M5.11373 0.586914C4.62595 0.588359 4.15859 0.774342 3.81368 1.10426C3.46877 1.43417 3.27433 1.88122 3.27282 2.34778C3.27433 2.81435 3.46877 3.2614 3.81368 3.59131C4.15859 3.92122 4.62595 4.10721 5.11373 4.10865C5.6015 4.10721 6.06887 3.92122 6.41378 3.59131C6.75869 3.2614 6.95313 2.81435 6.95464 2.34778C6.95313 1.88122 6.75869 1.43417 6.41378 1.10426C6.06887 0.774342 5.6015 0.588359 5.11373 0.586914ZM10.6365 5.86952C10.1487 5.87097 9.68131 6.05695 9.3364 6.38687C8.99149 6.71678 8.79706 7.16383 8.79555 7.63039C8.79706 8.09696 8.99149 8.544 9.3364 8.87392C9.68131 9.20383 10.1487 9.38982 10.6365 9.39126C11.1242 9.38982 11.5916 9.20383 11.9365 8.87392C12.2814 8.544 12.4759 8.09696 12.4774 7.63039C12.4759 7.16383 12.2814 6.71678 11.9365 6.38687C11.5916 6.05695 11.1242 5.87097 10.6365 5.86952ZM16.1592 5.86952C15.6714 5.87097 15.204 6.05695 14.8591 6.38687C14.5142 6.71678 14.3198 7.16383 14.3183 7.63039C14.3198 8.09696 14.5142 8.544 14.8591 8.87392C15.204 9.20383 15.6714 9.38982 16.1592 9.39126C16.647 9.38982 17.1143 9.20383 17.4592 8.87392C17.8041 8.544 17.9986 8.09696 18.0001 7.63039C17.9986 7.16383 17.8041 6.71678 17.4592 6.38687C17.1143 6.05695 16.647 5.87097 16.1592 5.86952ZM16.1592 11.3478C15.6714 11.3492 15.204 11.5352 14.8591 11.8651C14.5142 12.195 14.3198 12.6421 14.3183 13.1087C14.3198 13.5752 14.5142 14.0223 14.8591 14.3522C15.204 14.6821 15.6714 14.8681 16.1592 14.8695C16.647 14.8681 17.1143 14.6821 17.4592 14.3522C17.8041 14.0223 17.9986 13.5752 18.0001 13.1087C17.9986 12.6421 17.8041 12.195 17.4592 11.8651C17.1143 11.5352 16.647 11.3492 16.1592 11.3478ZM16.1592 0.586914C15.6714 0.588359 15.204 0.774342 14.8591 1.10426C14.5142 1.43417 14.3198 1.88122 14.3183 2.34778C14.3198 2.81435 14.5142 3.2614 14.8591 3.59131C15.204 3.92122 15.6714 4.10721 16.1592 4.10865C16.647 4.10721 17.1143 3.92122 17.4592 3.59131C17.8041 3.2614 17.9986 2.81435 18.0001 2.34778C17.9986 1.88122 17.8041 1.43417 17.4592 1.10426C17.1143 0.774342 16.647 0.588359 16.1592 0.586914ZM10.6365 0.586914C10.1487 0.588359 9.68131 0.774342 9.3364 1.10426C8.99149 1.43417 8.79706 1.88122 8.79555 2.34778C8.79706 2.81435 8.99149 3.2614 9.3364 3.59131C9.68131 3.92122 10.1487 4.10721 10.6365 4.10865C11.1242 4.10721 11.5916 3.92122 11.9365 3.59131C12.2814 3.2614 12.4759 2.81435 12.4774 2.34778C12.4759 1.88122 12.2814 1.43417 11.9365 1.10426C11.5916 0.774342 11.1242 0.588359 10.6365 0.586914ZM11.8948 14.5698C11.9014 14.4283 11.853 14.2895 11.7591 14.18C11.6652 14.0705 11.5323 13.998 11.3859 13.9766C10.7665 13.8983 10.1586 13.7543 9.57282 13.5453C9.46641 13.5069 9.35075 13.4984 9.23943 13.5207C9.12812 13.543 9.02578 13.5953 8.94445 13.6713L8.18436 14.3968C8.09163 14.4852 7.97118 14.5421 7.84145 14.5587C7.71171 14.5754 7.57984 14.551 7.466 14.4892C5.8757 13.6259 4.55847 12.3682 3.65327 10.8485C3.58875 10.7398 3.56332 10.6138 3.58091 10.49C3.59851 10.3661 3.65813 10.2512 3.75064 10.1629L4.50745 9.43978C4.588 9.36197 4.64347 9.26365 4.66726 9.15654C4.69105 9.04942 4.68216 8.93803 4.64164 8.83561C4.42415 8.27898 4.27319 7.70061 4.19164 7.11152C4.1709 6.97314 4.09798 6.84679 3.98662 6.75627C3.87525 6.66574 3.73312 6.61729 3.587 6.62004H1.79355C1.71146 6.62028 1.6303 6.63664 1.5551 6.66813C1.47991 6.69962 1.41228 6.74556 1.35643 6.8031C1.30057 6.86064 1.25768 6.92854 1.23041 7.0026C1.20314 7.07666 1.19208 7.15529 1.19791 7.23361C1.38445 8.90996 1.98173 10.5206 2.94391 11.9394C3.81679 13.2502 4.98083 14.361 6.35327 15.1927C7.82509 16.1046 9.49954 16.6744 11.2427 16.8566C11.3258 16.8637 11.4095 16.8541 11.4885 16.8284C11.5675 16.8028 11.64 16.7616 11.7013 16.7076C11.7627 16.6536 11.8116 16.5879 11.845 16.5148C11.8783 16.4417 11.8953 16.3627 11.8948 16.2829V14.569V14.5698ZM13.091 16.2806C13.092 16.5192 13.0409 16.7554 12.9409 16.974C12.8408 17.1926 12.6941 17.3888 12.5101 17.55C12.3242 17.7123 12.1049 17.8356 11.8662 17.9119C11.6274 17.9882 11.3746 18.0158 11.1241 17.9929C9.19303 17.7928 7.33779 17.1629 5.70691 16.1538C4.18943 15.2337 2.90226 14.0054 1.93673 12.5561C0.874101 10.9887 0.213362 9.20337 0.00827278 7.34552C-0.0141644 7.10859 0.0152832 6.86979 0.0947365 6.64435C0.17419 6.41892 0.301903 6.2118 0.469727 6.03622C0.637877 5.86049 0.842399 5.72014 1.0703 5.62408C1.2982 5.52802 1.5445 5.47834 1.79355 5.47822H3.58127C4.48127 5.47039 5.25036 6.10039 5.37636 6.95735C5.44591 7.46213 5.576 7.95909 5.76173 8.4357C6.00882 9.06178 5.85091 9.76691 5.35591 10.2451L4.92718 10.6544C5.63081 11.7081 6.56686 12.6019 7.66973 13.273L8.10091 12.8613C8.34486 12.6311 8.6526 12.4724 8.98779 12.404C9.32298 12.3357 9.67162 12.3605 9.99255 12.4755C10.4945 12.6543 11.016 12.7782 11.5471 12.8449C11.9813 12.9029 12.3782 13.111 12.6627 13.4301C12.9472 13.7491 13.0996 14.1568 13.091 14.576V16.2806Z"
            fill="currentColor"/>
    </g>
    <defs>
        <clipPath id="clip0">
            <rect width="18" height="18" fill="white"/>
        </clipPath>
    </defs>
</svg>
