<svg width="18" height="18" viewBox="0 0 18 18" fill="none" xmlns="http://www.w3.org/2000/svg">
    <g clip-path="url(#clip0)">
        <path
            d="M16.125 0H1.87495C0.841553 0 0 0.840729 0 1.87495V16.125C0 17.1593 0.841553 18 1.87495 18H16.125C17.1584 18 18 17.1593 18 16.125V1.87495C18 0.840729 17.1584 0 16.125 0V0ZM16.5 1.87495V8.25005H9.74995V1.50005H16.125C16.332 1.50005 16.5 1.66869 16.5 1.87495ZM1.87495 1.50005H8.25005V8.25005H1.50005V1.87495C1.50005 1.66869 1.668 1.50005 1.87495 1.50005ZM1.50005 16.125V9.74995H8.25005V16.5H1.87495C1.668 16.5 1.50005 16.3313 1.50005 16.125ZM16.125 16.5H9.74995V9.74995H16.5V16.125C16.5 16.3313 16.332 16.5 16.125 16.5Z"
            fill="currentColor"/>
    </g>
    <defs>
        <clipPath id="clip0">
            <rect width="18" height="18" fill="white"/>
        </clipPath>
    </defs>
</svg>
