<svg width="20" height="20" viewBox="0 0 20 20" fill="none" xmlns="http://www.w3.org/2000/svg">
    <path
        d="M17.9167 0H2.08328C0.935059 0 0 0.934143 0 2.08328V17.9167C0 19.0659 0.935059 20 2.08328 20H17.9167C19.0649 20 20 19.0659 20 17.9167V2.08328C20 0.934143 19.0649 0 17.9167 0ZM18.3333 2.08328V9.16672H10.8333V1.66672H17.9167C18.1467 1.66672 18.3333 1.8541 18.3333 2.08328ZM2.08328 1.66672H9.16672V9.16672H1.66672V2.08328C1.66672 1.8541 1.85333 1.66672 2.08328 1.66672ZM1.66672 17.9167V10.8333H9.16672V18.3333H2.08328C1.85333 18.3333 1.66672 18.1459 1.66672 17.9167ZM17.9167 18.3333H10.8333V10.8333H18.3333V17.9167C18.3333 18.1459 18.1467 18.3333 17.9167 18.3333Z"
        fill="currentColor"/>
</svg>
