<?xml version="1.0" encoding="UTF-8"?>
<svg xmlns="http://www.w3.org/2000/svg" xmlns:xlink="http://www.w3.org/1999/xlink" width="58pt" height="18pt" viewBox="0 0 58 58" version="1.1">
<g id="surface1">
<path style=" stroke:none;fill-rule:nonzero;fill:rgb(0%,0%,0%);fill-opacity:1;" d="M 56.847656 22.242188 C 56.078125 21.476562 55.140625 21.089844 54.042969 21.089844 L 3.953125 21.089844 C 2.855469 21.089844 1.921875 21.476562 1.152344 22.242188 C 0.382812 23.011719 0 23.945312 0 25.042969 L 0 32.953125 C 0 34.054688 0.382812 34.988281 1.152344 35.753906 C 1.921875 36.523438 2.855469 36.90625 3.953125 36.90625 L 54.042969 36.90625 C 55.140625 36.90625 56.078125 36.523438 56.84375 35.753906 C 57.613281 34.988281 58 34.054688 58 32.953125 L 58 25.042969 C 58 23.945312 57.613281 23.011719 56.847656 22.242188 Z M 56.847656 22.242188 "/>
</g>
</svg>
