<?xml version="1.0" encoding="UTF-8"?>
<svg viewBox="0 0 10 10" version="1.1" xmlns="http://www.w3.org/2000/svg" xmlns:xlink="http://www.w3.org/1999/xlink">
    <!-- Generator: Sketch 51.3 (57544) - http://www.bohemiancoding.com/sketch -->
    <title>Group 14</title>
    <desc>Created with Sketch.</desc>
    <defs></defs>
    <g id="Page-1" stroke="none" stroke-width="1" fill="none" fill-rule="evenodd">
        <g id="Speed-Dial---Additional-Parameters-User-List" transform="translate(-191.000000, -386.000000)"
           fill="currentColor">
            <g id="Group-10" transform="translate(176.000000, 368.000000)">
                <g id="Group-6">
                    <g id="Group-14" transform="translate(15.000000, 18.000000)">
                        <path d="M9.73958333,8.41145833 C9.91319531,8.60243151 10,8.8281237 10,9.08854167 C10,9.34895964 9.91319531,9.56597135 9.73958333,9.73958333 C9.56597135,9.91319531 9.34895964,10 9.08854167,10 C8.8281237,10 8.60243151,9.91319531 8.41145833,9.73958333 L5,6.328125 L1.58854167,9.73958333 C1.39756849,9.91319531 1.18055677,10 0.9375,10 C0.694443229,10 0.47743151,9.91319531 0.286458333,9.73958333 C0.0954851562,9.56597135 0,9.34895964 0,9.08854167 C0,8.8281237 0.0954851562,8.60243151 0.286458333,8.41145833 L3.671875,5 L0.286458333,1.58854167 C0.0954851562,1.39756849 0,1.1718763 0,0.911458333 C0,0.651040365 0.0954851562,0.434028646 0.286458333,0.260416667 C0.47743151,0.0868046875 0.694443229,0 0.9375,0 C1.18055677,0 1.39756849,0.0868046875 1.58854167,0.260416667 L5,3.671875 L8.41145833,0.260416667 C8.60243151,0.0868046875 8.8281237,0 9.08854167,0 C9.34895964,0 9.56597135,0.0868046875 9.73958333,0.260416667 C9.91319531,0.434028646 10,0.651040365 10,0.911458333 C10,1.1718763 9.91319531,1.39756849 9.73958333,1.58854167 L6.328125,5 L9.73958333,8.41145833 Z" id="ion-close-round---Ionicons"></path>
                    </g>
                </g>
            </g>
        </g>
    </g>
</svg>
