<svg viewBox="0 0 40 40" fill="none" xmlns="http://www.w3.org/2000/svg">
    <path
        d="M36.7903 26.2554C34.3414 26.2554 31.9368 25.8724 29.6581 25.1194C28.5221 24.732 27.2287 25.0326 26.4875 25.7878L21.9899 29.183C16.774 26.3987 13.5611 23.1869 10.8149 18.0101L14.1102 13.6297C14.9663 12.7747 15.2734 11.5257 14.9055 10.3539C14.1492 8.06323 13.7651 5.65979 13.7651 3.20979C13.7652 1.4399 12.3253 0 10.5555 0H3.20957C1.43989 0 0 1.4399 0 3.20958C0 23.4961 16.5039 40 36.7903 40C38.5601 40 40 38.5601 40 36.7903V29.465C39.9999 27.6953 38.56 26.2554 36.7903 26.2554ZM37.7777 36.7904C37.7777 37.3351 37.335 37.7778 36.7903 37.7778C17.7289 37.7778 2.22229 22.271 2.22229 3.20969C2.22229 2.665 2.66499 2.22229 3.20968 2.22229H10.5556C11.1003 2.22229 11.543 2.665 11.543 3.20969C11.543 5.8974 11.9651 8.53521 12.7908 11.0342C12.9058 11.4031 12.8125 11.785 12.4392 12.1735L8.61977 17.232C8.36373 17.5716 8.32352 18.0262 8.5156 18.4049C11.633 24.5323 15.421 28.3203 21.5917 31.4822C21.9671 31.6785 22.4272 31.6374 22.768 31.3802L27.9426 27.4599C28.2041 27.1984 28.5959 27.1051 28.9496 27.2255C31.4659 28.0567 34.1037 28.4777 36.7903 28.4777C37.335 28.4777 37.7777 28.9204 37.7777 29.4651V36.7904Z"
        fill="currentColor"/>
    <path fill-rule="evenodd" clip-rule="evenodd"
          d="M31.7483 14.644C31.7483 15.3929 31.1412 16 30.3923 16L25.3559 16C24.607 16 23.9999 15.3929 23.9999 14.644L23.9999 9.60759C23.9999 8.8587 24.607 8.2516 25.3559 8.2516C26.1048 8.2516 26.7119 8.8587 26.7119 9.60759L26.7119 11.3704L35.0184 3.06383C35.548 2.53428 36.4065 2.53428 36.9361 3.06383C37.4656 3.59338 37.4656 4.45194 36.9361 4.98149L28.6296 13.288L30.3923 13.288C31.1412 13.288 31.7483 13.8951 31.7483 14.644Z"
          fill="currentColor"/>
</svg>
