<?xml version="1.0" encoding="UTF-8"?>
<svg width="28px" height="28px" viewBox="0 0 470 470" version="1.1" xmlns="http://www.w3.org/2000/svg" xmlns:xlink="http://www.w3.org/1999/xlink">
    <g id="incoming" stroke="none" stroke-width="1" fill="none" fill-rule="evenodd">
        <g id="Group" transform="translate(6.000000, 6.000000)" fill="CurrentColor" fill-rule="nonzero">
            <g id="483955">
                <path d="M421.133222,300.584821 C393.087324,300.584821 365.563687,296.201663 339.480442,287.584353 C326.68743,283.251262 310.987403,287.224355 303.186873,295.23372 L251.715538,334.087308 C192.021572,302.225078 155.231975,265.469493 123.783033,206.228322 L161.542033,156.075318 C171.354103,146.265962 174.832267,131.973315 170.608868,118.61285 C161.964135,92.3627778 157.566649,64.8467515 157.566649,36.8586744 C157.567841,16.6045999 141.097539,0.126930956 120.827131,0.126930956 L36.7395178,0.126930956 C16.4691101,0.126930956 0,16.6045999 0,36.8562903 C0,269.008681 188.917815,457.873069 421.133222,457.873069 C441.403629,457.873069 457.873932,441.3954 457.873932,421.142518 L457.873932,337.31418 C457.872739,317.062489 441.403629,300.584821 421.133222,300.584821 Z" id="Shape"></path>
            </g>
        </g>
    </g>
</svg>
