<svg viewBox="0 0 30 30" fill="none" xmlns="http://www.w3.org/2000/svg">
    <path
        d="M26.869 22.9273L26.869 22.9277C26.8691 23.221 26.776 23.4494 26.5592 23.6664C26.5591 23.6665 26.559 23.6665 26.559 23.6666L23.6664 26.5592C23.4498 26.7758 23.2214 26.8689 22.9277 26.8688H22.9269C22.6332 26.8689 22.4048 26.7757 22.1879 26.5589L15.9204 20.2914L15.2133 19.5843L14.5062 20.2914L8.23835 26.5593C8.02202 26.7756 7.79341 26.8691 7.49954 26.8692C7.20532 26.869 6.97671 26.7756 6.75997 26.5589L3.86733 23.6662C3.6509 23.4498 3.55741 23.2211 3.55722 22.9272C3.55716 22.6334 3.65067 22.4045 3.86711 22.188L10.135 15.9201L10.8421 15.213L10.135 14.5059L3.86743 8.23838C3.65103 8.02198 3.55763 7.7934 3.55769 7.49935L3.55769 7.4987C3.55755 7.20526 3.65058 6.97702 3.86738 6.76022L6.76018 3.86741C6.9767 3.6509 7.20501 3.55767 7.49929 3.55767C7.79353 3.55767 8.02222 3.65113 8.23851 3.86741L14.5061 10.135L15.2132 10.8421L15.9203 10.135L22.188 3.8672C22.4043 3.65092 22.633 3.55746 22.9273 3.55746C23.2214 3.55746 23.45 3.65086 23.6664 3.86725L26.5589 6.75969C26.7755 6.97636 26.8688 7.20483 26.869 7.49887C26.8689 7.7933 26.7754 8.02211 26.5592 8.23828L20.2915 14.506L19.5843 15.2131L20.2915 15.9203L26.5591 22.1879C26.7754 22.4042 26.8689 22.633 26.869 22.9273Z"
        stroke="currentColor" stroke-width="2"/>
</svg>
