<svg width="67" height="78" viewBox="0 0 67 78" fill="none" xmlns="http://www.w3.org/2000/svg">
<path d="M23.6999 65.4429L23.1141 64.8571H22.2857H7.42863C4.42877 64.8571 2 62.4283 2 59.4287V7.42863C2 4.4288 4.4288 2 7.42863 2H59.4285C62.4283 2 64.8571 4.4288 64.8571 7.42863V59.4285C64.8571 62.4283 62.4283 64.8571 59.4285 64.8571H44.5714H43.743L43.1572 65.4429L33.4286 75.1716L23.6999 65.4429Z" stroke="#BEC2C9" stroke-width="4"/>
<path d="M33.3366 12C26.5342 12 21 17.5342 21 24.3366C21 25.9203 22.284 27.2043 23.8678 27.2043C25.4515 27.2043 26.7355 25.9203 26.7355 24.3366C26.7355 20.6968 29.6968 17.7355 33.3366 17.7355C36.9763 17.7355 39.9376 20.6968 39.9376 24.3366C39.9376 27.9763 36.9763 30.9376 33.3366 30.9376C31.7528 30.9376 30.4688 32.2216 30.4688 33.8054V40.2894C30.4688 41.8731 31.7528 43.1571 33.3366 43.1571C34.9203 43.1571 36.2043 41.8731 36.2043 40.2894V36.3366C41.6284 35.0406 45.6731 30.1518 45.6731 24.3364C45.6731 17.5342 40.1389 12 33.3366 12Z" fill="#BEC2C9"/>
<path d="M33.3366 54.0508C35.5538 54.0508 37.3513 52.2534 37.3513 50.0361C37.3513 47.8189 35.5538 46.0214 33.3366 46.0214C31.1193 46.0214 29.3219 47.8189 29.3219 50.0361C29.3219 52.2534 31.1193 54.0508 33.3366 54.0508Z" fill="#BEC2C9"/>
</svg>
