<svg viewBox="0 0 14 14" fill="none" xmlns="http://www.w3.org/2000/svg">
    <path
        d="M12.8119 0.629021C11.9731 -0.209674 10.6132 -0.209674 9.77446 0.629021L1.25963 9.1431C1.20127 9.20145 1.15914 9.27378 1.13714 9.35319L0.0174161 13.3953C-0.0286332 13.561 0.0181618 13.7385 0.139717 13.8602C0.261459 13.9818 0.438944 14.0286 0.604685 13.9827L4.64714 12.8629C4.72656 12.8409 4.7989 12.7988 4.85725 12.7404L13.3719 4.22614C14.2094 3.38689 14.2094 2.02827 13.3719 1.18902L12.8119 0.629021ZM2.29956 9.4533L9.26829 2.485L11.5158 4.73227L4.54684 11.7006L2.29956 9.4533ZM1.85063 10.3541L3.64618 12.1496L1.1625 12.8377L1.85063 10.3541ZM12.697 3.55131L12.1908 4.05743L9.94319 1.80998L10.4495 1.30385C10.9154 0.837995 11.6709 0.837995 12.1368 1.30385L12.697 1.86385C13.1622 2.33027 13.1622 3.08508 12.697 3.55131Z"
        fill="currentColor"/>
</svg>
