<?xml version="1.0" encoding="UTF-8"?>
<svg width="28px" height="28px" viewBox="0 0 470 470" version="1.1" xmlns="http://www.w3.org/2000/svg" xmlns:xlink="http://www.w3.org/1999/xlink">
    <!-- Generator: Sketch 51.3 (57544) - http://www.bohemiancoding.com/sketch -->
    <title>outgoing</title>
    <desc>Created with Sketch.</desc>
    <defs></defs>
    <g id="outgoing" stroke="none" stroke-width="1" fill="none" fill-rule="evenodd">
        <rect fill="#FFFFFF" x="0" y="0" width="470" height="470"></rect>
        <g id="Group" transform="translate(6.000000, 6.000000)" fill="CurrentColor" fill-rule="nonzero">
            <g id="483955">
                <path d="M279.811516,203.570056 L394.279701,203.570056 C401.303993,203.570056 406.998785,197.876839 406.998785,190.854488 L406.998785,165.424545 C406.998785,158.402195 401.303993,152.708977 394.279701,152.708977 L341.218928,152.708977 L454.147754,39.8113754 C459.115196,34.8453067 459.115196,26.7954117 454.147754,21.8293429 L436.164325,3.85088652 C431.196883,-1.11518226 423.144761,-1.11518226 418.177319,3.85088652 L305.248493,116.748488 L305.248493,63.7023861 C305.248493,56.6800359 299.553701,50.9868183 292.529408,50.9868183 L267.092431,50.9868183 C260.068139,50.9868183 254.373347,56.6800359 254.373347,63.7023861 L254.373347,178.138921 C254.373347,192.183621 265.762931,203.570056 279.811516,203.570056 Z" id="Shape" transform="translate(356.123341, 101.848196) scale(-1, -1) translate(-356.123341, -101.848196) "></path>
                <path d="M421.133222,300.584821 C393.087324,300.584821 365.563687,296.201663 339.480442,287.584353 C326.68743,283.251262 310.987403,287.224355 303.186873,295.23372 L251.715538,334.087308 C192.021572,302.225078 155.231975,265.469493 123.783033,206.228322 L161.542033,156.075318 C171.354103,146.265962 174.832267,131.973315 170.608868,118.61285 C161.964135,92.3627778 157.566649,64.8467515 157.566649,36.8586744 C157.567841,16.6045999 141.097539,0.126930956 120.827131,0.126930956 L36.7395178,0.126930956 C16.4691101,0.126930956 0,16.6045999 0,36.8562903 C0,269.008681 188.917815,457.873069 421.133222,457.873069 C441.403629,457.873069 457.873932,441.3954 457.873932,421.142518 L457.873932,337.31418 C457.872739,317.062489 441.403629,300.584821 421.133222,300.584821 Z" id="Shape"></path>
            </g>
        </g>
    </g>
</svg>
