<?xml version="1.0" encoding="UTF-8"?>
<svg width="28px" height="28px" viewBox="0 0 470 470" version="1.1" xmlns="http://www.w3.org/2000/svg" xmlns:xlink="http://www.w3.org/1999/xlink">
    <!-- Generator: Sketch 51.3 (57544) - http://www.bohemiancoding.com/sketch -->
    <title>performance</title>
    <desc>Created with Sketch.</desc>
    <defs></defs>
    <g id="performance" stroke="none" stroke-width="1" fill="none" fill-rule="evenodd">
        <rect fill="#FFFFFF" x="0" y="0" width="470" height="470"></rect>
        <g id="15533" transform="translate(9.000000, 9.000000)" fill="CurrentColor" fill-rule="nonzero">
            <path d="M404.927,209.431 L452.102,209.431 C448.521,159.732 429.064,114.498 398.563,78.82 L364.848,112.535 L341.573,89.239 L375.331,55.459 C339.826,24.353 294.527,4.206 244.591,0.194 L244.591,49.117 L211.674,49.117 L211.674,0 C161.22,3.236 115.296,22.8 79.165,53.668 L114.735,89.217 L91.439,112.513 L55.804,76.878 C24.332,112.858 4.12,158.804 0.475,209.452 L51.339,209.452 L51.339,242.369 L0.453,242.369 C8.93,359.801 106.646,452.555 226.256,452.555 C345.866,452.555 443.603,359.801 452.102,242.369 L404.905,242.369 L404.927,209.431 Z M228.133,362.217 C204.017,362.217 184.474,342.695 184.474,318.536 C184.474,300.697 195.216,285.36 210.618,278.608 L227.012,126.901 L231.046,126.944 L245.973,278.673 C261.202,285.554 271.836,300.718 271.836,318.536 C271.857,342.695 252.27,362.217 228.133,362.217 Z" id="Shape"></path>
        </g>
    </g>
</svg>
