<svg viewBox="0 0 8 13" fill="none" xmlns="http://www.w3.org/2000/svg">
    <path fill-rule="evenodd" clip-rule="evenodd"
          d="M6.59507 12.5C6.54213 12.4964 6.52865 12.4969 6.47623 12.488C6.35836 12.4681 6.24499 12.4244 6.14497 12.3601C6.09439 12.3276 6.05024 12.2898 6.00614 12.2494L0.755613 7.10637C0.719384 7.06835 0.709277 7.05969 0.677118 7.01816C0.64102 6.97153 0.609823 6.92126 0.58414 6.86837C0.471953 6.63732 0.471953 6.36315 0.58414 6.1321C0.609823 6.07921 0.64102 6.02894 0.677118 5.98231C0.709277 5.94082 0.719384 5.93212 0.755613 5.89415L6.00614 0.751068C6.04495 0.715581 6.05383 0.705637 6.09618 0.674179C6.20741 0.591504 6.33867 0.535702 6.47623 0.512429C6.57446 0.495886 6.6754 0.495886 6.77363 0.512429C6.85217 0.525715 6.92879 0.549545 7.00076 0.583061C7.27414 0.710395 7.46447 0.974535 7.49545 1.26949C7.50766 1.38607 7.49519 1.50479 7.459 1.61648C7.42885 1.70952 7.38243 1.79734 7.32223 1.87509C7.29007 1.91662 7.27996 1.92528 7.24373 1.96329L2.61198 6.50026L7.24373 11.0372L7.28451 11.08C7.31798 11.1203 7.32752 11.1297 7.35666 11.1732C7.41131 11.2548 7.45156 11.3455 7.47515 11.4404C7.49401 11.5162 7.50223 11.5946 7.49952 11.6726C7.48919 11.9689 7.31768 12.2452 7.05384 12.3905C6.96698 12.4383 6.87182 12.4715 6.77363 12.488C6.72122 12.4969 6.70774 12.4964 6.6548 12.5C6.63489 12.5 6.61498 12.5 6.59507 12.5Z"
          fill="currentColor"/>
</svg>
