<svg width="10" height="18" viewBox="0 0 10 18" fill="none" xmlns="http://www.w3.org/2000/svg">
    <path fill-rule="evenodd" clip-rule="evenodd"
          d="M1.29276 18C1.36839 17.9947 1.38764 17.9953 1.46252 17.9821C1.63092 17.9522 1.79287 17.8865 1.93576 17.7901C2.00801 17.7414 2.07108 17.6847 2.13409 17.6242L9.63484 9.90955C9.68659 9.85253 9.70103 9.83954 9.74698 9.77725C9.79854 9.7073 9.84311 9.63189 9.8798 9.55256C10.0401 9.20598 10.0401 8.79473 9.8798 8.44815C9.84311 8.36882 9.79854 8.2934 9.74698 8.22346C9.70103 8.16123 9.68659 8.14818 9.63484 8.09122L2.13409 0.376603C2.07865 0.323372 2.06596 0.308457 2.00545 0.261269C1.84656 0.137257 1.65904 0.053553 1.46252 0.0186444C1.3222 -0.00617093 1.17799 -0.00617092 1.03767 0.0186444C0.925467 0.0385739 0.816019 0.0743183 0.713196 0.124592C0.322657 0.315593 0.0507556 0.711803 0.0065013 1.15424C-0.0109385 1.3291 0.00687517 1.50718 0.0585681 1.67472C0.101635 1.81429 0.167955 1.94601 0.253963 2.06263C0.299905 2.12493 0.314345 2.13791 0.3661 2.19494L6.98289 9.00039L0.366101 15.8058L0.307845 15.87C0.260027 15.9304 0.246401 15.9445 0.204771 16.0098C0.126702 16.1322 0.0691953 16.2683 0.0355048 16.4105C0.00856449 16.5243 -0.00318572 16.6418 0.000689064 16.7588C0.0154405 17.2034 0.260465 17.6177 0.637377 17.8357C0.761452 17.9075 0.897403 17.9572 1.03767 17.9821C1.11255 17.9953 1.1318 17.9947 1.20743 18C1.23587 18 1.26432 18 1.29276 18Z"
          fill="currentColor"/>
</svg>
