<svg width="40" height="39" viewBox="0 0 40 39" fill="none" xmlns="http://www.w3.org/2000/svg">
    <path
        d="M22.001 12.2105V28.4912C22.001 30.1104 21.3688 31.6633 20.2436 32.8083C19.1184 33.9533 17.5923 34.5965 16.001 34.5965H11.661C11.1892 35.9549 10.2606 37.0998 9.03936 37.8289C7.81815 38.558 6.38293 38.8244 4.9874 38.5808C3.59187 38.3373 2.32589 37.5995 1.41323 36.498C0.500569 35.3965 0 34.0022 0 32.5614C0 31.1207 0.500569 29.7263 1.41323 28.6248C2.32589 27.5233 3.59187 26.7855 4.9874 26.542C6.38293 26.2985 7.81815 26.5648 9.03936 27.2939C10.2606 28.023 11.1892 29.1679 11.661 30.5263H16.001C16.5314 30.5263 17.0401 30.3119 17.4152 29.9303C17.7903 29.5486 18.001 29.031 18.001 28.4912V12.2105C18.001 10.5913 18.6331 9.03841 19.7583 7.89345C20.8836 6.7485 22.4097 6.10526 24.001 6.10526H30.001V0L40.001 8.14035L30.001 16.2807V10.1754H24.001C23.4705 10.1754 22.9618 10.3898 22.5868 10.7715C22.2117 11.1532 22.001 11.6708 22.001 12.2105ZM6.00098 34.5965C6.53141 34.5965 7.04012 34.3821 7.41519 34.0004C7.79026 33.6188 8.00098 33.1011 8.00098 32.5614C8.00098 32.0217 7.79026 31.504 7.41519 31.1224C7.04012 30.7407 6.53141 30.5263 6.00098 30.5263C5.47054 30.5263 4.96183 30.7407 4.58676 31.1224C4.21169 31.504 4.00098 32.0217 4.00098 32.5614C4.00098 33.1011 4.21169 33.6188 4.58676 34.0004C4.96183 34.3821 5.47054 34.5965 6.00098 34.5965Z"
        fill="currentColor"/>
</svg>
