<?xml version="1.0" encoding="UTF-8"?>
<svg width="28px" height="28px" viewBox="0 0 470 470" version="1.1" xmlns="http://www.w3.org/2000/svg" xmlns:xlink="http://www.w3.org/1999/xlink">
    <!-- Generator: Sketch 51.3 (57544) - http://www.bohemiancoding.com/sketch -->
    <title>dialer</title>
    <desc>Created with Sketch.</desc>
    <defs></defs>
    <g id="dialer" stroke="none" stroke-width="1" fill="none" fill-rule="evenodd">
        <rect fill="#FFFFFF" x="0" y="0" width="470" height="470"></rect>
        <g id="320148" fill="CurrentColor" fill-rule="nonzero">
            <path d="M58.75,0 C26.3594727,0 0,26.3594727 0,58.75 C0,91.1405273 26.3594727,117.5 58.75,117.5 C91.1405273,117.5 117.5,91.1405273 117.5,58.75 C117.5,26.3594727 91.1405273,0 58.75,0 Z" id="Shape"></path>
            <path d="M58.75,176.25 C26.3594727,176.25 0,202.609473 0,235 C0,267.390527 26.3594727,293.75 58.75,293.75 C91.1405273,293.75 117.5,267.390527 117.5,235 C117.5,202.609473 91.1405273,176.25 58.75,176.25 Z" id="Shape"></path>
            <path d="M58.75,352.5 C26.3594727,352.5 0,378.859473 0,411.25 C0,443.640527 26.3594727,470 58.75,470 C91.1405273,470 117.5,443.640527 117.5,411.25 C117.5,378.859473 91.1405273,352.5 58.75,352.5 Z" id="Shape"></path>
            <path d="M235,0 C202.609473,0 176.25,26.3594727 176.25,58.75 C176.25,91.1405273 202.609473,117.5 235,117.5 C267.390527,117.5 293.75,91.1405273 293.75,58.75 C293.75,26.3594727 267.390527,0 235,0 Z" id="Shape"></path>
            <path d="M235,176.25 C202.609473,176.25 176.25,202.609473 176.25,235 C176.25,267.390527 202.609473,293.75 235,293.75 C267.390527,293.75 293.75,267.390527 293.75,235 C293.75,202.609473 267.390527,176.25 235,176.25 Z" id="Shape"></path>
            <path d="M235,352.5 C202.609473,352.5 176.25,378.859473 176.25,411.25 C176.25,443.640527 202.609473,470 235,470 C267.390527,470 293.75,443.640527 293.75,411.25 C293.75,378.859473 267.390527,352.5 235,352.5 Z" id="Shape"></path>
            <path d="M411.25,117.5 C443.640527,117.5 470,91.1405273 470,58.75 C470,26.3594727 443.640527,0 411.25,0 C378.859473,0 352.5,26.3594727 352.5,58.75 C352.5,91.1405273 378.859473,117.5 411.25,117.5 Z" id="Shape"></path>
            <path d="M411.25,176.25 C378.859473,176.25 352.5,202.609473 352.5,235 C352.5,267.390527 378.859473,293.75 411.25,293.75 C443.640527,293.75 470,267.390527 470,235 C470,202.609473 443.640527,176.25 411.25,176.25 Z" id="Shape"></path>
            <path d="M411.25,352.5 C378.859473,352.5 352.5,378.859473 352.5,411.25 C352.5,443.640527 378.859473,470 411.25,470 C443.640527,470 470,443.640527 470,411.25 C470,378.859473 443.640527,352.5 411.25,352.5 Z" id="Shape"></path>
        </g>
    </g>
</svg>
