<svg width="10" height="6" viewBox="0 0 10 6" fill="none" xmlns="http://www.w3.org/2000/svg">
    <path fill-rule="evenodd"
          d="M0.000287272 0.732051C0.00322649 0.774908 0.00287363 0.785818 0.0101692 0.828249C0.0266392 0.923669 0.0628016 1.01544 0.115931 1.09641C0.142779 1.13735 0.174018 1.17309 0.207348 1.20879L4.45765 5.4591C4.48907 5.48842 4.49622 5.49661 4.53054 5.52264C4.56908 5.55186 4.61063 5.57711 4.65433 5.5979C4.84528 5.68872 5.07186 5.68872 5.2628 5.5979C5.30651 5.57711 5.34805 5.55186 5.38659 5.52264C5.42088 5.49661 5.42807 5.48842 5.45945 5.4591L9.70975 1.20879C9.73908 1.17738 9.7473 1.17019 9.77329 1.1359C9.84162 1.04587 9.88773 0.939608 9.90696 0.82825C9.92064 0.748734 9.92064 0.667022 9.90696 0.587505C9.89599 0.523928 9.87629 0.461909 9.84859 0.403645C9.74336 0.182345 9.52508 0.0282721 9.28132 0.00319526C9.18498 -0.00668672 9.08687 0.00340744 8.99457 0.0326991C8.91767 0.0571031 8.8451 0.0946831 8.78085 0.14342C8.74653 0.169453 8.73937 0.177635 8.70795 0.206962L4.95855 3.95637L1.20914 0.206962L1.1738 0.173951C1.1405 0.146855 1.13275 0.139134 1.09676 0.115544C1.02932 0.0713058 0.954339 0.0387202 0.875992 0.0196291C0.813299 0.00436362 0.748553 -0.00229494 0.68409 -9.91089e-05C0.439166 0.00825984 0.21089 0.147103 0.0907834 0.360681C0.0512555 0.430988 0.0238764 0.508024 0.0101693 0.587505C0.00287364 0.629937 0.0032265 0.640846 0.000287274 0.683704C0.000287273 0.69982 0.000287272 0.715935 0.000287272 0.732051Z"
          fill="currentColor"/>
</svg>
