<svg viewBox="0 0 8 13" fill="none" xmlns="http://www.w3.org/2000/svg">
    <path fill-rule="evenodd" clip-rule="evenodd"
          d="M1.40493 0.500001C1.45787 0.503559 1.47135 0.50313 1.52376 0.51196C1.64164 0.531889 1.75501 0.575647 1.85503 0.639935C1.90561 0.672422 1.94976 0.710225 1.99386 0.750555L7.24439 5.89363C7.28062 5.93165 7.29072 5.94031 7.32288 5.98184C7.35898 6.02847 7.39018 6.07874 7.41586 6.13163C7.52805 6.36268 7.52805 6.63685 7.41586 6.8679C7.39018 6.92079 7.35898 6.97106 7.32288 7.01769C7.29072 7.05918 7.28062 7.06788 7.24439 7.10586L1.99386 12.2489C1.95505 12.2844 1.94617 12.2944 1.90382 12.3258C1.79259 12.4085 1.66133 12.4643 1.52377 12.4876C1.42554 12.5041 1.3246 12.5041 1.22637 12.4876C1.14783 12.4743 1.07121 12.4505 0.999238 12.4169C0.725861 12.2896 0.535529 12.0255 0.504551 11.7305C0.492344 11.6139 0.504813 11.4952 0.540998 11.3835C0.571145 11.2905 0.617568 11.2027 0.677774 11.1249C0.709934 11.0834 0.720041 11.0747 0.75627 11.0367L5.38802 6.49974L0.756269 1.96278L0.71549 1.92001C0.682018 1.87972 0.672479 1.87033 0.643339 1.82679C0.58869 1.74518 0.548436 1.65445 0.524852 1.55965C0.505994 1.48379 0.497768 1.40544 0.500481 1.32744C0.510807 1.03107 0.682324 0.754841 0.946163 0.609506C1.03302 0.561676 1.12818 0.528546 1.22637 0.51196C1.27878 0.503131 1.29226 0.503559 1.3452 0.500001C1.36511 0.500001 1.38502 0.500001 1.40493 0.500001Z"
          fill="currentColor"/>
</svg>
