<svg width="22" height="22" viewBox="0 0 22 22" fill="none" xmlns="http://www.w3.org/2000/svg">
    <g clip-path="url(#clip0)">
        <path
            d="M10.9993 21.9954C8.82342 21.9961 6.69613 21.3516 4.88658 20.1432C3.07703 18.9348 1.66651 17.2169 0.833454 15.2067C0.000396176 13.1966 -0.217776 10.9845 0.206534 8.85035C0.630844 6.71619 1.67857 4.75581 3.21719 3.21719C4.75581 1.67857 6.71619 0.630844 8.85035 0.206534C10.9845 -0.217776 13.1966 0.000396176 15.2067 0.833454C17.2169 1.66651 18.9348 3.07703 20.1432 4.88658C21.3516 6.69613 21.9961 8.82342 21.9954 10.9993C21.9911 13.9144 20.8313 16.7088 18.77 18.77C16.7088 20.8313 13.9144 21.9911 10.9993 21.9954ZM10.9993 1.59413C9.139 1.59334 7.32021 2.14428 5.77301 3.17726C4.2258 4.21024 3.01969 5.67886 2.30722 7.39737C1.59475 9.11587 1.40793 11.0071 1.77038 12.8318C2.13283 14.6565 3.02828 16.3327 4.34346 17.6484C5.65864 18.9642 7.33449 19.8603 9.15903 20.2236C10.9836 20.5868 12.8749 20.4008 14.5937 19.689C16.3125 18.9773 17.7816 17.7718 18.8152 16.225C19.8489 14.6783 20.4006 12.8597 20.4006 10.9993C20.3985 8.50627 19.4074 6.11585 17.6449 4.3526C15.8824 2.58935 13.4924 1.5973 10.9993 1.59413Z"
            fill="currentColor"/>
        <path
            d="M10.9999 8.52867C11.7047 8.52867 12.276 7.95736 12.276 7.25262C12.276 6.54787 11.7047 5.97656 10.9999 5.97656C10.2952 5.97656 9.72388 6.54787 9.72388 7.25262C9.72388 7.95736 10.2952 8.52867 10.9999 8.52867Z"
            fill="currentColor"/>
        <path d="M11.9846 9.50903H10.0071V16.0197H11.9846V9.50903Z" fill="currentColor"/>
    </g>
    <defs>
        <clipPath id="clip0">
            <rect width="22" height="22" fill="white"/>
        </clipPath>
    </defs>
</svg>
