<svg width="40" height="40" viewBox="0 0 40 40" fill="none" xmlns="http://www.w3.org/2000/svg">
    <path
        d="M25.4407 32.3286C25.4547 32.0122 25.3513 31.7018 25.1504 31.457C24.9495 31.2122 24.6652 31.0502 24.3521 31.0022C23.0273 30.8272 21.727 30.5052 20.4739 30.038C20.2463 29.9521 19.9989 29.933 19.7608 29.9829C19.5227 30.0328 19.3039 30.1497 19.1299 30.3197L17.5041 31.9419C17.3057 32.1394 17.0481 32.2666 16.7706 32.3039C16.4931 32.3412 16.211 32.2866 15.9675 32.1483C12.5659 30.2182 9.74837 27.4058 7.81218 24.0079C7.67416 23.7648 7.61978 23.4832 7.65741 23.2063C7.69503 22.9293 7.82258 22.6724 8.02044 22.475L9.63925 20.8581C9.81154 20.6841 9.9302 20.4643 9.98108 20.2248C10.032 19.9852 10.0129 19.7362 9.92626 19.5072C9.46106 18.2626 9.13816 16.9694 8.96373 15.6522C8.91937 15.3428 8.7634 15.0602 8.52519 14.8578C8.28698 14.6554 7.98297 14.5471 7.67042 14.5532H3.83426C3.65868 14.5538 3.48508 14.5904 3.32424 14.6608C3.1634 14.7312 3.01875 14.8339 2.89928 14.9626C2.77981 15.0912 2.68806 15.243 2.62973 15.4086C2.5714 15.5742 2.54774 15.75 2.56021 15.9252C2.95923 19.6734 4.23678 23.2747 6.29487 26.4472C8.16194 29.3781 10.6518 31.8617 13.5874 33.7215C16.7356 35.7603 20.3172 37.0344 24.0458 37.4417C24.2235 37.4576 24.4026 37.4361 24.5715 37.3788C24.7404 37.3214 24.8955 37.2294 25.0268 37.1087C25.1581 36.9879 25.2628 36.8411 25.334 36.6776C25.4053 36.5141 25.4416 36.3375 25.4407 36.1591V32.3268V32.3286ZM27.9993 36.1538C28.0015 36.6874 27.8921 37.2155 27.6781 37.7043C27.4641 38.1931 27.1503 38.6318 26.7567 38.9921C26.3592 39.3551 25.89 39.6308 25.3793 39.8014C24.8687 39.972 24.328 40.0337 23.7921 39.9826C19.6616 39.535 15.6933 38.1267 12.2049 35.8703C8.95901 33.8131 6.20578 31.0667 4.14053 27.8261C1.86759 24.3213 0.454287 20.3295 0.0156064 16.1754C-0.0323863 15.6456 0.0306016 15.1117 0.20055 14.6076C0.370499 14.1035 0.643676 13.6404 1.00265 13.2478C1.36232 12.8549 1.79978 12.5411 2.28726 12.3263C2.77473 12.1115 3.30156 12.0004 3.83426 12.0002H7.65817C9.58325 11.9827 11.2283 13.3913 11.4978 15.3074C11.6466 16.4361 11.9248 17.5473 12.3221 18.613C12.8506 20.0129 12.5129 21.5895 11.4541 22.6587L10.537 23.5739C12.0421 25.93 14.0443 27.9284 16.4033 29.429L17.3256 28.5086C17.8474 27.9937 18.5056 27.6389 19.2226 27.4861C19.9395 27.3332 20.6853 27.3887 21.3717 27.6459C22.4454 28.0457 23.5609 28.3227 24.6969 28.4718C25.6256 28.6014 26.4746 29.0669 27.0832 29.7802C27.6917 30.4935 28.0177 31.4051 27.9993 32.3426V36.1538Z"
        fill="currentColor"/>
    <path fill-rule="evenodd" clip-rule="evenodd"
          d="M34.6666 2.66667C33.1938 2.66667 31.9999 3.86057 31.9999 5.33333C31.9999 6.80609 33.1938 8 34.6666 8C36.1393 8 37.3333 6.80609 37.3333 5.33333C37.3333 3.86057 36.1393 2.66667 34.6666 2.66667ZM29.3333 5.33333C29.3333 2.38781 31.7211 0 34.6666 0C37.6121 0 39.9999 2.38781 39.9999 5.33333C39.9999 8.27885 37.6121 10.6667 34.6666 10.6667C31.7211 10.6667 29.3333 8.27885 29.3333 5.33333Z"
          fill="currentColor"/>
    <path fill-rule="evenodd" clip-rule="evenodd"
          d="M34.6666 14.6667C33.1938 14.6667 31.9999 15.8606 31.9999 17.3333C31.9999 18.8061 33.1938 20 34.6666 20C36.1393 20 37.3333 18.8061 37.3333 17.3333C37.3333 15.8606 36.1393 14.6667 34.6666 14.6667ZM29.3333 17.3333C29.3333 14.3878 31.7211 12 34.6666 12C37.6121 12 39.9999 14.3878 39.9999 17.3333C39.9999 20.2789 37.6121 22.6667 34.6666 22.6667C31.7211 22.6667 29.3333 20.2789 29.3333 17.3333Z"
          fill="currentColor"/>
    <path fill-rule="evenodd" clip-rule="evenodd"
          d="M34.6666 26.6667C33.1938 26.6667 31.9999 27.8606 31.9999 29.3333C31.9999 30.8061 33.1938 32 34.6666 32C36.1393 32 37.3333 30.8061 37.3333 29.3333C37.3333 27.8606 36.1393 26.6667 34.6666 26.6667ZM29.3333 29.3333C29.3333 26.3878 31.7211 24 34.6666 24C37.6121 24 39.9999 26.3878 39.9999 29.3333C39.9999 32.2788 37.6121 34.6667 34.6666 34.6667C31.7211 34.6667 29.3333 32.2788 29.3333 29.3333Z"
          fill="currentColor"/>
    <path fill-rule="evenodd" clip-rule="evenodd"
          d="M22.6666 14.6667C21.1938 14.6667 19.9999 15.8606 19.9999 17.3333C19.9999 18.8061 21.1938 20 22.6666 20C24.1393 20 25.3333 18.8061 25.3333 17.3333C25.3333 15.8606 24.1393 14.6667 22.6666 14.6667ZM17.3333 17.3333C17.3333 14.3878 19.7211 12 22.6666 12C25.6121 12 27.9999 14.3878 27.9999 17.3333C27.9999 20.2789 25.6121 22.6667 22.6666 22.6667C19.7211 22.6667 17.3333 20.2789 17.3333 17.3333Z"
          fill="currentColor"/>
    <path fill-rule="evenodd" clip-rule="evenodd"
          d="M22.6666 2.66667C21.1938 2.66667 19.9999 3.86057 19.9999 5.33333C19.9999 6.80609 21.1938 8 22.6666 8C24.1393 8 25.3333 6.80609 25.3333 5.33333C25.3333 3.86057 24.1393 2.66667 22.6666 2.66667ZM17.3333 5.33333C17.3333 2.38781 19.7211 0 22.6666 0C25.6121 0 27.9999 2.38781 27.9999 5.33333C27.9999 8.27885 25.6121 10.6667 22.6666 10.6667C19.7211 10.6667 17.3333 8.27885 17.3333 5.33333Z"
          fill="currentColor"/>
    <path fill-rule="evenodd" clip-rule="evenodd"
          d="M10.6666 2.66667C9.19383 2.66667 7.99992 3.86057 7.99992 5.33333C7.99992 6.80609 9.19383 8 10.6666 8C12.1393 8 13.3333 6.80609 13.3333 5.33333C13.3333 3.86057 12.1393 2.66667 10.6666 2.66667ZM5.33325 5.33333C5.33325 2.38781 7.72107 0 10.6666 0C13.6121 0 15.9999 2.38781 15.9999 5.33333C15.9999 8.27885 13.6121 10.6667 10.6666 10.6667C7.72107 10.6667 5.33325 8.27885 5.33325 5.33333Z"
          fill="currentColor"/>
</svg>
