<svg width="14" height="16" viewBox="0 0 14 16" fill="none" xmlns="http://www.w3.org/2000/svg">
    <path d="M13.2436 9.98519C13.2436 13.3018 10.5451 16 7.22877 16H5.09963C4.7468 16 4.46088 15.7141 4.46088 15.3613V15.1484C4.46088 14.7955 4.74677 14.5096 5.09963 14.5096H7.22877C9.72344 14.5096 11.7532 12.4799 11.7532 9.98519C11.7532 7.49052 9.72344 5.46075 7.22877 5.46075H3.30063L6.00594 8.16606C6.2965 8.45652 6.2965 8.92938 6.00594 9.21984C5.72399 9.50157 5.23331 9.50115 4.95199 9.21984L0.97478 5.24252C0.834036 5.10177 0.75647 4.91463 0.75647 4.71552C0.75647 4.51656 0.834036 4.32931 0.97478 4.18864L4.95221 0.211143C5.23352 -0.070381 5.72463 -0.070381 6.00598 0.211143C6.29654 0.501531 6.29654 0.974455 6.00598 1.26481L3.30067 3.97033H7.22877C10.5451 3.97033 13.2436 6.66867 13.2436 9.98519Z" fill="currentColor"/>
</svg>
