<svg viewBox="0 0 19 15" fill="none" xmlns="http://www.w3.org/2000/svg">
    <path
        d="M7.55459 8.64554L15.4273 0.760722C15.5327 0.657707 15.6743 0.6 15.8217 0.6C15.9692 0.6 16.1108 0.657763 16.2162 0.760868C16.2167 0.761313 16.2171 0.761759 16.2176 0.762206L17.8445 2.38917C17.8449 2.3895 17.8452 2.38982 17.8455 2.39015C17.9488 2.49514 18.007 2.63639 18.0076 2.78371C18.0074 2.92703 17.9478 3.07376 17.8463 3.17617C17.8461 3.17636 17.8459 3.17656 17.8457 3.17676L7.52468 13.4978C7.52423 13.4982 7.52379 13.4987 7.52334 13.4991C7.41793 13.6022 7.2763 13.66 7.12879 13.66C6.98127 13.66 6.83965 13.6022 6.73424 13.4991L0.760909 7.52457C0.657777 7.41915 0.6 7.27752 0.6 7.13C0.6 6.98248 0.657772 6.84086 0.760894 6.73545L2.39065 5.1057C2.49602 5.00284 2.63745 4.94523 2.78476 4.94523C2.93191 4.94523 3.07321 5.00272 3.17854 5.10537L6.70494 8.64507L7.12953 9.07126L7.55459 8.64554Z"
        stroke="currentColor" stroke-width="1.2"/>
</svg>
