<svg width="16" height="16" viewBox="0 0 16 16" fill="none" xmlns="http://www.w3.org/2000/svg">
    <path
        d="M14.0005 2.49915H4.00404C3.45196 2.49915 3.00439 2.94671 3.00439 3.49879C3.00439 4.05088 3.45196 4.49844 4.00404 4.49844H14.0005C14.5526 4.49844 15.0002 4.05088 15.0002 3.49879C15.0002 2.94671 14.5526 2.49915 14.0005 2.49915Z"
        fill="currentColor"/>
    <path
        d="M2.0049 3.4988C2.00377 3.23411 1.89772 2.98067 1.71 2.79404C1.32011 2.40646 0.69039 2.40646 0.300496 2.79404C0.112749 2.98067 0.00669296 3.23411 0.00559959 3.4988C-0.00186653 3.56355 -0.00186653 3.62897 0.00559959 3.69373C0.0169081 3.75886 0.0353391 3.82256 0.0605803 3.88366C0.0874146 3.94286 0.119185 3.99971 0.155547 4.0536C0.19144 4.10964 0.233332 4.16159 0.280503 4.20855C0.325987 4.25384 0.376251 4.29408 0.43045 4.3285C0.483088 4.36683 0.540162 4.39873 0.60039 4.42347C0.666648 4.45783 0.73728 4.48308 0.810317 4.49844C0.875075 4.50569 0.94049 4.50569 1.00525 4.49844C1.26922 4.49866 1.52257 4.39445 1.71 4.20855C1.75717 4.16159 1.79906 4.10964 1.83496 4.0536C1.87132 3.99971 1.90309 3.94286 1.92992 3.88366C1.96182 3.82331 1.98697 3.75961 2.0049 3.69373C2.01236 3.62897 2.01236 3.56355 2.0049 3.4988Z"
        fill="currentColor"/>
    <path
        d="M2.00467 7.99715C2.0121 7.93239 2.0121 7.86697 2.00467 7.80222C1.98739 7.73771 1.96221 7.6756 1.92969 7.61728C1.90395 7.55596 1.87212 7.49736 1.83473 7.44234C1.80008 7.38693 1.75804 7.33647 1.70977 7.2924C1.31988 6.90481 0.690161 6.90481 0.300267 7.2924C0.112521 7.47902 0.00646446 7.73246 0.00537109 7.99715C0.00730791 8.12888 0.0327052 8.25918 0.0803447 8.38201C0.105398 8.44115 0.135513 8.498 0.170313 8.55195C0.208331 8.60628 0.251878 8.65654 0.300267 8.7019C0.344439 8.75007 0.394859 8.79212 0.450215 8.82686C0.502852 8.86522 0.559895 8.89711 0.620155 8.92182C0.681102 8.94747 0.744861 8.96593 0.810088 8.9768C0.874034 8.99114 0.93948 8.99786 1.00502 8.9968C1.06978 9.00426 1.13519 9.00426 1.19995 8.9968C1.26355 8.98589 1.32566 8.96743 1.38489 8.94182C1.44677 8.91726 1.5055 8.88537 1.55982 8.84685C1.61518 8.81211 1.6656 8.77006 1.70977 8.72189C1.75794 8.67772 1.79999 8.6273 1.83473 8.57195C1.87315 8.51934 1.90505 8.4623 1.92969 8.40201C1.96384 8.33565 1.98905 8.26505 2.00467 8.19208C2.01235 8.12732 2.01235 8.06191 2.00467 7.99715Z"
        fill="currentColor"/>
    <path
        d="M2.00473 12.4956C2.01213 12.4308 2.01213 12.3654 2.00473 12.3006C1.98745 12.2345 1.96228 12.1708 1.92976 12.1107C1.90292 12.0515 1.87115 11.9946 1.83479 11.9408C1.80005 11.8854 1.758 11.835 1.70983 11.7908C1.31994 11.4032 0.690223 11.4032 0.300329 11.7908C0.252158 11.835 0.21011 11.8854 0.175373 11.9408C0.13901 11.9946 0.10724 12.0515 0.080406 12.1107C0.0544776 12.1715 0.0360154 12.2353 0.0254253 12.3006C0.0113365 12.3646 0.0046514 12.43 0.00543237 12.4956C0.00655698 12.7602 0.112613 13.0137 0.300329 13.2003C0.344501 13.2485 0.39492 13.2905 0.450276 13.3253C0.502914 13.3636 0.559956 13.3955 0.620216 13.4202C0.681164 13.4459 0.744922 13.4643 0.810149 13.4752C0.874096 13.4896 0.939541 13.4963 1.00508 13.4952C1.06984 13.5027 1.13525 13.5027 1.20001 13.4952C1.26361 13.4843 1.32572 13.4658 1.38495 13.4402C1.44683 13.4157 1.50556 13.3838 1.55989 13.3453C1.61524 13.3105 1.66566 13.2685 1.70983 13.2203C1.758 13.1761 1.80005 13.1257 1.83479 13.0704C1.87324 13.0178 1.90514 12.9607 1.92976 12.9004C1.96387 12.834 1.98908 12.7635 2.00473 12.6905C2.01241 12.6257 2.01241 12.5603 2.00473 12.4956Z"
        fill="currentColor"/>
    <path
        d="M15.0002 6.99756H4.00404C3.45196 6.99756 3.00439 7.44512 3.00439 7.99721C3.00439 8.5493 3.45196 8.99686 4.00404 8.99686H15.0002C15.5523 8.99686 15.9998 8.5493 15.9998 7.99721C15.9998 7.44512 15.5523 6.99756 15.0002 6.99756Z"
        fill="currentColor"/>
    <path
        d="M10.5018 11.496H4.00404C3.45196 11.496 3.00439 11.9435 3.00439 12.4956C3.00439 13.0477 3.45196 13.4953 4.00404 13.4953H10.5018C11.0538 13.4953 11.5014 13.0477 11.5014 12.4956C11.5014 11.9435 11.0538 11.496 10.5018 11.496Z"
        fill="currentColor"/>
</svg>
