<svg width="40" height="40" viewBox="0 0 40 40" fill="none" xmlns="http://www.w3.org/2000/svg">
    <path
        d="M34.1422 5.85781C30.3646 2.08039 25.3422 0 20 0C14.6578 0 9.63539 2.08039 5.85781 5.85781C2.08039 9.63539 0 14.6578 0 20C0 25.3422 2.08039 30.3646 5.85781 34.1422C9.63539 37.9196 14.6578 40 20 40C25.3422 40 30.3646 37.9196 34.1422 34.1422C37.9196 30.3646 40 25.3422 40 20C40 14.6578 37.9196 9.63539 34.1422 5.85781ZM10.7984 25.3125C10.4748 24.752 9.7582 24.56 9.19766 24.8836L8.23844 25.4374C7.6157 24.0983 7.2225 22.6561 7.08609 21.1719H8.20312C8.85031 21.1719 9.375 20.6472 9.375 20C9.375 19.3528 8.85031 18.8281 8.20312 18.8281H7.08477C7.22094 17.3155 7.61766 15.877 8.23008 14.5578L9.19766 15.1164C9.38219 15.223 9.58367 15.2736 9.7825 15.2736C10.1875 15.2736 10.5814 15.0634 10.7984 14.6875C11.122 14.127 10.93 13.4103 10.3695 13.0867L9.40477 12.5297C10.2609 11.319 11.319 10.2609 12.5297 9.40477L13.0867 10.3695C13.3038 10.7455 13.6977 10.9556 14.1027 10.9556C14.3014 10.9556 14.503 10.905 14.6875 10.7984C15.248 10.4748 15.44 9.75813 15.1164 9.19766L14.5578 8.23008C15.877 7.61766 17.3155 7.22094 18.8281 7.08477V8.20312C18.8281 8.85031 19.3528 9.375 20 9.375C20.6472 9.375 21.1719 8.85031 21.1719 8.20312V7.08477C22.6845 7.22094 24.123 7.61766 25.4422 8.23008L24.8836 9.19766C24.56 9.75813 24.752 10.4748 25.3125 10.7984C25.497 10.905 25.6985 10.9556 25.8973 10.9556C26.3023 10.9556 26.6962 10.7455 26.9133 10.3695L27.4703 9.40477C28.681 10.2609 29.7391 11.319 30.5952 12.5297L29.6305 13.0867C29.07 13.4103 28.878 14.127 29.2016 14.6875C29.4186 15.0635 29.8125 15.2736 30.2175 15.2736C30.4163 15.2736 30.6178 15.223 30.8023 15.1164L31.7699 14.5578C32.3823 15.877 32.7791 17.3155 32.9152 18.8281H31.7969C31.1497 18.8281 30.625 19.3528 30.625 20C30.625 20.6472 31.1497 21.1719 31.7969 21.1719H32.9139C32.7776 22.6561 32.3843 24.0983 31.7616 25.4374L30.8023 24.8836C30.2419 24.5598 29.5252 24.752 29.2016 25.3125C28.878 25.873 29.07 26.5897 29.6305 26.9133L30.5862 27.4651C30.2366 27.9595 29.8515 28.4315 29.4324 28.8766C26.9364 26.5102 23.5833 25.1042 20.0001 25.1042C16.4169 25.1042 13.0637 26.5102 10.5677 28.8766C10.1486 28.4315 9.76359 27.9595 9.41398 27.4651L10.3697 26.9133C10.93 26.5897 11.122 25.873 10.7984 25.3125ZM9.59227 34.2532C11.3956 30.1502 15.477 27.448 20 27.448C24.523 27.448 28.6043 30.1502 30.4077 34.2532C27.4872 36.3916 23.8888 37.6562 20 37.6562C16.1112 37.6562 12.5128 36.3916 9.59227 34.2532ZM32.2622 32.6907C31.898 31.963 31.4727 31.2759 30.9943 30.6343C33.7506 27.7854 35.3125 23.9695 35.3125 20C35.3125 11.5566 28.4434 4.6875 20 4.6875C11.5566 4.6875 4.6875 11.5566 4.6875 20C4.6875 23.9695 6.24938 27.7854 9.0057 30.6343C8.52727 31.2759 8.10203 31.963 7.73781 32.6907C4.41406 29.4781 2.34375 24.9766 2.34375 20C2.34375 10.2643 10.2643 2.34375 20 2.34375C29.7357 2.34375 37.6562 10.2643 37.6562 20C37.6562 24.9766 35.5859 29.4781 32.2622 32.6907Z"
        fill="currentColor"/>
    <path
        d="M20.181 23.5921C20.4281 23.5921 20.6772 23.5678 20.9248 23.5184C22.1656 23.2702 23.194 22.4234 23.6759 21.2534L26.0556 15.4741C26.2357 15.0366 26.1352 14.5338 25.8006 14.1992C25.4661 13.8647 24.9633 13.7642 24.5257 13.9442L18.7465 16.3239C17.5764 16.8057 16.7297 17.8342 16.4815 19.0749C16.2333 20.3158 16.6194 21.5908 17.5142 22.4856C18.2304 23.2019 19.1901 23.5921 20.181 23.5921ZM18.7798 19.5347C18.8754 19.057 19.1885 18.6767 19.6389 18.4912L22.8175 17.1824L21.5087 20.3609C21.3232 20.8114 20.9429 21.1245 20.4652 21.2201C19.9879 21.3157 19.5161 21.1729 19.1715 20.8284C18.827 20.4839 18.6843 20.0124 18.7798 19.5347Z"
        fill="currentColor"/>
</svg>
