<svg width="40" height="40" viewBox="0 0 40 40" fill="none" xmlns="http://www.w3.org/2000/svg">
    <path
        d="M33.9708 2.35294H6.02941C4.00313 2.35294 2.35303 4.00142 2.35303 6.02932V33.9707C2.35303 35.9986 4.00313 37.6471 6.02941 37.6471H33.9708C35.997 37.6471 37.6471 35.9986 37.6471 33.9707V6.02932C37.6471 4.00142 35.997 2.35294 33.9708 2.35294V2.35294ZM34.7059 6.02932V18.5295H21.4706V5.2942H33.9708C34.3766 5.2942 34.7059 5.62487 34.7059 6.02932ZM6.02941 5.2942H18.5296V18.5295H5.29429V6.02932C5.29429 5.62487 5.62361 5.2942 6.02941 5.2942ZM5.29429 33.9707V21.4705H18.5296V34.7058H6.02941C5.62361 34.7058 5.29429 34.3751 5.29429 33.9707ZM33.9708 34.7058H21.4706V21.4705H34.7059V33.9707C34.7059 34.3751 34.3766 34.7058 33.9708 34.7058Z"
        fill="currentColor"/>
</svg>
