<svg width="64" height="48" viewBox="0 0 64 48" fill="none" xmlns="http://www.w3.org/2000/svg">
    <rect x="0.800488" y="0.8" width="62.4" height="46.4" rx="0.8" stroke="currentColor" stroke-width="1.6"/>
    <rect x="48.1672" y="19" width="9.68627" height="4.75" rx="0.633333" fill="#E0E2E6"/>
    <rect x="48.1672" y="12" width="9.68627" height="4.75" rx="0.633333" fill="currentColor"/>
    <rect x="48.1672" y="25.333" width="9.68627" height="4.75" rx="0.633333" fill="#E0E2E6"/>
    <rect x="48.1672" y="31.6665" width="9.68627" height="4.75" rx="0.633333" fill="#E0E2E6"/>
    <g clip-path="url(#clip0)">
        <mask id="path-6-inside-1" fill="white">
            <path
                d="M32.6156 38.2307C32.784 38.5694 33.1959 38.7087 33.527 38.5257C35.891 37.2193 37.8837 35.3257 39.3098 33.0229C40.7358 30.72 41.543 28.0923 41.659 25.3938C41.6753 25.0159 41.367 24.7093 40.9888 24.7094L27 24.7154C26.4917 24.7156 26.1608 25.25 26.3871 25.7051L32.6156 38.2307Z"/>
        </mask>
        <path
            d="M32.6156 38.2307C32.784 38.5694 33.1959 38.7087 33.527 38.5257C35.891 37.2193 37.8837 35.3257 39.3098 33.0229C40.7358 30.72 41.543 28.0923 41.659 25.3938C41.6753 25.0159 41.367 24.7093 40.9888 24.7094L27 24.7154C26.4917 24.7156 26.1608 25.25 26.3871 25.7051L32.6156 38.2307Z"
            fill="white" stroke="currentColor" stroke-width="2.19144" mask="url(#path-6-inside-1)"/>
        <mask id="path-7-inside-2" fill="white">
            <path
                d="M23.6945 8.69509C23.6931 8.3011 23.3724 7.98126 22.9788 7.99926C20.6772 8.10453 18.4186 8.67914 16.3428 9.69061C14.053 10.8064 12.0448 12.4249 10.4681 14.4254C8.89131 16.4258 7.78675 18.7566 7.23684 21.2437C6.68692 23.7308 6.70584 26.31 7.29219 28.7887C7.87854 31.2675 9.01717 33.5818 10.6231 35.5589C12.229 37.5361 14.2608 39.1249 16.5667 40.207C18.8726 41.289 21.3931 41.8363 23.9401 41.8079C26.2491 41.7821 28.5257 41.2839 30.6306 40.3468C30.9906 40.1866 31.134 39.757 30.9587 39.4041L23.8255 25.044C23.7769 24.9462 23.7514 24.8384 23.751 24.7292L23.6945 8.69509Z"/>
        </mask>
        <path
            d="M23.6945 8.69509C23.6931 8.3011 23.3724 7.98126 22.9788 7.99926C20.6772 8.10453 18.4186 8.67914 16.3428 9.69061C14.053 10.8064 12.0448 12.4249 10.4681 14.4254C8.89131 16.4258 7.78675 18.7566 7.23684 21.2437C6.68692 23.7308 6.70584 26.31 7.29219 28.7887C7.87854 31.2675 9.01717 33.5818 10.6231 35.5589C12.229 37.5361 14.2608 39.1249 16.5667 40.207C18.8726 41.289 21.3931 41.8363 23.9401 41.8079C26.2491 41.7821 28.5257 41.2839 30.6306 40.3468C30.9906 40.1866 31.134 39.757 30.9587 39.4041L23.8255 25.044C23.7769 24.9462 23.7514 24.8384 23.751 24.7292L23.6945 8.69509Z"
            fill="white" stroke="currentColor" stroke-width="2.28284" mask="url(#path-7-inside-2)"/>
        <path
            d="M43.5255 22.6997C43.5277 22.7629 43.475 22.8343 43.3818 22.8343H26.3465C26.2595 22.8343 26.189 22.7638 26.189 22.6768V5.64155C26.189 5.54714 26.2604 5.49817 26.319 5.50068C28.472 5.593 30.911 6.06515 32.7948 6.84544C34.9201 7.72579 36.8513 9.01613 38.4779 10.6428C40.1046 12.2695 41.395 14.2006 42.2753 16.326C43.0515 18.1998 43.4489 20.5553 43.5255 22.6997Z"
            fill="white" stroke="currentColor" stroke-width="1.26027"/>
    </g>
    <defs>
        <clipPath id="clip0">
            <rect width="38" height="38" fill="white" transform="translate(6.00049 5)"/>
        </clipPath>
    </defs>
</svg>
