<svg width="64" height="48" viewBox="0 0 64 48" fill="none" xmlns="http://www.w3.org/2000/svg">
    <rect x="0.800488" y="0.8" width="62.4" height="46.4" rx="0.8" stroke="currentColor" stroke-width="1.6"/>
    <rect x="6.00049" y="9.00012" width="52" height="6" rx="0.8" fill="currentColor"/>
    <rect x="6.00049" y="17.0001" width="12.2353" height="6" rx="0.8" fill="#E0E2E6"/>
    <rect x="19.2554" y="17.0001" width="12.2353" height="6" rx="0.8" fill="#E0E2E6"/>
    <rect x="32.5103" y="17.0001" width="12.2353" height="6" rx="0.8" fill="#E0E2E6"/>
    <rect x="45.7651" y="17.0001" width="12.2353" height="6" rx="0.8" fill="#E0E2E6"/>
    <rect x="6.00049" y="25.0001" width="12.2353" height="6" rx="0.8" fill="#E0E2E6"/>
    <rect x="19.2554" y="25.0001" width="12.2353" height="6" rx="0.8" fill="#E0E2E6"/>
    <rect x="32.5103" y="25.0001" width="12.2353" height="6" rx="0.8" fill="#E0E2E6"/>
    <rect x="45.7651" y="25.0001" width="12.2353" height="6" rx="0.8" fill="#E0E2E6"/>
    <rect x="6.00049" y="33.0001" width="12.2353" height="6" rx="0.8" fill="#E0E2E6"/>
    <rect x="19.2554" y="33.0001" width="12.2353" height="6" rx="0.8" fill="#E0E2E6"/>
    <rect x="32.5103" y="33.0001" width="12.2353" height="6" rx="0.8" fill="#E0E2E6"/>
    <rect x="45.7651" y="33.0001" width="12.2353" height="6" rx="0.8" fill="#E0E2E6"/>
</svg>
