<svg width="64" height="48" viewBox="0 0 64 48" fill="none" xmlns="http://www.w3.org/2000/svg">
    <rect x="0.800977" y="0.8" width="62.4" height="46.4" rx="0.8" stroke="currentColor" stroke-width="1.6"/>
    <circle cx="57.1012" cy="5.1" r="1.1" fill="#9EA6B3"/>
    <circle cx="57.101" cy="9.69998" r="1.1" fill="#9EA6B3"/>
    <circle cx="57.101" cy="14.3" r="1.1" fill="#9EA6B3"/>
    <rect x="6.00098" y="6.00012" width="21" height="4" rx="0.8" fill="currentColor"/>
    <rect x="6.00098" y="12.0001" width="34" height="4" rx="0.8" fill="#E0E2E6"/>
    <path
        d="M16.5535 29.941L16.8793 27.95H14.9787L15.4313 25.2349H13.3678L12.9153 27.95H11.2501L11.7026 25.2349H9.63914L9.18664 27.95H7.2499L6.92409 29.941H8.86083L8.60742 31.389H6.68879L6.36298 33.3801H8.28162L7.82911 36.0951H9.89255L10.3451 33.3801H12.0103L11.5578 36.0951H13.6212L14.0737 33.3801H16.0105L16.3182 31.389H14.3995L14.6529 29.941H16.5535ZM12.3361 31.389H10.6709L10.9243 29.941H12.5895L12.3361 31.389ZM22.9446 37.2535C26.2207 37.2535 28.1032 34.5747 28.1032 30.665C28.1032 26.7553 26.2207 24.0765 22.9446 24.0765C19.6684 24.0765 17.786 26.7553 17.786 30.665C17.786 34.5747 19.6684 37.2535 22.9446 37.2535ZM22.9446 34.4299C21.4242 34.4299 20.682 33.1086 20.682 30.665C20.682 28.2215 21.4242 26.9001 22.9446 26.9001C24.465 26.9001 25.2071 28.2215 25.2071 30.665C25.2071 33.1086 24.465 34.4299 22.9446 34.4299ZM34.3457 37.2535C37.6218 37.2535 39.5043 34.5747 39.5043 30.665C39.5043 26.7553 37.6218 24.0765 34.3457 24.0765C31.0695 24.0765 29.1871 26.7553 29.1871 30.665C29.1871 34.5747 31.0695 37.2535 34.3457 37.2535ZM34.3457 34.4299C32.8252 34.4299 32.0831 33.1086 32.0831 30.665C32.0831 28.2215 32.8252 26.9001 34.3457 26.9001C35.8661 26.9001 36.6082 28.2215 36.6082 30.665C36.6082 33.1086 35.8661 34.4299 34.3457 34.4299ZM45.7468 37.2535C49.0229 37.2535 50.9054 34.5747 50.9054 30.665C50.9054 26.7553 49.0229 24.0765 45.7468 24.0765C42.4706 24.0765 40.5882 26.7553 40.5882 30.665C40.5882 34.5747 42.4706 37.2535 45.7468 37.2535ZM45.7468 34.4299C44.2263 34.4299 43.4842 33.1086 43.4842 30.665C43.4842 28.2215 44.2263 26.9001 45.7468 26.9001C47.2672 26.9001 48.0093 28.2215 48.0093 30.665C48.0093 33.1086 47.2672 34.4299 45.7468 34.4299Z"
        fill="#BEC2C9"/>
</svg>
