<svg width="24" height="24" viewBox="0 0 24 24" fill="none" xmlns="http://www.w3.org/2000/svg">
    <path d="M0.70922 6.24343C0.521123 6.24343 0.34073 6.16889 0.207726 6.03619C0.0747212 5.9035 0 5.72354 0 5.53588L0 0.707551C0 0.519897 0.0747212 0.339929 0.207726 0.207237C0.34073 0.0745454 0.521123 0 0.70922 0L5.54894 0C5.73703 0 5.91743 0.0745454 6.05043 0.207237C6.18343 0.339929 6.25816 0.519897 6.25816 0.707551C6.25816 0.895205 6.18343 1.07517 6.05043 1.20787C5.91743 1.34056 5.73703 1.4151 5.54894 1.4151H1.41844V5.53588C1.41844 5.72354 1.34372 5.9035 1.21071 6.03619C1.07771 6.16889 0.897317 6.24343 0.70922 6.24343Z"
          fill="currentColor"/>
    <path d="M0.70922 6.24343C0.521123 6.24343 0.34073 6.16889 0.207726 6.03619C0.0747212 5.9035 0 5.72354 0 5.53588L0 0.707551C0 0.519897 0.0747212 0.339929 0.207726 0.207237C0.34073 0.0745454 0.521123 0 0.70922 0L5.54894 0C5.73703 0 5.91743 0.0745454 6.05043 0.207237C6.18343 0.339929 6.25816 0.519897 6.25816 0.707551C6.25816 0.895205 6.18343 1.07517 6.05043 1.20787C5.91743 1.34056 5.73703 1.4151 5.54894 1.4151H1.41844V5.53588C1.41844 5.72354 1.34372 5.9035 1.21071 6.03619C1.07771 6.16889 0.897317 6.24343 0.70922 6.24343Z"
          fill="currentColor"/>
    <path d="M5.54894 23.9432H0.70922C0.521123 23.9432 0.34073 23.8687 0.207726 23.736C0.0747212 23.6033 0 23.4233 0 23.2357L0 18.396C0 18.2084 0.0747212 18.0284 0.207726 17.8957C0.34073 17.763 0.521123 17.6885 0.70922 17.6885C0.897317 17.6885 1.07771 17.763 1.21071 17.8957C1.34372 18.0284 1.41844 18.2084 1.41844 18.396V22.5281H5.54894C5.73703 22.5281 5.91743 22.6027 6.05043 22.7354C6.18343 22.8681 6.25816 23.048 6.25816 23.2357C6.25816 23.4233 6.18343 23.6033 6.05043 23.736C5.91743 23.8687 5.73703 23.9432 5.54894 23.9432Z"
          fill="currentColor"/>
    <path d="M5.54894 23.9432H0.70922C0.521123 23.9432 0.34073 23.8687 0.207726 23.736C0.0747212 23.6033 0 23.4233 0 23.2357L0 18.396C0 18.2084 0.0747212 18.0284 0.207726 17.8957C0.34073 17.763 0.521123 17.6885 0.70922 17.6885C0.897317 17.6885 1.07771 17.763 1.21071 17.8957C1.34372 18.0284 1.41844 18.2084 1.41844 18.396V22.5281H5.54894C5.73703 22.5281 5.91743 22.6027 6.05043 22.7354C6.18343 22.8681 6.25816 23.048 6.25816 23.2357C6.25816 23.4233 6.18343 23.6033 6.05043 23.736C5.91743 23.8687 5.73703 23.9432 5.54894 23.9432Z"
          fill="currentColor"/>
    <path d="M23.2908 23.9432H18.4397C18.2516 23.9432 18.0712 23.8687 17.9382 23.736C17.8052 23.6033 17.7305 23.4233 17.7305 23.2357C17.7305 23.048 17.8052 22.8681 17.9382 22.7354C18.0712 22.6027 18.2516 22.5281 18.4397 22.5281H22.5815V18.396C22.5815 18.3031 22.5999 18.2111 22.6355 18.1253C22.6712 18.0394 22.7234 17.9614 22.7893 17.8957C22.8551 17.83 22.9333 17.7779 23.0193 17.7423C23.1054 17.7068 23.1976 17.6885 23.2908 17.6885C23.3839 17.6885 23.4761 17.7068 23.5622 17.7423C23.6482 17.7779 23.7264 17.83 23.7922 17.8957C23.8581 17.9614 23.9103 18.0394 23.946 18.1253C23.9816 18.2111 24 18.3031 24 18.396V23.2357C24 23.4233 23.9253 23.6033 23.7922 23.736C23.6592 23.8687 23.4788 23.9432 23.2908 23.9432Z"
          fill="currentColor"/>
    <path d="M23.2908 6.24343C23.1027 6.24343 22.9223 6.16889 22.7893 6.03619C22.6563 5.9035 22.5815 5.72354 22.5815 5.53588V1.4151H18.4397C18.2516 1.4151 18.0712 1.34056 17.9382 1.20787C17.8052 1.07517 17.7305 0.895205 17.7305 0.707551C17.7305 0.519897 17.8052 0.339929 17.9382 0.207237C18.0712 0.0745454 18.2516 0 18.4397 0L23.2908 0C23.4788 0 23.6592 0.0745454 23.7922 0.207237C23.9253 0.339929 24 0.519897 24 0.707551V5.53588C24 5.72354 23.9253 5.9035 23.7922 6.03619C23.6592 6.16889 23.4788 6.24343 23.2908 6.24343Z"
          fill="currentColor"/>
    <path d="M7.16026 7.85122C7.06732 7.8508 6.97537 7.83208 6.88969 7.79614C6.80401 7.76021 6.72629 7.70775 6.66097 7.64179L3.4326 4.42668C3.29942 4.29382 3.22461 4.11362 3.22461 3.92573C3.22461 3.73784 3.29942 3.55764 3.4326 3.42478C3.56577 3.29192 3.74639 3.21729 3.93473 3.21729C4.12306 3.21729 4.30368 3.29192 4.43685 3.42478L7.65955 6.64556C7.75899 6.74451 7.82674 6.8707 7.85421 7.00812C7.88168 7.14554 7.86764 7.288 7.81385 7.41744C7.76007 7.54689 7.66897 7.65748 7.55211 7.73521C7.43524 7.81294 7.29788 7.8543 7.15742 7.85405L7.16026 7.85122Z"
          fill="currentColor"/>
    <path d="M16.8399 7.85122C16.6994 7.85147 16.5621 7.81011 16.4452 7.73238C16.3283 7.65465 16.2372 7.54406 16.1835 7.41461C16.1297 7.28517 16.1156 7.14271 16.1431 7.00529C16.1706 6.86787 16.2383 6.74168 16.3378 6.64273L19.5746 3.42478C19.7078 3.29192 19.8884 3.21729 20.0768 3.21729C20.2651 3.21729 20.4457 3.29192 20.5789 3.42478C20.7121 3.55764 20.7869 3.73784 20.7869 3.92573C20.7869 4.11362 20.7121 4.29382 20.5789 4.42668L17.342 7.64179C17.2764 7.70809 17.1982 7.76074 17.112 7.79669C17.0258 7.83264 16.9333 7.85117 16.8399 7.85122Z"
          fill="currentColor"/>
    <path d="M20.0655 20.7257C19.8812 20.7234 19.705 20.6493 19.5747 20.5191L16.3379 17.3012C16.2047 17.1683 16.1299 16.9881 16.1299 16.8002C16.1299 16.6124 16.2047 16.4322 16.3379 16.2993C16.471 16.1664 16.6517 16.0918 16.84 16.0918C17.0283 16.0918 17.209 16.1664 17.3421 16.2993L20.5677 19.5286C20.6671 19.6275 20.7348 19.7537 20.7623 19.8911C20.7898 20.0285 20.7757 20.171 20.722 20.3004C20.6682 20.4299 20.5771 20.5405 20.4602 20.6182C20.3433 20.6959 20.206 20.7373 20.0655 20.7371V20.7257Z"
          fill="currentColor"/>
    <path d="M3.93478 20.7253C3.79663 20.7234 3.66204 20.6813 3.54755 20.6041C3.43306 20.5269 3.34365 20.4181 3.29032 20.2909C3.23699 20.1638 3.22204 20.0238 3.24733 19.8883C3.27262 19.7528 3.33703 19.6276 3.43265 19.5281L6.66102 16.2989C6.79648 16.1787 6.97289 16.1149 7.15405 16.1205C7.3352 16.126 7.50734 16.2006 7.63514 16.3288C7.76293 16.457 7.83667 16.6291 7.84122 16.8099C7.84577 16.9907 7.78078 17.1663 7.6596 17.3007L4.43691 20.5187C4.37102 20.5845 4.29272 20.6366 4.20654 20.6721C4.12036 20.7075 4.028 20.7256 3.93478 20.7253Z"
          fill="currentColor"/>
</svg>
