<svg width="18" height="18" viewBox="0 0 18 18" fill="none" xmlns="http://www.w3.org/2000/svg">
    <rect x="0.5" y="0.5" width="17" height="17" rx="3.5" stroke="currentColor"/>
    <g clip-path="url(#clip0)">
        <path d="M7.2732 4.50035C7.36725 4.50035 7.45744 4.53763 7.52394 4.60397C7.59045 4.67032 7.62781 4.7603 7.62781 4.85413V7.26829C7.62781 7.36212 7.59045 7.45211 7.52394 7.51845C7.45744 7.5848 7.36725 7.62207 7.2732 7.62207H4.85334C4.75929 7.62207 4.66909 7.5848 4.60259 7.51845C4.53609 7.45211 4.49873 7.36212 4.49873 7.26829C4.49873 7.17447 4.53609 7.08448 4.60259 7.01814C4.66909 6.95179 4.75929 6.91452 4.85334 6.91452H6.91859V4.85413C6.91859 4.7603 6.95595 4.67032 7.02245 4.60397C7.08895 4.53763 7.17915 4.50035 7.2732 4.50035Z"
              fill="currentColor"/>
        <path d="M4.85334 10.4996H7.2732C7.36725 10.4996 7.45744 10.5368 7.52394 10.6032C7.59045 10.6695 7.62781 10.7595 7.62781 10.8534V13.2732C7.62781 13.367 7.59045 13.457 7.52394 13.5233C7.45744 13.5897 7.36725 13.627 7.2732 13.627C7.17915 13.627 7.08895 13.5897 7.02245 13.5233C6.95595 13.457 6.91859 13.367 6.91859 13.2732V11.2071H4.85334C4.75929 11.2071 4.66909 11.1699 4.60259 11.1035C4.53609 11.0372 4.49873 10.9472 4.49873 10.8534C4.49873 10.7595 4.53609 10.6695 4.60259 10.6032C4.66909 10.5368 4.75929 10.4996 4.85334 10.4996Z"
              fill="currentColor"/>
        <path d="M10.8532 10.4996H13.2787C13.3727 10.4996 13.4629 10.5368 13.5294 10.6032C13.5959 10.6695 13.6333 10.7595 13.6333 10.8534C13.6333 10.9472 13.5959 11.0372 13.5294 11.1035C13.4629 11.1699 13.3727 11.2071 13.2787 11.2071H11.2078V13.2732C11.2078 13.3196 11.1986 13.3656 11.1808 13.4086C11.163 13.4515 11.1368 13.4905 11.1039 13.5233C11.071 13.5562 11.0319 13.5822 10.9889 13.6C10.9458 13.6178 10.8997 13.627 10.8532 13.627C10.8066 13.627 10.7605 13.6178 10.7175 13.6C10.6744 13.5822 10.6353 13.5562 10.6024 13.5233C10.5695 13.4905 10.5434 13.4515 10.5255 13.4086C10.5077 13.3656 10.4985 13.3196 10.4985 13.2732V10.8534C10.4985 10.7595 10.5359 10.6695 10.6024 10.6032C10.6689 10.5368 10.7591 10.4996 10.8532 10.4996Z"
              fill="currentColor"/>
        <path d="M10.8532 4.50035C10.9472 4.50035 11.0374 4.53763 11.1039 4.60397C11.1704 4.67032 11.2078 4.7603 11.2078 4.85413V6.91452H13.2787C13.3727 6.91452 13.4629 6.95179 13.5294 7.01814C13.5959 7.08448 13.6333 7.17447 13.6333 7.26829C13.6333 7.36212 13.5959 7.45211 13.5294 7.51845C13.4629 7.5848 13.3727 7.62207 13.2787 7.62207H10.8532C10.7591 7.62207 10.6689 7.5848 10.6024 7.51845C10.5359 7.45211 10.4985 7.36212 10.4985 7.26829V4.85413C10.4985 4.7603 10.5359 4.67032 10.6024 4.60397C10.6689 4.53763 10.7591 4.50035 10.8532 4.50035Z"
              fill="currentColor"/>
        <path d="M5.46648 5.81599C5.42001 5.81578 5.37404 5.80642 5.3312 5.78845C5.28836 5.77048 5.2495 5.74426 5.21684 5.71128L3.60265 4.10372C3.53607 4.03729 3.49866 3.94719 3.49866 3.85325C3.49866 3.7593 3.53607 3.6692 3.60265 3.60277C3.66924 3.53634 3.75955 3.49902 3.85372 3.49902C3.94788 3.49902 4.03819 3.53634 4.10478 3.60277L5.71613 5.21316C5.76585 5.26264 5.79972 5.32573 5.81346 5.39444C5.82719 5.46315 5.82017 5.53438 5.79328 5.5991C5.76639 5.66382 5.72084 5.71912 5.66241 5.75799C5.60397 5.79685 5.53529 5.81753 5.46506 5.81741L5.46648 5.81599Z"
              fill="currentColor"/>
        <path d="M12.8539 5.31697C12.7837 5.31709 12.715 5.29641 12.6566 5.25755C12.5981 5.21868 12.5526 5.16339 12.5257 5.09866C12.4988 5.03394 12.4918 4.96271 12.5055 4.894C12.5192 4.82529 12.5531 4.7622 12.6028 4.71272L14.2213 3.10375C14.2879 3.03732 14.3782 3 14.4723 3C14.5665 3 14.6568 3.03732 14.7234 3.10375C14.79 3.17018 14.8274 3.26028 14.8274 3.35422C14.8274 3.44817 14.79 3.53827 14.7234 3.6047L13.105 5.21225C13.0721 5.2454 13.033 5.27173 12.9899 5.2897C12.9469 5.30768 12.9006 5.31694 12.8539 5.31697Z"
              fill="currentColor"/>
        <path d="M14.4665 14.816C14.3743 14.8148 14.2862 14.7778 14.2211 14.7127L12.6027 13.1037C12.5361 13.0373 12.4987 12.9472 12.4987 12.8532C12.4987 12.7593 12.5361 12.6692 12.6027 12.6028C12.6692 12.5363 12.7595 12.499 12.8537 12.499C12.9479 12.499 13.0382 12.5363 13.1048 12.6028L14.7175 14.2174C14.7673 14.2669 14.8011 14.33 14.8149 14.3987C14.8286 14.4674 14.8216 14.5386 14.7947 14.6033C14.7678 14.6681 14.7223 14.7234 14.6638 14.7622C14.6054 14.8011 14.5367 14.8218 14.4665 14.8217V14.816Z"
              fill="currentColor"/>
        <path d="M3.34825 14.8016C3.27917 14.8007 3.21188 14.7796 3.15463 14.741C3.09739 14.7024 3.05269 14.648 3.02602 14.5844C2.99935 14.5209 2.99188 14.4509 3.00452 14.3831C3.01717 14.3154 3.04937 14.2528 3.09719 14.203L4.71137 12.5884C4.7791 12.5283 4.86731 12.4964 4.95788 12.4992C5.04846 12.502 5.13453 12.5392 5.19843 12.6034C5.26232 12.6675 5.29919 12.7535 5.30147 12.8439C5.30374 12.9343 5.27125 13.0221 5.21066 13.0893L3.59931 14.6983C3.56637 14.7312 3.52722 14.7573 3.48413 14.775C3.44104 14.7927 3.39486 14.8018 3.34825 14.8016Z"
              fill="currentColor"/>
    </g>
    <defs>
        <clipPath id="clip0">
            <rect width="12" height="12" fill="white" transform="translate(2.99878 3)"/>
        </clipPath>
    </defs>
</svg>
