<svg width="16" height="16" viewBox="0 0 16 16" fill="none" xmlns="http://www.w3.org/2000/svg">
    <g clip-path="url(#clip0)">
        <path fill-rule="evenodd" clip-rule="evenodd"
              d="M11.3606 4.07223C10.4013 3.62852 9.30099 3.33594 8.06654 3.33594C3.26137 3.33594 0.488085 7.76915 0.160909 8.29216C0.147643 8.31337 0.138399 8.32814 0.133203 8.33594C-0.00013021 8.53594 -0.00013021 8.8026 0.133203 9.0026C0.138399 9.0104 0.147643 9.02518 0.160909 9.04638C0.313164 9.28977 0.995148 10.38 2.16512 11.4761L3.22589 10.622C2.38962 9.86532 1.81379 9.09015 1.5332 8.66927C2.19987 7.6026 4.5332 4.66927 8.06654 4.66927C8.82336 4.66927 9.52512 4.80691 10.1672 5.03305L11.3606 4.07223ZM13.954 5.84944L12.893 6.70375C13.737 7.46447 14.3177 8.24601 14.5999 8.66927C13.9332 9.66927 11.5999 12.6693 8.06654 12.6693C7.3015 12.6693 6.59272 12.5286 5.94494 12.2981L4.75343 13.2575C5.71714 13.7061 6.82389 14.0026 8.06654 14.0026C12.8717 14.0026 15.645 9.56939 15.9722 9.04638C15.9854 9.02517 15.9947 9.0104 15.9999 9.0026C16.1332 8.8026 16.1332 8.53594 15.9999 8.33594C15.9947 8.32814 15.9854 8.31337 15.9722 8.29216C15.8193 8.04781 15.1325 6.94995 13.954 5.84944ZM6.9762 11.4678C7.31358 11.598 7.68115 11.6693 8.06654 11.6693C9.7332 11.6693 11.0665 10.3359 11.0665 8.66927C11.0665 8.5105 11.0544 8.35475 11.0311 8.2029L9.58505 9.3672C9.37272 9.838 8.94948 10.1862 8.42926 10.2978L6.9762 11.4678ZM7.66186 7.0503C7.17512 7.16783 6.7778 7.494 6.56612 7.93255L5.09873 9.11404C5.07752 8.96903 5.06654 8.82052 5.06654 8.66927C5.06654 7.0026 6.39987 5.66927 8.06654 5.66927C8.44417 5.66927 8.8047 5.73772 9.13647 5.86299L7.66186 7.0503Z"
              fill="currentColor"/>
        <path
            d="M12.902 3.80866C13.2323 3.54273 13.7156 3.59489 13.9815 3.92517C14.2474 4.25546 14.1953 4.73878 13.865 5.00471L2.88197 13.8479C2.55169 14.1138 2.06836 14.0616 1.80243 13.7313C1.5365 13.4011 1.58867 12.9177 1.91895 12.6518L12.902 3.80866Z"
            fill="currentColor"/>
    </g>
    <defs>
        <clipPath id="clip0">
            <rect width="16" height="16" fill="white"/>
        </clipPath>
    </defs>
</svg>
