<svg width="32" height="32" viewBox="0 0 32 32" fill="none" xmlns="http://www.w3.org/2000/svg">
    <path
        d="M7.49681 15.939L3.67025 14.7676L0 15.939C0 20.3311 1.78656 24.4388 4.67119 27.3235L9.13675 27.3872L9.96975 22.0249C8.44263 20.4978 7.49681 18.2643 7.49681 15.939Z"
        fill="#54E360"/>
    <path
        d="M26.1299 23.2472L22.017 22.0238C20.4898 23.551 18.3189 24.4967 15.9936 24.4967L13.5337 29.4166L15.9936 31.9936C20.3858 31.9936 24.4309 30.207 27.3156 27.3224L26.1299 23.2472Z"
        fill="#FDBF00"/>
    <path
        d="M28.8378 6.43666C28.8378 6.43666 28.8378 6.41791 28.8191 6.41791C28.3505 5.79935 27.8632 5.21841 27.3197 4.69373L24.1381 5.12316L21.9968 9.99767C23.59 11.5345 24.4896 13.6712 24.4896 15.939L29.6046 18.2036L31.9864 15.9389C31.9865 11.8915 30.2091 7.80791 28.8378 6.43666Z"
        fill="#E61E14"/>
    <path
        d="M15.9935 0.00744629C11.6013 0.00744629 7.55607 1.79401 4.67139 4.67863C4.67139 4.67863 4.95895 8.7537 4.6857 9.02707C4.41245 9.30032 9.96995 9.97726 9.96995 9.97726C11.4971 8.45007 13.6681 7.50432 15.9934 7.50432L18.6094 4.30251L15.9935 0.00744629Z"
        fill="#3AAAFF"/>
    <path
        d="M9.96981 9.97862L4.67119 4.68005C1.78656 7.56468 0 11.5474 0 15.9396H7.49681C7.49681 13.6142 8.44263 11.5057 9.96981 9.97862Z"
        fill="#00CC71"/>
    <path
        d="M24.4898 15.9387C24.4898 18.264 23.544 20.4975 22.0168 22.0246L27.3154 27.3232C30.2001 24.4385 31.9866 20.3308 31.9866 15.9387H24.4898Z"
        fill="#FD4E26"/>
    <path
        d="M9.96995 22.0238L4.67139 27.3224C7.55607 30.2071 11.6012 31.9936 15.9934 31.9936V24.4967C13.668 24.4967 11.497 23.5509 9.96995 22.0238Z"
        fill="#FFD400"/>
    <path
        d="M27.3196 4.69301L21.9968 9.99695C21.6033 9.56595 21.1722 9.22857 20.7036 8.90995L20.6849 8.8912C19.2979 7.97282 17.6425 7.50426 15.9932 7.50426V0.00744629C20.3038 0.00744629 24.3584 1.6942 27.3196 4.69301Z"
        fill="#0095FF"/>
</svg>
