<svg width="14" height="12" viewBox="0 0 14 12" fill="none" xmlns="http://www.w3.org/2000/svg">
    <path
        d="M1.04478 11.2H12.9552C13.5319 11.2 14 10.7439 14 10.1818V1.01818C14 0.456145 13.5319 0 12.9552 0H1.04478C0.46806 0 0 0.456145 0 1.01818V10.1818C0 10.7439 0.46806 11.2 1.04478 11.2ZM0.835821 1.01818C0.835821 0.906182 0.929851 0.814545 1.04478 0.814545H12.9552C13.0701 0.814545 13.1642 0.906182 13.1642 1.01818V8.32669L10.8469 6.06836C10.3454 5.57964 9.52836 5.57964 9.02687 6.06836L8.05522 7.01527L5.83194 4.84655C5.33045 4.35782 4.51343 4.35782 4.01194 4.84655L0.835821 7.94385V1.01818ZM0.835821 9.0944L4.60328 5.42284C4.77881 5.25178 5.06507 5.25178 5.2406 5.42284L8.05522 8.16785L9.61612 6.64465C9.79164 6.4736 10.0779 6.4736 10.2534 6.64465L13.1642 9.47927V10.1818C13.1642 10.2938 13.0701 10.3855 12.9552 10.3855H1.04478C0.929851 10.3855 0.835821 10.2938 0.835821 10.1818V9.0944Z"
        fill="currentColor"/>
    <path
        d="M8.25373 4.44364C8.94537 4.44364 9.50746 3.89585 9.50746 3.22182C9.50746 2.54778 8.94537 2 8.25373 2C7.56209 2 7 2.54778 7 3.22182C7 3.89585 7.56209 4.44364 8.25373 4.44364ZM8.25373 2.81455C8.48358 2.81455 8.67164 2.99782 8.67164 3.22182C8.67164 3.44582 8.48358 3.62909 8.25373 3.62909C8.02388 3.62909 7.83582 3.44582 7.83582 3.22182C7.83582 2.99782 8.02388 2.81455 8.25373 2.81455Z"
        fill="currentColor"/>
</svg>
