<svg width="16" height="16" viewBox="0 0 16 16" fill="none" xmlns="http://www.w3.org/2000/svg">
    <path
        d="M13.1937 2.81645C16.0601 5.68249 16.0601 10.3294 13.1937 13.1955C11.5054 14.8842 9.11621 15.6391 6.76314 15.2371C5.37169 14.9995 4.83558 13.2986 5.82936 12.3052L6.93648 11.1977C7.52004 10.6145 7.51965 9.65723 6.93609 9.07406C6.35292 8.49049 5.396 8.48971 4.81244 9.07366L3.70493 10.1808C2.71075 11.175 1.0087 10.6373 0.772215 9.24622C0.371409 6.89354 1.12596 4.50478 2.81468 2.81645C5.68072 -0.0499826 10.3276 -0.0499826 13.1937 2.81645ZM12.7239 3.28628C10.1174 0.67947 5.89093 0.67947 3.28451 3.28628C1.74913 4.82127 1.05811 6.99472 1.42402 9.13524C1.57226 9.99372 2.61663 10.3298 3.2351 9.71095L4.34261 8.60383C5.18423 7.76222 6.5643 7.76261 7.40592 8.60423C8.2491 9.44702 8.24949 10.8247 7.40631 11.6675L6.29919 12.775C5.67994 13.3939 6.01878 14.4395 6.87491 14.5861C9.01542 14.952 11.1889 14.261 12.7239 12.7256C15.3307 10.1192 15.3307 5.8927 12.7239 3.28628Z"
        fill="currentColor"/>
    <path
        d="M10.0939 3.02375C10.6437 3.57398 10.6437 4.4658 10.0939 5.01602C9.54367 5.56586 8.65186 5.56586 8.10163 5.01602C7.55141 4.4658 7.55141 3.57398 8.10163 3.02375C8.65186 2.47353 9.54367 2.47353 10.0939 3.02375ZM9.62407 3.49358C9.33347 3.20298 8.86207 3.20298 8.57146 3.49358C8.28086 3.78419 8.28086 4.25559 8.57146 4.54619C8.86207 4.8368 9.33347 4.8368 9.62407 4.54619C9.91467 4.25559 9.91467 3.78419 9.62407 3.49358Z"
        fill="currentColor"/>
    <path
        d="M12.9855 5.91597C13.5353 6.46619 13.5353 7.358 12.9855 7.90823C12.4353 8.45806 11.5435 8.45806 10.9932 7.90823C10.443 7.358 10.443 6.46619 10.9932 5.91597C11.5435 5.36574 12.4353 5.36574 12.9855 5.91597ZM12.5157 6.38579C12.2251 6.09519 11.7537 6.09519 11.4631 6.38579C11.1725 6.6764 11.1725 7.1478 11.4631 7.4384C11.7537 7.729 12.2251 7.729 12.5157 7.4384C12.8063 7.1478 12.8063 6.6764 12.5157 6.38579Z"
        fill="currentColor"/>
    <path
        d="M6.15885 3.74824C6.70908 4.29847 6.70908 5.19028 6.15885 5.74051C5.60862 6.29074 4.7168 6.29074 4.16658 5.74051C3.61635 5.19028 3.61635 4.29847 4.16658 3.74824C4.7168 3.19801 5.60862 3.19801 6.15885 3.74824ZM5.68902 4.21807C5.39841 3.92747 4.92701 3.92747 4.63641 4.21807C4.3458 4.50868 4.3458 4.98007 4.63641 5.27068C4.92701 5.56128 5.39841 5.56128 5.68902 5.27068C5.97962 4.98007 5.97962 4.50868 5.68902 4.21807Z"
        fill="currentColor"/>
    <path
        d="M12.2616 9.85078C12.8119 10.401 12.8119 11.2928 12.2616 11.8431C11.7114 12.3933 10.8196 12.3933 10.2694 11.8431C9.71913 11.2928 9.71913 10.401 10.2694 9.85078C10.8196 9.30055 11.7114 9.30055 12.2616 9.85078ZM11.7918 10.3206C11.5012 10.03 11.0298 10.03 10.7392 10.3206C10.4486 10.6112 10.4486 11.0826 10.7392 11.3732C11.0298 11.6638 11.5012 11.6638 11.7918 11.3732C12.0824 11.0826 12.0824 10.6112 11.7918 10.3206Z"
        fill="currentColor"/>
</svg>
