<svg width="24" height="24" viewBox="0 0 24 24" fill="none" xmlns="http://www.w3.org/2000/svg">
    <path
        d="M2 13.0915C2 7.89042 6.0613 3.6195 11.2337 3.22088V2.55651H9.37548C8.93487 2.55651 8.59004 2.21484 8.59004 1.77826C8.59004 1.34167 8.93487 1 9.37548 1H14.5479C14.9885 1 15.3333 1.34167 15.3333 1.77826C15.3333 2.21484 14.9885 2.55651 14.5479 2.55651H12.8046V3.22088C14.7203 3.37274 16.4636 4.0371 17.9195 5.10009L18.7816 4.2459L18.4176 3.88525C18.1111 3.58154 18.1111 3.08801 18.4176 2.7843C18.7241 2.48059 19.2222 2.48059 19.5287 2.7843L21.3487 4.58758C21.6552 4.89129 21.6552 5.38481 21.3487 5.68852C21.1954 5.84038 21.0038 5.91631 20.7931 5.91631C20.5824 5.91631 20.3908 5.84038 20.2375 5.68852L19.8736 5.32787L19.0881 6.10613C20.8889 7.89042 22 10.377 22 13.0915C22 18.5582 17.5172 23 12 23C6.48276 23 2 18.5582 2 13.0915ZM12 4.73943C7.34483 4.73943 3.55172 8.47886 3.55172 13.1104C3.55172 17.723 7.34483 21.4815 12 21.4815C16.6552 21.4815 20.4483 17.723 20.4483 13.1104C20.4483 8.49784 16.6552 4.73943 12 4.73943ZM12 13.7368C11.5594 13.7368 11.2146 13.3952 11.2146 12.9776V8.17515C11.2146 7.73857 11.5594 7.39689 12 7.39689C12.4406 7.39689 12.7854 7.73857 12.7854 8.17515V12.1803H15.3525C15.7931 12.1803 16.1379 12.522 16.1379 12.9586C16.1379 13.3952 15.7931 13.7368 15.3525 13.7368H12Z"
        fill="currentColor"/>
</svg>
