<svg width="24" height="24" viewBox="0 0 24 24" fill="none" xmlns="http://www.w3.org/2000/svg">
    <path fill-rule="evenodd" clip-rule="evenodd"
          d="M10.7999 13.7952C10.7999 13.1351 11.3355 12.6 11.997 12.6H20.4028C21.064 12.6 21.5999 13.1361 21.5999 13.7952V20.4049C21.5999 21.0649 21.0643 21.6 20.4028 21.6H11.997C11.3358 21.6 10.7999 21.064 10.7999 20.4049V13.7952ZM11.9999 14.1008V20.0993C11.9999 20.2622 12.1338 20.4 12.2989 20.4H20.1009C20.268 20.4 20.3999 20.2654 20.3999 20.0993V14.1008C20.3999 13.9379 20.2661 13.8 20.1009 13.8H12.2989C12.1318 13.8 11.9999 13.9347 11.9999 14.1008ZM2.3999 13.7952C2.3999 13.1351 2.94107 12.6 3.60502 12.6H8.39478C9.06035 12.6 9.5999 13.1361 9.5999 13.7952V20.4049C9.5999 21.0649 9.05873 21.6 8.39478 21.6H3.60502C2.93945 21.6 2.3999 21.064 2.3999 20.4049V13.7952ZM3.5999 14.1008V20.0993C3.5999 20.2622 3.73433 20.4 3.90016 20.4H8.09964C8.26142 20.4 8.3999 20.2654 8.3999 20.0993V14.1008C8.3999 13.9379 8.26547 13.8 8.09964 13.8H3.90016C3.73838 13.8 3.5999 13.9347 3.5999 14.1008ZM14.9999 3.59515C14.9999 2.9351 15.54 2.40002 16.1951 2.40002H20.4047C21.0648 2.40002 21.5999 2.93606 21.5999 3.59515V10.2049C21.5999 10.8649 21.0598 11.4 20.4047 11.4H16.1951C15.535 11.4 14.9999 10.864 14.9999 10.2049V3.59515ZM16.1999 3.90076V9.89929C16.1999 10.0622 16.3351 10.2 16.502 10.2H20.0978C20.2602 10.2 20.3999 10.0654 20.3999 9.89929V3.90076C20.3999 3.73787 20.2647 3.60002 20.0978 3.60002H16.502C16.3396 3.60002 16.1999 3.73467 16.1999 3.90076ZM2.3999 3.59515C2.3999 2.9351 2.93446 2.40002 3.59836 2.40002H12.6014C13.2633 2.40002 13.7999 2.93606 13.7999 3.59515V10.2049C13.7999 10.8649 13.2653 11.4 12.6014 11.4H3.59836C2.93647 11.4 2.3999 10.864 2.3999 10.2049V3.59515ZM3.5999 3.90076V9.89929C3.5999 10.0622 3.73397 10.2 3.89935 10.2H12.3005C12.4657 10.2 12.5999 10.0654 12.5999 9.89929V3.90076C12.5999 3.73787 12.4658 3.60002 12.3005 3.60002H3.89935C3.73411 3.60002 3.5999 3.73467 3.5999 3.90076Z"
          fill="currentColor"/>
</svg>
