<svg width="16" height="16" viewBox="0 0 16 16" fill="none" xmlns="http://www.w3.org/2000/svg">
    <path
        d="M14.5938 2.90625H1.40625C0.630844 2.90625 0 3.53709 0 4.3125V13.6875C0 14.4629 0.630844 15.0938 1.40625 15.0938H14.5938C15.3692 15.0938 16 14.4629 16 13.6875V4.3125C16 3.53709 15.3692 2.90625 14.5938 2.90625ZM15.0625 13.6875C15.0625 13.946 14.8522 14.1562 14.5938 14.1562H1.40625C1.14778 14.1562 0.9375 13.946 0.9375 13.6875V4.3125C0.9375 4.05403 1.14778 3.84375 1.40625 3.84375H14.5938C14.8522 3.84375 15.0625 4.05403 15.0625 4.3125V13.6875Z"
        fill="currentColor"/>
    <path
        d="M6.92411 6.28125H2.26339C2.0489 6.28125 1.875 6.45515 1.875 6.66964V11.3304C1.875 11.5449 2.0489 11.7188 2.26339 11.7188H6.92411C7.1386 11.7188 7.3125 11.5449 7.3125 11.3304V6.66964C7.3125 6.45515 7.1386 6.28125 6.92411 6.28125ZM6.53571 7.05804V10.7254C5.44713 10.7254 3.99713 10.7254 2.65176 10.7254V7.05804H6.53571Z"
        fill="currentColor"/>
    <path
        d="M13.6575 6.625H9.84497C9.5861 6.625 9.37622 6.83487 9.37622 7.09375C9.37622 7.35263 9.5861 7.5625 9.84497 7.5625H13.6575C13.9163 7.5625 14.1262 7.35263 14.1262 7.09375C14.1262 6.83487 13.9163 6.625 13.6575 6.625Z"
        fill="currentColor"/>
    <path
        d="M13.6575 8.5H9.84497C9.5861 8.5 9.37622 8.70987 9.37622 8.96875C9.37622 9.22762 9.5861 9.4375 9.84497 9.4375H13.6575C13.9163 9.4375 14.1262 9.22762 14.1262 8.96875C14.1262 8.70987 13.9163 8.5 13.6575 8.5Z"
        fill="currentColor"/>
    <path
        d="M13.6575 10.375H9.84497C9.5861 10.375 9.37622 10.5849 9.37622 10.8438C9.37622 11.1026 9.5861 11.3125 9.84497 11.3125H13.6575C13.9163 11.3125 14.1262 11.1026 14.1262 10.8438C14.1262 10.5849 13.9163 10.375 13.6575 10.375Z"
        fill="currentColor"/>
</svg>
