<svg width="22" height="21" viewBox="0 0 22 21" fill="none" xmlns="http://www.w3.org/2000/svg">
    <path d="M18.1973 10.1816C18.1973 10.3249 18.14 10.4538 18.0254 10.5684C17.9251 10.6686 17.7962 10.7188 17.6387 10.7188H12.1816C12.0384 10.7188 11.9095 10.6686 11.7949 10.5684C11.6947 10.4538 11.6445 10.3249 11.6445 10.1816C11.6445 10.0241 11.6947 9.89518 11.7949 9.79492C11.9095 9.69466 12.0384 9.64453 12.1816 9.64453H17.6387C17.7962 9.64453 17.9251 9.69466 18.0254 9.79492C18.14 9.89518 18.1973 10.0241 18.1973 10.1816ZM19.0996 8.35547C19.0996 8.51302 19.0423 8.64193 18.9277 8.74219C18.8275 8.84245 18.6986 8.89974 18.541 8.91406H12.1816C12.0384 8.89974 11.9095 8.84245 11.7949 8.74219C11.6947 8.64193 11.6445 8.51302 11.6445 8.35547C11.6445 8.21224 11.6947 8.09049 11.7949 7.99023C11.9095 7.87565 12.0384 7.81836 12.1816 7.81836H18.541C18.5553 7.81836 18.5625 7.81836 18.5625 7.81836C18.7057 7.81836 18.8275 7.87565 18.9277 7.99023C19.0423 8.09049 19.0996 8.21224 19.0996 8.35547ZM15.4902 13.2754C15.4759 13.2754 15.4616 13.2754 15.4473 13.2754C15.4329 13.2754 15.4258 13.2754 15.4258 13.2754C14.6237 13.2754 13.9362 13.5618 13.3633 14.1348C12.8047 14.6934 12.5254 15.3737 12.5254 16.1758C12.5254 16.9779 12.8047 17.6582 13.3633 18.2168C13.9362 18.7754 14.6237 19.0547 15.4258 19.0547C15.4401 19.0547 15.4544 19.0547 15.4688 19.0547C16.2565 19.0547 16.9225 18.7754 17.4668 18.2168C18.0254 17.6439 18.3047 16.9635 18.3047 16.1758C18.3047 15.388 18.0254 14.7148 17.4668 14.1562C16.9225 13.5977 16.2637 13.304 15.4902 13.2754ZM15.4902 17.959C15.4759 17.959 15.4688 17.959 15.4688 17.959C14.9674 17.959 14.5378 17.7871 14.1797 17.4434C13.8359 17.0853 13.6641 16.6628 13.6641 16.1758C13.6641 15.6745 13.8359 15.252 14.1797 14.9082C14.5378 14.5501 14.9674 14.3711 15.4688 14.3711C15.9557 14.3711 16.3711 14.5501 16.7148 14.9082C17.0729 15.252 17.252 15.6673 17.252 16.1543C17.252 16.6556 17.0801 17.0853 16.7363 17.4434C16.3926 17.7871 15.9772 17.959 15.4902 17.959ZM10.1621 6.42188H2.81445C2.67122 6.42188 2.54232 6.47917 2.42773 6.59375C2.32747 6.69401 2.27734 6.81576 2.27734 6.95898V12.2871C2.27734 12.2871 2.27734 12.2943 2.27734 12.3086C2.27734 12.4518 2.32747 12.5807 2.42773 12.6953C2.54232 12.7956 2.67122 12.8457 2.81445 12.8457H10.1621C10.3197 12.8457 10.4486 12.7956 10.5488 12.6953C10.6634 12.5807 10.7207 12.4518 10.7207 12.3086C10.7207 12.2943 10.7207 12.2871 10.7207 12.2871V6.95898C10.7064 6.81576 10.6419 6.69401 10.5273 6.59375C10.4271 6.47917 10.3053 6.42188 10.1621 6.42188ZM9.60352 7.51758V11.75H3.37305V7.51758H9.60352ZM10.0117 15.6387C10.0117 15.7819 9.95443 15.9108 9.83984 16.0254C9.73958 16.1257 9.61784 16.1758 9.47461 16.1758C9.46029 16.1758 9.45312 16.1758 9.45312 16.1758H3.09375C2.95052 16.1758 2.82161 16.1257 2.70703 16.0254C2.60677 15.9108 2.55664 15.7819 2.55664 15.6387C2.55664 15.4811 2.60677 15.3522 2.70703 15.252C2.82161 15.1374 2.95052 15.0801 3.09375 15.0801H9.45312C9.61068 15.0801 9.73958 15.1374 9.83984 15.252C9.95443 15.3522 10.0117 15.4811 10.0117 15.6387ZM10.0117 17.4434C10.0117 17.6009 9.95443 17.737 9.83984 17.8516C9.73958 17.9518 9.61068 18.002 9.45312 18.002H4.91992C4.76237 18.002 4.63346 17.9518 4.5332 17.8516C4.43294 17.737 4.37565 17.6009 4.36133 17.4434C4.37565 17.3001 4.43294 17.1784 4.5332 17.0781C4.63346 16.9635 4.76237 16.9062 4.91992 16.9062H9.45312C9.45312 16.9062 9.46029 16.9062 9.47461 16.9062C9.61784 16.9062 9.73958 16.9635 9.83984 17.0781C9.95443 17.1784 10.0117 17.3001 10.0117 17.4434ZM19.3145 0.320312H2.32031C1.81901 0.320312 1.38932 0.499349 1.03125 0.857422C0.673177 1.20117 0.494141 1.6237 0.494141 2.125V19.1406C0.494141 19.6419 0.673177 20.0645 1.03125 20.4082C1.38932 20.7663 1.81901 20.9453 2.32031 20.9453H19.3145C19.8158 20.9453 20.2454 20.7663 20.6035 20.4082C20.9616 20.0645 21.1406 19.6419 21.1406 19.1406V2.125C21.1406 1.6237 20.9616 1.20117 20.6035 0.857422C20.2598 0.499349 19.8372 0.320312 19.3359 0.320312C19.3216 0.320312 19.3145 0.320312 19.3145 0.320312ZM1.80469 2.125C1.80469 1.98177 1.85482 1.86003 1.95508 1.75977C2.05534 1.65951 2.17708 1.60938 2.32031 1.60938H19.3145C19.4577 1.60938 19.5794 1.65951 19.6797 1.75977C19.7799 1.86003 19.8301 1.98177 19.8301 2.125V4.03711H1.80469V2.125ZM19.3145 19.6348H2.32031C2.17708 19.6348 2.05534 19.5918 1.95508 19.5059C1.85482 19.4056 1.80469 19.2839 1.80469 19.1406V5.30469H19.8301V19.1406C19.8301 19.2839 19.7799 19.4056 19.6797 19.5059C19.5794 19.5918 19.4648 19.6348 19.3359 19.6348C19.3216 19.6348 19.3145 19.6348 19.3145 19.6348Z" fill="currentColor"/>
</svg>
