<svg width="16" height="16" viewBox="0 0 16 16" fill="none" xmlns="http://www.w3.org/2000/svg">
    <path
        d="M13.2197 14.7148C13.0662 14.5882 12.9469 14.4352 12.8649 14.2601C12.7819 14.0824 12.738 13.8877 12.738 13.6969V9.29234V8.98758V8.24045C12.738 7.07962 11.7891 6.13516 10.6228 6.13516H9.25411C9.13098 6.13516 9.01715 6.08579 8.93334 5.99619C8.8503 5.90735 8.809 5.79215 8.81708 5.67131L9.06805 1.87398C9.0935 1.48967 8.95681 1.10766 8.69319 0.826056C8.42835 0.543084 8.05411 0.380951 7.66614 0.380951C6.89098 0.380951 6.26028 1.00891 6.26028 1.78072C6.26028 1.81287 6.26043 1.84274 6.26272 1.87398L6.51369 5.67146C6.52176 5.79215 6.48047 5.90735 6.39742 5.99619C6.31361 6.08579 6.19963 6.13516 6.07666 6.13516H4.70797C3.54165 6.13516 2.59277 7.07962 2.59277 8.24045V8.98758V9.29234V14.2825C2.59277 15.0194 3.19559 15.619 3.93662 15.619H12.8936C13.1136 15.619 13.3033 15.4857 13.3769 15.2797C13.4499 15.0744 13.3877 14.8524 13.2197 14.7148ZM3.20214 8.24045C3.20214 7.41562 3.87765 6.74468 4.70782 6.74468H6.07651C6.36573 6.74468 6.64504 6.62369 6.84237 6.41265C7.0391 6.20236 7.14089 5.91741 7.12169 5.63108L6.87072 1.83299C6.8695 1.81516 6.8698 1.79855 6.8698 1.78072C6.8698 1.34507 7.22698 0.990475 7.66614 0.990475C7.88923 0.990475 8.09586 1.07992 8.24809 1.24251C8.3991 1.40388 8.47422 1.61387 8.45974 1.83375L8.20877 5.63078C8.18972 5.91741 8.29152 6.20221 8.48809 6.41249C8.68542 6.62354 8.96473 6.74453 9.25395 6.74453H10.6226C11.4528 6.74453 12.1283 7.41546 12.1283 8.2403V8.68266H3.20214V8.24045ZM3.93647 15.0095C3.53159 15.0095 3.20214 14.6834 3.20214 14.2825V9.29234H12.1285V13.6968C12.1285 13.9762 12.1922 14.2603 12.3127 14.5182C12.396 14.6964 12.5091 14.8628 12.6455 15.0095H3.93647Z"
        fill="currentColor"/>
</svg>
