<svg width="16" height="16" viewBox="0 0 16 16" fill="none" xmlns="http://www.w3.org/2000/svg">
    <path
        d="M13.0826 3.70672C11.8361 2.45766 10.2123 1.72434 8.46872 1.61259V0.9375H9.15622C9.41509 0.9375 9.62497 0.727625 9.62497 0.46875C9.62497 0.209875 9.41509 0 9.15622 0H6.84372C6.58484 0 6.37497 0.209875 6.37497 0.46875C6.37497 0.727625 6.58484 0.9375 6.84372 0.9375H7.53122V1.61259C6.33569 1.68922 5.19659 2.05813 4.19675 2.68522L3.75147 2.23903C3.53475 2.02188 3.24647 1.90231 2.93969 1.90231C2.63291 1.90231 2.34462 2.02191 2.12794 2.23903L1.45072 2.91772C1.00494 3.36437 1.00494 4.09119 1.45072 4.53788L1.89903 4.98712C1.19144 6.11934 0.8125 7.42972 0.8125 8.79856C0.8125 10.7219 1.56 12.5303 2.91731 13.8904C4.27488 15.2508 6.07994 16 7.99997 16C9.92 16 11.7251 15.2508 13.0826 13.8904C14.4399 12.5303 15.1874 10.7219 15.1874 8.79856C15.1874 6.87519 14.4399 5.06684 13.0826 3.70672ZM2.11431 3.57997L2.79156 2.90131C2.84494 2.84784 2.90728 2.83984 2.93972 2.83984C2.97216 2.83984 3.03453 2.84781 3.08791 2.90131L3.42759 3.24169C3.25144 3.38772 3.08106 3.54269 2.91734 3.70675C2.75409 3.87034 2.59987 4.04056 2.45453 4.21656L2.11431 3.87566C2.03294 3.79413 2.03294 3.66147 2.11431 3.57997ZM7.99997 15.0625C4.55372 15.0625 1.75 12.2525 1.75 8.79856C1.75 5.34462 4.55372 2.53463 7.99997 2.53463C11.4462 2.53463 14.2499 5.34459 14.2499 8.79856C14.2499 12.2525 11.4462 15.0625 7.99997 15.0625Z"
        fill="currentColor"/>
    <path
        d="M8.00003 3.41345C5.03622 3.41345 2.625 5.82926 2.625 8.7987C2.625 11.7681 5.03622 14.184 8.00003 14.184C10.9638 14.184 13.3751 11.7681 13.3751 8.7987C13.3751 5.82926 10.9638 3.41345 8.00003 3.41345ZM8.46878 13.2216V12.6737C8.46878 12.4149 8.25891 12.205 8.00003 12.205C7.74116 12.205 7.53128 12.4149 7.53128 12.6737V13.2216C5.45766 13.0024 3.80534 11.346 3.58713 9.26745H4.12503C4.38391 9.26745 4.59378 9.05758 4.59378 8.7987C4.59378 8.53983 4.38391 8.32995 4.12503 8.32995H3.58716C3.80534 6.25142 5.45766 4.59498 7.53128 4.37576V4.92367C7.53128 5.18255 7.74116 5.39242 8.00003 5.39242C8.25891 5.39242 8.46878 5.18255 8.46878 4.92367V4.37576C10.5424 4.59498 12.1947 6.25142 12.4129 8.32995H11.875C11.6162 8.32995 11.4063 8.53983 11.4063 8.7987C11.4063 9.05758 11.6162 9.26745 11.875 9.26745H12.4129C12.1947 11.346 10.5424 13.0024 8.46878 13.2216Z"
        fill="currentColor"/>
    <path
        d="M9.15643 8.52793H8.49512V6.63208C8.49512 6.37321 8.28524 6.16333 8.02637 6.16333C7.76749 6.16333 7.55762 6.37321 7.55762 6.63208V8.99668C7.55762 9.25555 7.76749 9.46543 8.02637 9.46543H9.15643C9.41531 9.46543 9.62519 9.25555 9.62519 8.99668C9.62519 8.7378 9.41531 8.52793 9.15643 8.52793Z"
        fill="currentColor"/>
</svg>
