<svg xmlns="http://www.w3.org/2000/svg" width="16" height="16" viewBox="0 0 16 16">
    <g fill="none" fill-rule="evenodd">
        <path d="M-4-4h24v24H-4z"/>
        <path fill="#C3C6D1" d="M6.586 8L1.464 2.879A1 1 0 0 1 2.88 1.464L8 6.586 14.192.393a1 1 0 1 1 1.415 1.415L9.414 8l6.193 6.192a1 1 0 1 1-1.415 1.415L8 9.414l-5.121 5.122a1 1 0 1 1-1.415-1.415L6.586 8z"/>
        <path fill="#C3C6D1" fill-rule="nonzero" d="M2 14h3c.667.114 1 .448 1 1s-.333.886-1 1H0v-5c0-.667.333-1 1-1s1 .333 1 1v3zm12 0v-3c.114-.667.448-1 1-1s.886.333 1 1v5h-5c-.667 0-1-.333-1-1s.333-1 1-1h3zm0-12h-3c-.667-.114-1-.448-1-1s.333-.886 1-1h5v5c0 .667-.333 1-1 1s-1-.333-1-1V2zM2 2v3c-.114.667-.448 1-1 1s-.886-.333-1-1V0h5c.667 0 1 .333 1 1s-.333 1-1 1H2z"/>
    </g>
</svg>
