<svg xmlns="http://www.w3.org/2000/svg" version="1.1">
    <g id="surface1">
        <path
            style="fill:none;stroke-width:1.6;stroke-linecap:butt;stroke-linejoin:miter;stroke:rgb(0%,0%,0%);stroke-opacity:1;stroke-miterlimit:4;"
            d="M 1.600586 0.799805 L 62.401367 0.799805 C 62.842773 0.799805 63.201172 1.158203 63.201172 1.599609 L 63.201172 46.400391 C 63.201172 46.841797 62.842773 47.200195 62.401367 47.200195 L 1.600586 47.200195 C 1.15918 47.200195 0.800781 46.841797 0.800781 46.400391 L 0.800781 1.599609 C 0.800781 1.158203 1.15918 0.799805 1.600586 0.799805 Z M 1.600586 0.799805 "
            transform="matrix(4,0,0,4,0,0)"/>
        <path style=" stroke:none;fill-rule:nonzero;fill:rgb(61.960784%,65.098039%,70.196078%);fill-opacity:1;"
              d="M 232.804688 20.398438 C 232.804688 22.828125 230.835938 24.800781 228.40625 24.800781 C 225.976562 24.800781 224.003906 22.828125 224.003906 20.398438 C 224.003906 17.96875 225.976562 16 228.40625 16 C 230.835938 16 232.804688 17.96875 232.804688 20.398438 Z M 232.804688 20.398438 "/>
        <path style=" stroke:none;fill-rule:nonzero;fill:rgb(61.960784%,65.098039%,70.196078%);fill-opacity:1;"
              d="M 232.804688 38.800781 C 232.804688 41.230469 230.835938 43.199219 228.402344 43.199219 C 225.972656 43.199219 224.003906 41.230469 224.003906 38.800781 C 224.003906 36.371094 225.972656 34.398438 228.402344 34.398438 C 230.835938 34.398438 232.804688 36.371094 232.804688 38.800781 Z M 232.804688 38.800781 "/>
        <path style=" stroke:none;fill-rule:nonzero;fill:rgb(61.960784%,65.098039%,70.196078%);fill-opacity:1;"
              d="M 232.804688 57.199219 C 232.804688 59.628906 230.835938 61.601562 228.402344 61.601562 C 225.972656 61.601562 224.003906 59.628906 224.003906 57.199219 C 224.003906 54.769531 225.972656 52.800781 228.402344 52.800781 C 230.835938 52.800781 232.804688 54.769531 232.804688 57.199219 Z M 232.804688 57.199219 "/>
        <path style=" stroke:none;fill-rule:nonzero;fill:rgb(0%,0%,0%);fill-opacity:1;"
              d="M 27.203125 24 L 104.804688 24 C 106.570312 24 108.003906 25.433594 108.003906 27.199219 L 108.003906 36.800781 C 108.003906 38.566406 106.570312 40 104.804688 40 L 27.203125 40 C 25.4375 40 24.003906 38.566406 24.003906 36.800781 L 24.003906 27.199219 C 24.003906 25.433594 25.4375 24 27.203125 24 Z M 27.203125 24 "/>
        <path style=" stroke:none;fill-rule:nonzero;fill:rgb(87.843137%,88.627451%,90.196078%);fill-opacity:1;"
              d="M 27.203125 48 L 156.804688 48 C 158.570312 48 160.003906 49.433594 160.003906 51.199219 L 160.003906 60.800781 C 160.003906 62.566406 158.570312 64 156.804688 64 L 27.203125 64 C 25.4375 64 24.003906 62.566406 24.003906 60.800781 L 24.003906 51.199219 C 24.003906 49.433594 25.4375 48 27.203125 48 Z M 27.203125 48 "/>
        <path style=" stroke:none;fill-rule:nonzero;fill:rgb(74.509804%,76.078431%,78.823529%);fill-opacity:1;"
              d="M 66.214844 119.765625 L 67.515625 111.800781 L 59.914062 111.800781 L 61.726562 100.941406 L 53.472656 100.941406 L 51.660156 111.800781 L 45 111.800781 L 46.808594 100.941406 L 38.554688 100.941406 L 36.746094 111.800781 L 29 111.800781 L 27.695312 119.765625 L 35.441406 119.765625 L 34.429688 125.554688 L 26.753906 125.554688 L 25.453125 133.519531 L 33.125 133.519531 L 31.316406 144.378906 L 39.570312 144.378906 L 41.378906 133.519531 L 48.042969 133.519531 L 46.230469 144.378906 L 54.484375 144.378906 L 56.292969 133.519531 L 64.042969 133.519531 L 65.273438 125.554688 L 57.597656 125.554688 L 58.613281 119.765625 Z M 49.34375 125.554688 L 42.683594 125.554688 L 43.695312 119.765625 L 50.359375 119.765625 Z M 91.777344 149.015625 C 104.882812 149.015625 112.414062 138.296875 112.414062 122.660156 C 112.414062 107.019531 104.882812 96.304688 91.777344 96.304688 C 78.671875 96.304688 71.144531 107.019531 71.144531 122.660156 C 71.144531 138.296875 78.671875 149.015625 91.777344 149.015625 Z M 91.777344 137.71875 C 85.695312 137.71875 82.726562 132.433594 82.726562 122.660156 C 82.726562 112.886719 85.695312 107.601562 91.777344 107.601562 C 97.859375 107.601562 100.828125 112.886719 100.828125 122.660156 C 100.828125 132.433594 97.859375 137.71875 91.777344 137.71875 Z M 137.382812 149.015625 C 150.488281 149.015625 158.015625 138.296875 158.015625 122.660156 C 158.015625 107.019531 150.488281 96.304688 137.382812 96.304688 C 124.277344 96.304688 116.75 107.019531 116.75 122.660156 C 116.75 138.296875 124.277344 149.015625 137.382812 149.015625 Z M 137.382812 137.71875 C 131.300781 137.71875 128.332031 132.433594 128.332031 122.660156 C 128.332031 112.886719 131.300781 107.601562 137.382812 107.601562 C 143.464844 107.601562 146.433594 112.886719 146.433594 122.660156 C 146.433594 132.433594 143.464844 137.71875 137.382812 137.71875 Z M 182.988281 149.015625 C 196.089844 149.015625 203.621094 138.296875 203.621094 122.660156 C 203.621094 107.019531 196.089844 96.304688 182.988281 96.304688 C 169.882812 96.304688 162.351562 107.019531 162.351562 122.660156 C 162.351562 138.296875 169.882812 149.015625 182.988281 149.015625 Z M 182.988281 137.71875 C 176.90625 137.71875 173.9375 132.433594 173.9375 122.660156 C 173.9375 112.886719 176.90625 107.601562 182.988281 107.601562 C 189.070312 107.601562 192.039062 112.886719 192.039062 122.660156 C 192.039062 132.433594 189.070312 137.71875 182.988281 137.71875 Z M 182.988281 137.71875 "/>
    </g>
</svg>
