<svg xmlns="http://www.w3.org/2000/svg" version="1.1">
<g id="surface1">
<path style="fill:none;stroke-width:1.6;stroke-linecap:butt;stroke-linejoin:miter;stroke:rgb(0%,0%,0%);stroke-opacity:1;stroke-miterlimit:4;" d="M 1.600586 0.799805 L 62.400391 0.799805 C 62.842773 0.799805 63.200195 1.158203 63.200195 1.599609 L 63.200195 46.400391 C 63.200195 46.841797 62.842773 47.200195 62.400391 47.200195 L 1.600586 47.200195 C 1.158203 47.200195 0.800781 46.841797 0.800781 46.400391 L 0.800781 1.599609 C 0.800781 1.158203 1.158203 0.799805 1.600586 0.799805 Z M 1.600586 0.799805 " transform="matrix(4,0,0,4,0,0)"/>
<path style=" stroke:none;fill-rule:nonzero;fill:rgb(61.960784%,65.098039%,70.196078%);fill-opacity:1;" d="M 232.804688 20.398438 C 232.804688 22.828125 230.832031 24.800781 228.402344 24.800781 C 225.972656 24.800781 224.003906 22.828125 224.003906 20.398438 C 224.003906 17.96875 225.972656 16 228.402344 16 C 230.832031 16 232.804688 17.96875 232.804688 20.398438 Z M 232.804688 20.398438 "/>
<path style=" stroke:none;fill-rule:nonzero;fill:rgb(61.960784%,65.098039%,70.196078%);fill-opacity:1;" d="M 232.800781 38.800781 C 232.800781 41.230469 230.832031 43.199219 228.402344 43.199219 C 225.972656 43.199219 224.003906 41.230469 224.003906 38.800781 C 224.003906 36.371094 225.972656 34.398438 228.402344 34.398438 C 230.832031 34.398438 232.800781 36.371094 232.800781 38.800781 Z M 232.800781 38.800781 "/>
<path style=" stroke:none;fill-rule:nonzero;fill:rgb(61.960784%,65.098039%,70.196078%);fill-opacity:1;" d="M 232.800781 57.199219 C 232.800781 59.628906 230.832031 61.601562 228.402344 61.601562 C 225.972656 61.601562 224.003906 59.628906 224.003906 57.199219 C 224.003906 54.769531 225.972656 52.800781 228.402344 52.800781 C 230.832031 52.800781 232.800781 54.769531 232.800781 57.199219 Z M 232.800781 57.199219 "/>
<path style=" stroke:none;fill-rule:nonzero;fill:rgb(87.843137%,88.627451%,90.196078%);fill-opacity:1;" d="M 25.601562 99.199219 L 230.402344 99.199219 C 232.167969 99.199219 233.601562 100.632812 233.601562 102.398438 L 233.601562 166.398438 C 233.601562 168.167969 232.167969 169.601562 230.402344 169.601562 L 25.601562 169.601562 C 23.835938 169.601562 22.402344 168.167969 22.402344 166.398438 L 22.402344 102.398438 C 22.402344 100.632812 23.835938 99.199219 25.601562 99.199219 Z M 25.601562 99.199219 "/>
<path style=" stroke:none;fill-rule:nonzero;fill:rgb(0%,0%,0%);fill-opacity:1;" d="M 25.605469 25.601562 L 124.804688 25.601562 C 126.570312 25.601562 128.003906 27.03125 128.003906 28.800781 C 128.003906 30.566406 126.570312 32 124.804688 32 L 25.605469 32 C 23.835938 32 22.402344 30.566406 22.402344 28.800781 C 22.402344 27.03125 23.835938 25.601562 25.605469 25.601562 Z M 25.605469 25.601562 "/>
<path style=" stroke:none;fill-rule:nonzero;fill:rgb(87.843137%,88.627451%,90.196078%);fill-opacity:1;" d="M 25.601562 44.796875 L 124.800781 44.796875 C 126.570312 44.796875 128.003906 46.230469 128.003906 48 L 128.003906 64 C 128.003906 65.765625 126.570312 67.199219 124.800781 67.199219 L 25.601562 67.199219 C 23.835938 67.199219 22.402344 65.765625 22.402344 64 L 22.402344 48 C 22.402344 46.230469 23.835938 44.796875 25.601562 44.796875 Z M 25.601562 44.796875 "/>
</g>
</svg>
