<svg xmlns="http://www.w3.org/2000/svg" version="1.1">
    <g id="surface1">
        <path
            style="fill:none;stroke-width:1.6;stroke-linecap:butt;stroke-linejoin:miter;stroke:rgb(0%,0%,0%);stroke-opacity:1;stroke-miterlimit:4;"
            d="M 1.600586 0.799805 L 62.400391 0.799805 C 62.842773 0.799805 63.200195 1.158203 63.200195 1.599609 L 63.200195 46.400391 C 63.200195 46.841797 62.842773 47.200195 62.400391 47.200195 L 1.600586 47.200195 C 1.158203 47.200195 0.800781 46.841797 0.800781 46.400391 L 0.800781 1.599609 C 0.800781 1.158203 1.158203 0.799805 1.600586 0.799805 Z M 1.600586 0.799805 "
            transform="matrix(4,0,0,4,0,0)"/>
        <path style=" stroke:none;fill-rule:nonzero;fill:rgb(87.843137%,88.627451%,90.196078%);fill-opacity:1;"
              d="M 24.003906 149.148438 L 24.003906 118.851562 C 24.003906 117.277344 25.277344 116 26.851562 116 L 50.519531 116 C 52.09375 116 53.371094 117.277344 53.371094 118.851562 L 53.371094 149.148438 C 53.371094 150.722656 52.09375 152 50.519531 152 L 26.851562 152 C 25.277344 152 24.003906 150.722656 24.003906 149.148438 Z M 24.003906 149.148438 "/>
        <path style=" stroke:none;fill-rule:nonzero;fill:rgb(87.843137%,88.627451%,90.196078%);fill-opacity:1;"
              d="M 60.710938 149.148438 L 60.710938 79.25 C 60.710938 77.675781 61.988281 76.398438 63.5625 76.398438 L 87.230469 76.398438 C 88.804688 76.398438 90.082031 77.675781 90.082031 79.25 L 90.082031 149.148438 C 90.082031 150.722656 88.804688 152 87.230469 152 L 63.5625 152 C 61.988281 152 60.710938 150.722656 60.710938 149.148438 Z M 60.710938 149.148438 "/>
        <path style=" stroke:none;fill-rule:nonzero;fill:rgb(87.843137%,88.627451%,90.196078%);fill-opacity:1;"
              d="M 97.421875 149.148438 L 97.421875 97.25 C 97.421875 95.675781 98.699219 94.398438 100.273438 94.398438 L 123.941406 94.398438 C 125.515625 94.398438 126.792969 95.675781 126.792969 97.25 L 126.792969 149.148438 C 126.792969 150.722656 125.515625 152 123.941406 152 L 100.273438 152 C 98.699219 152 97.421875 150.722656 97.421875 149.148438 Z M 97.421875 149.148438 "/>
        <path style=" stroke:none;fill-rule:nonzero;fill:rgb(87.843137%,88.627451%,90.196078%);fill-opacity:1;"
              d="M 134.132812 149.148438 L 134.132812 46.851562 C 134.132812 45.277344 135.410156 44 136.984375 44 L 160.652344 44 C 162.226562 44 163.5 45.277344 163.5 46.851562 L 163.5 149.148438 C 163.5 150.722656 162.226562 152 160.652344 152 L 136.984375 152 C 135.410156 152 134.132812 150.722656 134.132812 149.148438 Z M 134.132812 149.148438 "/>
        <path style=" stroke:none;fill-rule:nonzero;fill:rgb(0%,0%,0%);fill-opacity:1;"
              d="M 192.503906 66.5 L 227.503906 66.5 C 228.605469 66.5 229.503906 67.394531 229.503906 68.5 L 229.503906 74.25 C 229.503906 75.355469 228.605469 76.25 227.503906 76.25 L 192.503906 76.25 C 191.398438 76.25 190.503906 75.355469 190.503906 74.25 L 190.503906 68.5 C 190.503906 67.394531 191.398438 66.5 192.503906 66.5 Z M 192.503906 66.5 "/>
        <path style=" stroke:none;fill-rule:nonzero;fill:rgb(0%,0%,0%);fill-opacity:1;"
              d="M 192.503906 85.25 L 227.503906 85.25 C 228.605469 85.25 229.503906 86.144531 229.503906 87.25 L 229.503906 93 C 229.503906 94.105469 228.605469 95 227.503906 95 L 192.503906 95 C 191.398438 95 190.503906 94.105469 190.503906 93 L 190.503906 87.25 C 190.503906 86.144531 191.398438 85.25 192.503906 85.25 Z M 192.503906 85.25 "/>
        <path style=" stroke:none;fill-rule:nonzero;fill:rgb(0%,0%,0%);fill-opacity:1;"
              d="M 192.503906 104 L 227.503906 104 C 228.605469 104 229.503906 104.894531 229.503906 106 L 229.503906 111.75 C 229.503906 112.851562 228.605469 113.75 227.503906 113.75 L 192.503906 113.75 C 191.398438 113.75 190.503906 112.851562 190.503906 111.75 L 190.503906 106 C 190.503906 104.894531 191.398438 104 192.503906 104 Z M 192.503906 104 "/>
        <path style=" stroke:none;fill-rule:nonzero;fill:rgb(0%,0%,0%);fill-opacity:1;"
              d="M 192.503906 122.746094 L 227.503906 122.746094 C 228.605469 122.746094 229.503906 123.644531 229.503906 124.746094 L 229.503906 130.496094 C 229.503906 131.601562 228.605469 132.496094 227.503906 132.496094 L 192.503906 132.496094 C 191.398438 132.496094 190.503906 131.601562 190.503906 130.496094 L 190.503906 124.746094 C 190.503906 123.644531 191.398438 122.746094 192.503906 122.746094 Z M 192.503906 122.746094 "/>
    </g>
</svg>
