<svg xmlns="http://www.w3.org/2000/svg" version="1.1">
    <g id="surface1">
        <path
            style="fill:none;stroke-width:1.6;stroke-linecap:butt;stroke-linejoin:miter;stroke:rgb(0%,0%,0%);stroke-opacity:1;stroke-miterlimit:4;"
            d="M 1.600586 0.799805 L 62.400391 0.799805 C 62.842773 0.799805 63.200195 1.158203 63.200195 1.599609 L 63.200195 46.400391 C 63.200195 46.841797 62.842773 47.200195 62.400391 47.200195 L 1.600586 47.200195 C 1.158203 47.200195 0.800781 46.841797 0.800781 46.400391 L 0.800781 1.599609 C 0.800781 1.158203 1.158203 0.799805 1.600586 0.799805 Z M 1.600586 0.799805 "
            transform="matrix(4,0,0,4,0,0)"/>
        <path style=" stroke:none;fill-rule:nonzero;fill:rgb(0%,0%,0%);fill-opacity:1;"
              d="M 27.203125 36 L 228.800781 36 C 230.570312 36 232.003906 37.433594 232.003906 39.199219 L 232.003906 56.800781 C 232.003906 58.566406 230.570312 60 228.800781 60 L 27.203125 60 C 25.433594 60 24.003906 58.566406 24.003906 56.800781 L 24.003906 39.199219 C 24.003906 37.433594 25.433594 36 27.203125 36 Z M 27.203125 36 "/>
        <path style=" stroke:none;fill-rule:nonzero;fill:rgb(87.843137%,88.627451%,90.196078%);fill-opacity:1;"
              d="M 27.203125 68 L 69.742188 68 C 71.511719 68 72.941406 69.433594 72.941406 71.199219 L 72.941406 88.800781 C 72.941406 90.566406 71.511719 92 69.742188 92 L 27.203125 92 C 25.433594 92 24.003906 90.566406 24.003906 88.800781 L 24.003906 71.199219 C 24.003906 69.433594 25.433594 68 27.203125 68 Z M 27.203125 68 "/>
        <path style=" stroke:none;fill-rule:nonzero;fill:rgb(87.843137%,88.627451%,90.196078%);fill-opacity:1;"
              d="M 80.222656 68 L 122.761719 68 C 124.53125 68 125.960938 69.433594 125.960938 71.199219 L 125.960938 88.800781 C 125.960938 90.566406 124.53125 92 122.761719 92 L 80.222656 92 C 78.453125 92 77.023438 90.566406 77.023438 88.800781 L 77.023438 71.199219 C 77.023438 69.433594 78.453125 68 80.222656 68 Z M 80.222656 68 "/>
        <path style=" stroke:none;fill-rule:nonzero;fill:rgb(87.843137%,88.627451%,90.196078%);fill-opacity:1;"
              d="M 133.242188 68 L 175.78125 68 C 177.550781 68 178.980469 69.433594 178.980469 71.199219 L 178.980469 88.800781 C 178.980469 90.566406 177.550781 92 175.78125 92 L 133.242188 92 C 131.472656 92 130.042969 90.566406 130.042969 88.800781 L 130.042969 71.199219 C 130.042969 69.433594 131.472656 68 133.242188 68 Z M 133.242188 68 "/>
        <path style=" stroke:none;fill-rule:nonzero;fill:rgb(87.843137%,88.627451%,90.196078%);fill-opacity:1;"
              d="M 186.261719 68 L 228.800781 68 C 230.570312 68 232 69.433594 232 71.199219 L 232 88.800781 C 232 90.566406 230.570312 92 228.800781 92 L 186.261719 92 C 184.492188 92 183.058594 90.566406 183.058594 88.800781 L 183.058594 71.199219 C 183.058594 69.433594 184.492188 68 186.261719 68 Z M 186.261719 68 "/>
        <path style=" stroke:none;fill-rule:nonzero;fill:rgb(87.843137%,88.627451%,90.196078%);fill-opacity:1;"
              d="M 27.203125 100 L 69.742188 100 C 71.511719 100 72.941406 101.433594 72.941406 103.199219 L 72.941406 120.800781 C 72.941406 122.566406 71.511719 124 69.742188 124 L 27.203125 124 C 25.433594 124 24.003906 122.566406 24.003906 120.800781 L 24.003906 103.199219 C 24.003906 101.433594 25.433594 100 27.203125 100 Z M 27.203125 100 "/>
        <path style=" stroke:none;fill-rule:nonzero;fill:rgb(87.843137%,88.627451%,90.196078%);fill-opacity:1;"
              d="M 80.222656 100 L 122.761719 100 C 124.53125 100 125.960938 101.433594 125.960938 103.199219 L 125.960938 120.800781 C 125.960938 122.566406 124.53125 124 122.761719 124 L 80.222656 124 C 78.453125 124 77.023438 122.566406 77.023438 120.800781 L 77.023438 103.199219 C 77.023438 101.433594 78.453125 100 80.222656 100 Z M 80.222656 100 "/>
        <path style=" stroke:none;fill-rule:nonzero;fill:rgb(87.843137%,88.627451%,90.196078%);fill-opacity:1;"
              d="M 133.242188 100 L 175.78125 100 C 177.550781 100 178.980469 101.433594 178.980469 103.199219 L 178.980469 120.800781 C 178.980469 122.566406 177.550781 124 175.78125 124 L 133.242188 124 C 131.472656 124 130.042969 122.566406 130.042969 120.800781 L 130.042969 103.199219 C 130.042969 101.433594 131.472656 100 133.242188 100 Z M 133.242188 100 "/>
        <path style=" stroke:none;fill-rule:nonzero;fill:rgb(87.843137%,88.627451%,90.196078%);fill-opacity:1;"
              d="M 186.261719 100 L 228.800781 100 C 230.570312 100 232 101.433594 232 103.199219 L 232 120.800781 C 232 122.566406 230.570312 124 228.800781 124 L 186.261719 124 C 184.492188 124 183.058594 122.566406 183.058594 120.800781 L 183.058594 103.199219 C 183.058594 101.433594 184.492188 100 186.261719 100 Z M 186.261719 100 "/>
        <path style=" stroke:none;fill-rule:nonzero;fill:rgb(87.843137%,88.627451%,90.196078%);fill-opacity:1;"
              d="M 27.203125 132 L 69.742188 132 C 71.511719 132 72.941406 133.433594 72.941406 135.199219 L 72.941406 152.800781 C 72.941406 154.566406 71.511719 156 69.742188 156 L 27.203125 156 C 25.433594 156 24.003906 154.566406 24.003906 152.800781 L 24.003906 135.199219 C 24.003906 133.433594 25.433594 132 27.203125 132 Z M 27.203125 132 "/>
        <path style=" stroke:none;fill-rule:nonzero;fill:rgb(87.843137%,88.627451%,90.196078%);fill-opacity:1;"
              d="M 80.222656 132 L 122.761719 132 C 124.53125 132 125.960938 133.433594 125.960938 135.199219 L 125.960938 152.800781 C 125.960938 154.566406 124.53125 156 122.761719 156 L 80.222656 156 C 78.453125 156 77.023438 154.566406 77.023438 152.800781 L 77.023438 135.199219 C 77.023438 133.433594 78.453125 132 80.222656 132 Z M 80.222656 132 "/>
        <path style=" stroke:none;fill-rule:nonzero;fill:rgb(87.843137%,88.627451%,90.196078%);fill-opacity:1;"
              d="M 133.242188 132 L 175.78125 132 C 177.550781 132 178.980469 133.433594 178.980469 135.199219 L 178.980469 152.800781 C 178.980469 154.566406 177.550781 156 175.78125 156 L 133.242188 156 C 131.472656 156 130.042969 154.566406 130.042969 152.800781 L 130.042969 135.199219 C 130.042969 133.433594 131.472656 132 133.242188 132 Z M 133.242188 132 "/>
        <path style=" stroke:none;fill-rule:nonzero;fill:rgb(87.843137%,88.627451%,90.196078%);fill-opacity:1;"
              d="M 186.261719 132 L 228.800781 132 C 230.570312 132 232 133.433594 232 135.199219 L 232 152.800781 C 232 154.566406 230.570312 156 228.800781 156 L 186.261719 156 C 184.492188 156 183.058594 154.566406 183.058594 152.800781 L 183.058594 135.199219 C 183.058594 133.433594 184.492188 132 186.261719 132 Z M 186.261719 132 "/>
    </g>
</svg>
