<svg xmlns="http://www.w3.org/2000/svg" width="23" height="24" viewBox="0 0 23 24">
    <g fill="none" fill-rule="nonzero">
        <path fill="#FFE16B" d="M11.5 4.075c-3.985 0-7.216 3.245-7.216 7.246a7.242 7.242 0 0 0 4.961 6.88v4.44h.902V24h2.706v-1.358h.902V18.2a7.242 7.242 0 0 0 4.96-6.88c0-4-3.23-7.245-7.215-7.245z"/>
        <g fill="#FFE16B">
            <path d="M11.5 0a.451.451 0 0 0-.451.453v1.811a.451.451 0 1 0 .902 0V.453A.451.451 0 0 0 11.5 0zM22.324 10.868H20.52a.451.451 0 0 0-.451.453c0 .25.201.453.45.453h1.805c.249 0 .45-.203.45-.453a.451.451 0 0 0-.45-.453zM2.48 10.868H.676a.451.451 0 0 0-.45.453c0 .25.201.453.45.453H2.48c.25 0 .451-.203.451-.453a.451.451 0 0 0-.45-.453zM18.835 3.316l-1.276 1.28a.454.454 0 0 0 .32.773c.115 0 .23-.044.318-.132l1.275-1.281a.454.454 0 0 0 0-.64.45.45 0 0 0-.637 0zM4.803 17.405l-1.275 1.28a.454.454 0 0 0 .318.774c.116 0 .231-.045.32-.133l1.275-1.28a.454.454 0 0 0 0-.641.45.45 0 0 0-.638 0zM18.197 17.405a.45.45 0 0 0-.638 0 .454.454 0 0 0 0 .64l1.276 1.28a.449.449 0 0 0 .637 0 .454.454 0 0 0 0-.64l-1.275-1.28zM4.165 3.316a.45.45 0 0 0-.637 0 .454.454 0 0 0 0 .64l1.275 1.28a.449.449 0 0 0 .638 0 .454.454 0 0 0 0-.64l-1.276-1.28z"/>
        </g>
        <path fill="#FFF3C1" d="M6.54 11.774a.451.451 0 0 1-.452-.453c0-2.997 2.428-5.434 5.412-5.434.25 0 .451.202.451.453 0 .25-.202.452-.451.452-2.487 0-4.51 2.032-4.51 4.529 0 .25-.201.453-.45.453z"/>
        <path fill="#4B4D56" d="M9.245 19.472v3.17h.902V24h2.706v-1.358h.902v-3.17z"/>
    </g>
</svg>
