<?xml version="1.0" encoding="UTF-8"?>
<svg viewBox="0 0 44 44" version="1.1" xmlns="http://www.w3.org/2000/svg" xmlns:xlink="http://www.w3.org/1999/xlink">
    <!-- Generator: Sketch 51.3 (57544) - http://www.bohemiancoding.com/sketch -->
    <title>private</title>
    <desc>Created with Sketch.</desc>
    <defs></defs>
    <g id="Page-1" stroke="none" stroke-width="1" fill="none" fill-rule="evenodd">
        <g id="private">
            <circle id="Oval-2" fill="#FF4D4D" cx="22" cy="22" r="22"></circle>
            <g transform="translate(9.000000, 9.000000)" id="Shape">
                <polygon points="0 0 26 0 26 26 0 26"></polygon>
                <path d="M13,24 C6.9247,24 2,19.0753 2,13 C2,6.9247 6.9247,2 13,2 C19.0753,2 24,6.9247 24,13 C24,19.0753 19.0753,24 13,24 Z M13,21.8 C17.8601058,21.8 21.8,17.8601058 21.8,13 C21.8,8.1398942 17.8601058,4.2 13,4.2 C8.1398942,4.2 4.2,8.1398942 4.2,13 C4.2,17.8601058 8.1398942,21.8 13,21.8 Z M11.9,13.8712 C10.7064833,13.3503067 10.0419488,12.0636964 10.3080076,10.7889318 C10.5740665,9.51416728 11.6977665,8.60078336 13,8.60078336 C14.3022335,8.60078336 15.4259335,9.51416728 15.6919924,10.7889318 C15.9580513,12.0636964 15.2935167,13.3503067 14.1,13.8712 L14.1,17.4 L11.9,17.4 L11.9,13.8712 Z" fill="#FFFFFF" fill-rule="nonzero"></path>
            </g>
        </g>
    </g>
</svg>
