<?xml version="1.0" encoding="UTF-8"?>
<svg viewBox="0 0 44 44" version="1.1" xmlns="http://www.w3.org/2000/svg" xmlns:xlink="http://www.w3.org/1999/xlink">
    <!-- Generator: Sketch 51.3 (57544) - http://www.bohemiancoding.com/sketch -->
    <title>lunch</title>
    <desc>Created with Sketch.</desc>
    <defs></defs>
    <g id="Page-1" stroke="none" stroke-width="1" fill="none" fill-rule="evenodd">
        <g id="lunch">
            <circle id="Oval-2" fill="var(--status-svg-color)" cx="22" cy="22" r="22"></circle>
            <g transform="translate(15.000000, 11.000000)" fill="#FFFFFF" fill-rule="nonzero" id="Shape">
                <path d="M7.82263393,0.604859649 C7.78540179,0.235335283 7.45669643,-0.0339395712 7.08897321,0.00345224172 C6.72102679,0.0408440546 6.45290179,0.370734893 6.49013393,0.740259259 C7.07995536,6.59373684 7.14263393,6.54105653 6.93455357,7.17716569 C6.67004464,7.98552827 6.02258929,8.59554386 5.20258929,8.80904483 C4.89959821,8.88795322 4.69142857,9.16713645 4.70133929,9.48138012 L5.05808036,20.7674756 C5.05316964,21.2329903 4.67455357,21.6101365 4.20991071,21.6101365 C3.74522321,21.6101365 3.36660714,21.2329006 3.36174107,20.767386 L3.71848214,9.48138012 C3.7284375,9.16713645 3.52026786,8.88795322 3.21723214,8.80904483 C2.08482143,8.51421442 1.25388393,7.44576803 1.38392857,6.156423 L1.92973214,0.740214425 C1.96696429,0.370690058 1.69888393,0.0407992203 1.3309375,0.00340740741 C0.962455357,-0.0336705653 0.634464286,0.235290448 0.597232143,0.604814815 L0.0515178571,6.02102339 C-0.126607143,7.78852632 0.884285714,9.31701754 2.36424107,9.93662768 L2.02285714,20.7369883 C1.98790179,21.8776628 2.94299107,22.9552105 4.21,22.9552105 C5.471875,22.9552105 6.43227679,21.8829981 6.39714286,20.7369883 L6.05575893,9.93662768 C7.53348214,9.31791423 8.54678571,7.79139571 8.3684375,6.02106823 L7.82263393,0.604859649 Z"></path>
                <path d="M4.20995536,6.36651657 C4.57977679,6.36651657 4.87959821,6.06540936 4.87959821,5.69400195 L4.87959821,0.672559454 C4.87959821,0.301152047 4.57977679,4.4834308e-05 4.20995536,4.4834308e-05 C3.84013393,4.4834308e-05 3.5403125,0.301152047 3.5403125,0.672559454 L3.5403125,5.69400195 C3.5403125,6.06540936 3.84013393,6.36651657 4.20995536,6.36651657 Z"></path>
                <path d="M14.2992411,4.4834308e-05 C11.7145536,4.4834308e-05 9.61174107,2.11187524 9.61174107,4.70764717 L9.61174107,15.1092066 C9.61174107,15.480614 9.9115625,15.7817212 10.2813839,15.7817212 L10.9510268,15.7817212 L10.9510268,20.9376667 C10.9510268,22.0501404 11.8522321,22.9552105 12.9599554,22.9552105 C14.0676786,22.9552105 14.9688839,22.0501404 14.9688839,20.9376667 L14.9688839,0.672559454 C14.9688839,0.301152047 14.6690625,4.4834308e-05 14.2992411,4.4834308e-05 Z M13.6295982,20.9376667 C13.6295982,21.3084912 13.3291964,21.6101813 12.9599554,21.6101813 C12.5907143,21.6101813 12.2903125,21.3084912 12.2903125,20.9376667 L12.2903125,15.7817212 L13.6295982,15.7817212 L13.6295982,20.9376667 Z M13.6295982,14.436692 C13.321875,14.436692 11.2397321,14.436692 10.9510268,14.436692 L10.9510268,4.70764717 C10.9510268,3.08379337 12.1032589,1.72508967 13.6295982,1.41263938 L13.6295982,14.436692 Z"></path>
            </g>
        </g>
    </g>
</svg>
