<?xml version="1.0" encoding="UTF-8"?>
<svg viewBox="0 0 44 44" version="1.1" xmlns="http://www.w3.org/2000/svg" xmlns:xlink="http://www.w3.org/1999/xlink">
    <!-- Generator: Sketch 51.3 (57544) - http://www.bohemiancoding.com/sketch -->
    <title>administrative</title>
    <desc>Created with Sketch.</desc>
    <defs></defs>
    <g id="Page-1" stroke="none" stroke-width="1" fill="none" fill-rule="evenodd">
        <g id="administrative">
            <circle id="Oval-2" fill="var(--status-svg-color)" cx="22" cy="22" r="22"></circle>
            <g transform="translate(11.000000, 11.000000)" id="Shape">
                <polygon points="0 0 22 0 22 22 0 22"></polygon>
                <path d="M15.5,2.8 L19.1,2.8 C19.5970562,2.8 20,3.20294372 20,3.7 L20,18.1 C20,18.5970562 19.5970562,19 19.1,19 L2.9,19 C2.40294373,19 2,18.5970562 2,18.1 L2,3.7 C2,3.20294372 2.40294373,2.8 2.9,2.8 L6.5,2.8 L6.5,1 L8.3,1 L8.3,2.8 L13.7,2.8 L13.7,1 L15.5,1 L15.5,2.8 Z M18.2,10 L3.8,10 L3.8,17.2 L18.2,17.2 L18.2,10 Z M13.7,4.6 L8.3,4.6 L8.3,6.4 L6.5,6.4 L6.5,4.6 L3.8,4.6 L3.8,8.2 L18.2,8.2 L18.2,4.6 L15.5,4.6 L15.5,6.4 L13.7,6.4 L13.7,4.6 Z M5.6,11.8 L7.4,11.8 L7.4,13.6 L5.6,13.6 L5.6,11.8 Z M10.1,11.8 L11.9,11.8 L11.9,13.6 L10.1,13.6 L10.1,11.8 Z M14.6,11.8 L16.4,11.8 L16.4,13.6 L14.6,13.6 L14.6,11.8 Z" fill="#FFFFFF" fill-rule="nonzero"></path>
            </g>
        </g>
    </g>
</svg>
