<svg xmlns="http://www.w3.org/2000/svg" viewBox="0 0 44 44">
    <g fill="none" fill-rule="evenodd">
        <circle cx="22" cy="22" r="22" fill="#FF4D4D"/>
        <path d="M10 10h24v24H10z"/>
        <path fill="#FFF" fill-rule="nonzero" d="M22 35c-7.18 0-13-5.82-13-13S14.82 9 22 9s13 5.82 13 13-5.82 13-13 13zm0-2.6c5.744 0 10.4-4.656 10.4-10.4 0-5.744-4.656-10.4-10.4-10.4-5.744 0-10.4 4.656-10.4 10.4 0 5.744 4.656 10.4 10.4 10.4zm-1.3-9.37a3.25 3.25 0 1 1 2.6 0v4.17h-2.6v-4.17z"/>
    </g>
</svg>
