<?xml version="1.0" encoding="UTF-8"?>
<svg xmlns="http://www.w3.org/2000/svg" viewBox="0 0 44 44">
    <g id="surface1">
        <path fill="#5EB300" style=" stroke:none;fill-rule:evenodd;fill-opacity:1;" d="M 23.222656 41.996094 L 18.113281 32.136719 L 15.117188 33.601562 C 11.867188 35.179688 5.246094 22.253906 8.425781 20.550781 L 11.449219 19.0625 L 6.378906 9.167969 L 3.324219 10.675781 C -7.128906 16.125 9.46875 48.386719 20.160156 43.496094 C 20.335938 43.417969 23.210938 42.003906 23.222656 41.996094 Z M 32.207031 37.226562 L 34.117188 40.359375 C 32.25 41.597656 30.179688 42.554688 27.972656 43.179688 L 26.261719 39.835938 C 28.414062 39.320312 30.421875 38.425781 32.207031 37.226562 Z M 37.566406 31.683594 L 41.015625 33.0625 C 39.773438 35.195312 38.179688 37.09375 36.320312 38.695312 L 34.382812 35.511719 C 35.609375 34.390625 36.679688 33.101562 37.566406 31.683594 Z M 38.847656 29.234375 C 39.804688 27.015625 40.332031 24.570312 40.332031 22 C 40.332031 11.882812 32.117188 3.667969 22 3.667969 C 17.421875 3.667969 13.234375 5.347656 10.019531 8.125 L 8.308594 4.78125 C 12.070312 1.789062 16.828125 0 22 0 C 34.140625 0 44 9.859375 44 22 C 44 25.050781 43.375 27.957031 42.253906 30.597656 Z M 32.410156 27.5 L 29.773438 27.5 L 29.773438 24.660156 L 24.492188 24.660156 L 24.492188 22.84375 L 29.003906 15.585938 L 32.410156 15.585938 L 32.410156 22.570312 L 33.839844 22.570312 L 33.839844 24.660156 L 32.410156 24.660156 Z M 23.113281 27.5 L 14.667969 27.5 L 14.667969 25.816406 L 16.207031 24.421875 C 18.808594 22.09375 20.074219 20.753906 20.113281 19.359375 C 20.113281 18.386719 19.523438 17.617188 18.148438 17.617188 C 17.125 17.617188 16.226562 18.132812 15.601562 18.609375 L 14.8125 16.613281 C 15.710938 15.933594 17.105469 15.382812 18.71875 15.382812 C 21.410156 15.382812 22.894531 16.957031 22.894531 19.121094 C 22.894531 21.121094 21.449219 22.71875 19.726562 24.257812 L 18.625 25.171875 L 18.625 25.210938 L 23.113281 25.210938 Z M 29.773438 22.570312 L 29.773438 19.929688 C 29.773438 19.214844 29.808594 18.480469 29.863281 17.710938 L 29.792969 17.710938 C 29.40625 18.480469 29.09375 19.175781 28.691406 19.929688 L 27.097656 22.535156 L 27.097656 22.570312 Z M 29.773438 22.570312 "/>
    </g>
</svg>
