<?xml version="1.0" encoding="UTF-8"?>
<svg viewBox="0 0 44 44" version="1.1" xmlns="http://www.w3.org/2000/svg" xmlns:xlink="http://www.w3.org/1999/xlink">
    <!-- Generator: Sketch 51.3 (57544) - http://www.bohemiancoding.com/sketch -->
    <title>other</title>
    <desc>Created with Sketch.</desc>
    <defs></defs>
    <g id="Page-1" stroke="none" stroke-width="1" fill="none" fill-rule="evenodd">
        <g id="other">
            <circle id="Oval-2" fill="#ED64A6" cx="22" cy="22" r="22"></circle>
            <g id="brief" transform="translate(13.000000, 10.000000)" fill="#FFFFFF" fill-rule="nonzero">
                <path d="M2,24 L16,24 C17.103,24 18,23.103 18,22 L18,5 C18,3.897 17.103,3 16,3 L12,3 C12,1.3455 10.6545,0 9,0 C7.3455,0 6,1.3455 6,3 L2,3 C0.897,3 0,3.897 0,5 L0,22 C0,23.103 0.897,24 2,24 Z M8,3 C8,2.4485 8.4485,2 9,2 C9.5515,2 10,2.4485 10,3 L10,4 C10,4.552 10.448,5 11,5 L12,5 L12,7 L6,7 L6,5 L7,5 C7.552,5 8,4.552 8,4 L8,3 Z M2,5 L4,5 L4,7 C4,8.103 4.897,9 6,9 L12,9 C13.103,9 14,8.103 14,7 L14,5 L16,5 L16,22 L2,22 L2,5 Z" id="Shape"></path>
            </g>
        </g>
    </g>
</svg>
