<?xml version="1.0" encoding="UTF-8"?>
<svg viewBox="0 0 44 44" version="1.1" xmlns="http://www.w3.org/2000/svg" xmlns:xlink="http://www.w3.org/1999/xlink">
    <!-- Generator: Sketch 51.3 (57544) - http://www.bohemiancoding.com/sketch -->
    <title>backoffice</title>
    <desc>Created with Sketch.</desc>
    <defs></defs>
    <g id="Page-1" stroke="none" stroke-width="1" fill="none" fill-rule="evenodd">
        <g id="backoffice">
            <circle id="Oval-2" fill="var(--status-svg-color)" cx="22" cy="22" r="22"></circle>
            <g transform="translate(10.000000, 9.000000)" fill="#FFFFFF" fill-rule="nonzero" id="Shape">
                <path d="M18.6381826,24.7499313 C16.5220825,24.7499313 14.8008565,22.9837418 14.8008565,20.8125687 C14.8008565,18.6411896 16.5220825,16.875 18.6381826,16.875 C20.7540819,16.875 22.4753078,18.6411896 22.4753078,20.8125687 C22.4753078,22.9837418 20.7540819,24.7499313 18.6381826,24.7499313 Z M18.6381826,18.5625 C17.4288678,18.5625 16.4453961,19.5716629 16.4453961,20.8125687 C16.4453961,22.0534744 17.4288678,23.0624313 18.6381826,23.0624313 C19.8474973,23.0624313 20.8307682,22.0534744 20.8307682,20.8125687 C20.8307682,19.5716629 19.8474973,18.5625 18.6381826,18.5625 Z"></path>
                <path d="M18.6381826,27 C18.184288,27 17.8159128,26.6220016 17.8159128,26.15625 L17.8159128,23.9061813 C17.8159128,23.4404297 18.184288,23.0624313 18.6381826,23.0624313 C19.0920771,23.0624313 19.4604524,23.4404297 19.4604524,23.9061813 L19.4604524,26.15625 C19.4604524,26.6220016 19.0920771,27 18.6381826,27 Z"></path>
                <path d="M18.6381826,18.5625 C18.184288,18.5625 17.8159128,18.1845016 17.8159128,17.71875 L17.8159128,15.4686813 C17.8159128,15.0029297 18.184288,14.6249313 18.6381826,14.6249313 C19.0920771,14.6249313 19.4604524,15.0029297 19.4604524,15.4686813 L19.4604524,17.71875 C19.4604524,18.1845016 19.0920771,18.5625 18.6381826,18.5625 Z"></path>
                <path d="M21.2475241,20.1150741 C20.9634636,20.1150741 20.6872323,19.9642868 20.5348635,19.6931991 C20.3078158,19.2892456 20.4427195,18.7740555 20.8351847,18.5400467 L22.7318656,17.4149093 C23.1243309,17.1821365 23.6276097,17.3205643 23.8556611,17.7232819 C24.0827088,18.1270294 23.9478051,18.6424255 23.5553399,18.8764343 L21.658659,20.0013656 C21.5291756,20.0790252 21.387848,20.1150741 21.2475241,20.1150741 Z"></path>
                <path d="M14.1331638,24.3224945 C13.8493041,24.3224945 13.5728721,24.1717072 13.4205032,23.9006195 C13.1936563,23.4966659 13.3283592,22.9814758 13.7210251,22.747467 L15.6177061,21.6225357 C16.0101713,21.3885269 16.5134502,21.5279846 16.7415016,21.9307022 C16.9683485,22.3346558 16.8334448,22.8498459 16.4409796,23.0838547 L14.5442987,24.208786 C14.4138116,24.2864456 14.2724839,24.3224945 14.1331638,24.3224945 Z"></path>
                <path d="M16.028841,20.1150741 C15.8895209,20.1150741 15.7469887,20.0790252 15.6177061,20.0013656 L13.7210251,18.8764343 C13.3283592,18.6424255 13.1936563,18.1270294 13.4205032,17.7232819 C13.6485546,17.3205643 14.1518335,17.1821365 14.5442987,17.4149093 L16.4409796,18.5400467 C16.8334448,18.7740555 16.9683485,19.2892456 16.7415016,19.6931991 C16.5879283,19.9642868 16.311697,20.1150741 16.028841,20.1150741 Z"></path>
                <path d="M23.1430005,24.3224945 C23.0038812,24.3224945 22.861349,24.2864456 22.7318656,24.208786 L20.8351847,23.0838547 C20.4427195,22.8498459 20.3078158,22.3346558 20.5348635,21.9307022 C20.7629149,21.5279846 21.265993,21.3895569 21.658659,21.6225357 L23.5553399,22.747467 C23.9478051,22.9814758 24.0827088,23.4966659 23.8556611,23.9006195 C23.7032923,24.1717072 23.427061,24.3224945 23.1430005,24.3224945 Z"></path>
                <path d="M9.86723769,11.2499313 C6.84455301,11.2499313 4.38537204,8.72671509 4.38537204,5.62506868 C4.38537204,2.52342221 6.84455301,0 9.86723769,0 C12.8899224,0 15.3491033,2.52342221 15.3491033,5.62506868 C15.3491033,8.72671509 12.8899224,11.2499313 9.86723769,11.2499313 Z M9.86723769,1.6875 C7.75133833,1.6875 6.02991166,3.4536896 6.02991166,5.62506868 C6.02991166,7.79624177 7.75133833,9.56243132 9.86723769,9.56243132 C11.983137,9.56243132 13.7045637,7.79624177 13.7045637,5.62506868 C13.7045637,3.4536896 11.983137,1.6875 9.86723769,1.6875 Z"></path>
                <path d="M10.9635305,23.625 L0.822269807,23.625 C0.368375281,23.625 0,23.2470016 0,22.78125 L0,18.8436813 C0,15.8973542 2.3363223,13.5 5.20764185,13.5 L14.5268335,13.5 C14.9807281,13.5 15.3491033,13.8779984 15.3491033,14.34375 C15.3491033,14.8095016 14.9807281,15.1875 14.5268335,15.1875 L5.20764185,15.1875 C3.24310761,15.1875 1.64453961,16.8278275 1.64453961,18.8436813 L1.64453961,21.9375 L10.9635305,21.9375 C11.417425,21.9375 11.7858003,22.3154984 11.7858003,22.78125 C11.7858003,23.2470016 11.417425,23.625 10.9635305,23.625 Z"></path>
            </g>
        </g>
    </g>
</svg>
